<svg width="93" height="98" viewBox="0 0 93 98" fill="none" xmlns="http://www.w3.org/2000/svg">
<path d="M90.0429 48.6774C90.0429 43.6648 93.7504 38.1307 92.2846 33.6396C90.8188 29.1485 84.5247 26.6857 81.7082 22.8031C78.8916 18.9205 78.6329 12.1694 74.753 9.30087C70.873 6.43237 64.4927 8.28676 59.8655 6.78007C55.2383 5.27339 51.2434 0 46.3575 0C41.4716 0 37.333 5.21544 32.8495 6.78007C28.366 8.34471 21.842 6.46135 17.962 9.30087C14.0821 12.1404 13.8522 18.8625 11.0069 22.8031C8.16158 26.7436 1.92492 28.9457 0.372939 33.6396C-1.17904 38.3335 2.61469 43.6648 2.61469 48.6774C2.61469 53.6901 -1.09282 59.2242 0.372939 63.7153C1.8387 68.2064 8.13284 70.6692 10.9494 74.5518C13.7659 78.4344 14.0246 85.1855 17.9046 88.054C21.7845 90.9225 28.1649 89.0681 32.7921 90.5748C37.4193 92.0815 41.4142 97.3549 46.3 97.3549C51.1859 97.3549 55.3245 92.0525 59.808 90.5748C64.2915 89.0971 70.8156 90.8935 74.6955 88.054C78.5755 85.2145 78.8054 78.4924 81.6507 74.5518C84.496 70.6113 90.7326 68.4092 92.2271 63.7153C93.7216 59.0214 90.0429 53.6901 90.0429 48.6774Z" fill="#FCCD1D"/>
<path d="M46.3608 82.1144C64.5353 82.1144 79.2685 67.261 79.2685 48.9384C79.2685 30.6159 64.5353 15.7625 46.3608 15.7625C28.1864 15.7625 13.4531 30.6159 13.4531 48.9384C13.4531 67.261 28.1864 82.1144 46.3608 82.1144Z" fill="#F9A215"/>
<path d="M49.5191 31.2933L52.9967 37.4069C53.2576 37.8553 53.6106 38.2424 54.0319 38.5422C54.4532 38.842 54.9331 39.0477 55.4396 39.1454L62.4235 40.5362C63.0245 40.6612 63.5824 40.943 64.0414 41.3535C64.5005 41.764 64.8447 42.2887 65.0396 42.8753C65.2345 43.4619 65.2734 44.0897 65.1522 44.6962C65.031 45.3026 64.7541 45.8664 64.3491 46.3311L59.5495 51.5755C59.1868 51.9564 58.9134 52.4144 58.7492 52.9158C58.5851 53.4172 58.5345 53.9493 58.6011 54.473L59.4345 61.4269C59.4979 62.0667 59.3925 62.7119 59.1291 63.2975C58.8657 63.883 58.4536 64.388 57.9344 64.7614C57.4153 65.1349 56.8075 65.3634 56.1726 65.4241C55.5377 65.4847 54.8982 65.3752 54.3188 65.1067L47.8809 62.2092C47.4016 61.9935 46.8826 61.882 46.3577 61.882C45.8328 61.882 45.3138 61.9935 44.8344 62.2092L38.3966 65.1067C37.8172 65.3752 37.1776 65.4847 36.5427 65.4241C35.9078 65.3634 35.3001 65.1349 34.7809 64.7614C34.2618 64.388 33.8497 63.883 33.5863 63.2975C33.3228 62.7119 33.2175 62.0667 33.2808 61.4269L34.1143 54.473C34.1809 53.9493 34.1303 53.4172 33.9661 52.9158C33.802 52.4144 33.5286 51.9564 33.1659 51.5755L28.3662 46.418C27.9613 45.9533 27.6843 45.3895 27.5632 44.7831C27.442 44.1766 27.4808 43.5488 27.6757 42.9622C27.8707 42.3756 28.2148 41.8509 28.6739 41.4404C29.133 41.0299 29.6909 40.7481 30.2918 40.6231L37.2757 39.2323C37.7822 39.1346 38.2622 38.929 38.6835 38.6291C39.1048 38.3293 39.4577 37.9423 39.7187 37.4938L43.1962 31.2933C43.5223 30.7409 43.9851 30.2834 44.5393 29.9657C45.0935 29.648 45.7201 29.481 46.3577 29.481C46.9952 29.481 47.6219 29.648 48.1761 29.9657C48.7303 30.2834 49.1931 30.7409 49.5191 31.2933Z" fill="#FCCD1D"/>
</svg>
