<svg width="40" height="72" viewBox="0 0 40 72" fill="none" xmlns="http://www.w3.org/2000/svg">
<path d="M31.8525 21.9209L20.6587 28.1999L9.46484 21.9209V0.899902H31.8525V21.9209Z" fill="#DF437E"/>
<path d="M38.7661 50.6249C38.7661 48.5165 40.3588 46.1887 39.7291 44.2996C39.0995 42.4105 36.3957 41.3746 35.1858 39.7415C33.9758 38.1083 33.8647 35.2687 32.198 34.0621C30.5313 32.8555 27.7904 33.6355 25.8027 33.0018C23.8149 32.368 22.0988 30.1499 20 30.1499C17.9011 30.1499 16.1233 32.3437 14.1973 33.0018C12.2713 33.6599 9.46872 32.8677 7.80199 34.0621C6.13526 35.2565 6.03649 38.084 4.81422 39.7415C3.59195 41.399 0.912835 42.3252 0.246143 44.2996C-0.420549 46.274 1.20914 48.5165 1.20914 50.6249C1.20914 52.7333 -0.383511 55.0611 0.246143 56.9502C0.875797 58.8393 3.5796 59.8752 4.78953 61.5083C5.99945 63.1415 6.11057 65.9812 7.7773 67.1877C9.44403 68.3943 12.1849 67.6143 14.1726 68.248C16.1603 68.8818 17.8764 71.0999 19.9753 71.0999C22.0741 71.0999 23.852 68.8696 25.778 68.248C27.704 67.6265 30.5066 68.3821 32.1733 67.1877C33.84 65.9933 33.9388 63.1658 35.1611 61.5083C36.3833 59.8508 39.0624 58.9246 39.7044 56.9502C40.3464 54.9758 38.7661 52.7333 38.7661 50.6249Z" fill="#FCCD1D"/>
<path d="M19.9996 64.6892C27.8069 64.6892 34.136 58.4414 34.136 50.7345C34.136 43.0275 27.8069 36.7798 19.9996 36.7798C12.1923 36.7798 5.86328 43.0275 5.86328 50.7345C5.86328 58.4414 12.1923 64.6892 19.9996 64.6892Z" fill="#F9A215"/>
<path d="M21.3579 43.3126L22.8518 45.8842C22.9639 46.0728 23.1155 46.2356 23.2964 46.3617C23.4774 46.4878 23.6836 46.5743 23.9012 46.6154L26.9013 47.2004C27.1595 47.253 27.3991 47.3715 27.5963 47.5442C27.7935 47.7168 27.9414 47.9376 28.0251 48.1843C28.1088 48.431 28.1255 48.6951 28.0735 48.9502C28.0214 49.2053 27.9025 49.4424 27.7285 49.6379L25.6667 51.8438C25.5109 52.0041 25.3934 52.1967 25.3229 52.4076C25.2524 52.6185 25.2307 52.8423 25.2593 53.0626L25.6173 55.9876C25.6445 56.2567 25.5992 56.5281 25.4861 56.7744C25.3729 57.0207 25.1959 57.2331 24.9729 57.3902C24.7499 57.5473 24.4888 57.6434 24.2161 57.6689C23.9433 57.6944 23.6686 57.6483 23.4197 57.5354L20.6541 56.3167C20.4482 56.2259 20.2253 56.179 19.9998 56.179C19.7743 56.179 19.5514 56.2259 19.3455 56.3167L16.5799 57.5354C16.331 57.6483 16.0563 57.6944 15.7835 57.6689C15.5108 57.6434 15.2497 57.5473 15.0267 57.3902C14.8037 57.2331 14.6267 57.0207 14.5135 56.7744C14.4004 56.5281 14.3551 56.2567 14.3823 55.9876L14.7403 53.0626C14.7689 52.8423 14.7472 52.6185 14.6767 52.4076C14.6062 52.1967 14.4887 52.0041 14.3329 51.8438L12.2711 49.6745C12.0971 49.479 11.9782 49.2418 11.9261 48.9868C11.8741 48.7317 11.8908 48.4676 11.9745 48.2209C12.0582 47.9741 12.2061 47.7534 12.4033 47.5808C12.6005 47.4081 12.8401 47.2896 13.0983 47.237L16.0984 46.652C16.316 46.6109 16.5222 46.5244 16.7032 46.3983C16.8841 46.2722 17.0357 46.1093 17.1478 45.9207L18.6417 43.3126C18.7818 43.0803 18.9806 42.8878 19.2187 42.7542C19.4567 42.6206 19.7259 42.5503 19.9998 42.5503C20.2737 42.5503 20.5429 42.6206 20.7809 42.7542C21.019 42.8878 21.2178 43.0803 21.3579 43.3126Z" fill="#FCCD1D"/>
<path d="M26.5847 0.899902V24.7102L20.6586 28.1999L14.7324 24.7102V0.899902H26.5847Z" fill="#E4538A"/>
</svg>
