<svg width="40" height="40" viewBox="0 0 40 40" fill="none" xmlns="http://www.w3.org/2000/svg">
<path d="M19.9872 39.9974C19.8725 39.1094 19.7628 38.2213 19.6429 37.3332C19.3268 34.7161 18.823 32.1253 18.1357 29.5809C16.988 25.5755 14.43 23.0418 10.4387 21.9029C7.95335 21.2315 5.42389 20.7372 2.86917 20.4236C1.91788 20.293 0.96404 20.1676 0 19.9859L1.49452 19.7914C4.47335 19.3973 7.45473 19.0236 10.3443 18.1483C12.0403 17.6364 13.6419 16.9352 14.9936 15.7502C16.5647 14.3682 17.4522 12.5689 18.0719 10.6162C18.837 8.21806 19.217 5.75341 19.5639 3.26061C19.7144 2.178 19.8495 1.09284 20.074 0C20.1377 0.511869 20.1989 1.00582 20.2652 1.50745C20.6707 4.57867 21.0584 7.64988 21.9918 10.6085C22.6345 12.656 23.5807 14.5243 25.2742 15.9217C26.733 17.1246 28.4443 17.8002 30.2372 18.2993C32.7621 19.0031 35.3532 19.364 37.9444 19.7095C38.6362 19.7857 39.3227 19.9045 40 20.0653C39.4542 20.1318 38.9084 20.1958 38.3652 20.2675C35.4246 20.6565 32.4841 21.0353 29.6353 21.9106C27.7608 22.4838 26.0112 23.29 24.6111 24.7258C23.3002 26.0644 22.5325 27.7075 21.9765 29.4683C21.2293 31.8408 20.8493 34.2927 20.5024 36.7471C20.352 37.8297 20.2168 38.9148 20.0765 40L19.9872 39.9974Z" fill="#DF437E"/>
</svg>
