<svg width="276" height="206" viewBox="0 0 276 206" fill="none" xmlns="http://www.w3.org/2000/svg">
<path d="M258.794 116.267C258.794 116.267 258.794 116.045 258.794 115.616C258.794 115.187 258.794 114.551 258.794 113.723C258.794 112.068 258.794 109.643 258.794 106.545C258.794 100.366 258.794 91.5123 258.761 80.8387L258.827 80.9008H211.3L211.383 80.8232C211.383 93.6119 211.383 105.702 211.383 116.252L211.306 116.185L245.646 116.221H255.372H257.95H255.355H245.646L211.261 116.257H211.19V116.185C211.19 105.635 211.19 93.5447 211.19 80.756V80.6784H211.278H258.805H258.888V80.8543C258.888 91.5485 258.888 100.412 258.849 106.602C258.849 109.705 258.849 112.115 258.849 113.764C258.849 114.587 258.849 115.218 258.849 115.647C258.849 116.076 258.794 116.267 258.794 116.267Z" fill="#E0E0E0"/>
<path d="M219.122 87.4063H217.405V105.387H219.122V87.4063Z" fill="#E0E0E0"/>
<path d="M222.439 93.5136H220.723V105.387H222.439V93.5136Z" fill="#EBEBEB"/>
<path d="M225.762 89.6403H224.046V105.48H225.762V89.6403Z" fill="#E0E0E0"/>
<path d="M229.08 88.0993H227.363V105.387H229.08V88.0993Z" fill="#EBEBEB"/>
<path d="M232.398 93.8756H230.681V105.387H232.398V93.8756Z" fill="#E0E0E0"/>
<path d="M235.715 96.1355H233.998V105.387H235.715V96.1355Z" fill="#EBEBEB"/>
<path d="M239.033 89.2524H237.316V105.392H239.033V89.2524Z" fill="#E0E0E0"/>
<path d="M242.35 92.1587H240.633V105.387H242.35V92.1587Z" fill="#EBEBEB"/>
<path d="M245.668 89.8368H243.951V105.387H245.668V89.8368Z" fill="#E0E0E0"/>
<path d="M248.985 94.791H247.268V105.387H248.985V94.791Z" fill="#EBEBEB"/>
<path d="M252.308 92.7741H250.591V105.387H252.308V92.7741Z" fill="#E0E0E0"/>
<path d="M253.009 106.638C253.009 106.675 244.856 106.706 234.793 106.706C224.73 106.706 216.577 106.675 216.577 106.638C216.577 106.602 224.725 106.571 234.793 106.571C244.862 106.571 253.009 106.602 253.009 106.638Z" fill="#E0E0E0"/>
<path d="M219.856 108.055C219.009 108.145 218.153 108.145 217.306 108.055C218.153 107.966 219.009 107.966 219.856 108.055Z" fill="#E0E0E0"/>
<path d="M224.112 108.128C223.099 108.217 222.078 108.217 221.065 108.128C222.078 108.038 223.099 108.038 224.112 108.128Z" fill="#E0E0E0"/>
<path d="M227.7 108.128C226.685 108.217 225.663 108.217 224.647 108.128C225.663 108.038 226.685 108.038 227.7 108.128Z" fill="#E0E0E0"/>
<path d="M231.288 108.128C230.275 108.217 229.254 108.217 228.241 108.128C229.254 108.038 230.275 108.038 231.288 108.128Z" fill="#E0E0E0"/>
<path d="M234.915 108.128C233.901 108.217 232.881 108.217 231.868 108.128C232.881 108.038 233.901 108.038 234.915 108.128Z" fill="#E0E0E0"/>
<path d="M238.525 108.128C237.511 108.217 236.491 108.217 235.478 108.128C236.491 108.038 237.511 108.038 238.525 108.128Z" fill="#E0E0E0"/>
<path d="M242.135 108.128C241.12 108.217 240.098 108.217 239.082 108.128C240.098 108.038 241.12 108.038 242.135 108.128Z" fill="#E0E0E0"/>
<path d="M245.745 108.128C244.73 108.217 243.708 108.217 242.692 108.128C243.708 108.038 244.73 108.038 245.745 108.128Z" fill="#E0E0E0"/>
<path d="M249.349 108.128C248.336 108.217 247.316 108.217 246.302 108.128C247.316 108.038 248.336 108.038 249.349 108.128Z" fill="#E0E0E0"/>
<path d="M252.96 108.128C251.946 108.217 250.926 108.217 249.913 108.128C250.926 108.038 251.946 108.038 252.96 108.128Z" fill="#E0E0E0"/>
<path d="M72.6984 199.469L75.9828 199.422L83.2471 139.668L80.0069 139.316L72.6984 199.469Z" fill="#E0E0E0"/>
<path d="M91.9688 199.469L95.2587 199.422L102.517 139.668L99.2827 139.316L91.9688 199.469Z" fill="#E0E0E0"/>
<path d="M150.067 199.582L146.777 199.536L139.518 140.324L142.753 139.978L150.067 199.582Z" fill="#E0E0E0"/>
<path d="M128.87 199.582L125.586 199.536L118.321 140.324L121.561 139.978L128.87 199.582Z" fill="#E0E0E0"/>
<path d="M78.4558 144.653H144.795V138.214H78.4558V144.653Z" fill="#EBEBEB"/>
<path d="M120.375 71.3391L78.3454 71.8251L78.4503 138.649L125.354 139.026L120.375 71.3391Z" fill="#EBEBEB"/>
<path d="M83.2472 138.385C83.2472 138.385 83.1533 138.525 82.9546 138.794C82.7559 139.063 82.4523 139.466 82.0549 139.988C81.2545 141.053 80.0621 142.626 78.5055 144.689L78.4503 144.596L144.79 144.653L144.635 144.803C144.635 142.734 144.635 140.49 144.635 138.214L144.795 138.364L119.309 138.442L83.2527 138.53H83.0981V138.385C83.0981 118.951 83.1423 102.31 83.1533 90.5246C83.1533 84.6397 83.192 79.97 83.203 76.7586C83.203 75.1606 83.203 73.9299 83.203 73.0921C83.203 72.6784 83.203 72.3681 83.203 72.1458C83.203 71.9234 83.203 71.8251 83.203 71.8251C83.203 71.8251 83.203 71.9337 83.203 72.1458C83.203 72.3578 83.203 72.6629 83.203 73.0921C83.203 73.9299 83.203 75.1606 83.203 76.7586C83.203 79.97 83.203 84.6397 83.2472 90.5246C83.2472 102.31 83.2858 118.967 83.3079 138.385L83.1533 138.235L119.21 138.132L144.696 138.064H144.861V144.978H144.701L78.362 144.741H78.2405L78.3123 144.648L81.9169 139.993L82.8387 138.809C83.1368 138.509 83.2472 138.385 83.2472 138.385Z" fill="#E0E0E0"/>
<path d="M25.2207 92.6707V105.563H23.0624V106.964H25.2207V115.59H65.5553V107.745H62.569V106.033H65.5553V103.448H66.8801V102.284H65.3069V92.6707H25.2207Z" fill="#F5F5F5"/>
<path d="M54.8467 92.7069V115.45H65.5555V107.595H62.5692V106.028L65.5555 106.085V103.515L66.9079 103.52L66.8803 102.191L65.3071 102.155V92.6707L54.8467 92.7069Z" fill="#E0E0E0"/>
<path d="M55.6085 106.778C55.6085 106.856 48.3111 106.918 39.3079 106.918C30.3048 106.918 23.0074 106.856 23.0074 106.778C23.0074 106.7 30.3048 106.633 39.3079 106.633C48.3111 106.633 55.6085 106.711 55.6085 106.778Z" fill="#E0E0E0"/>
<path d="M55.6085 105.47C55.6085 105.547 48.3111 105.609 39.3079 105.609C30.3048 105.609 23.0074 105.547 23.0074 105.47C23.0074 105.392 30.3048 105.325 39.3079 105.325C48.3111 105.325 55.6085 105.387 55.6085 105.47Z" fill="#E0E0E0"/>
<path d="M57.7006 101.943C57.7006 102.02 50.4032 102.088 41.4 102.088C32.3969 102.088 25.0995 102.02 25.0995 101.943C25.0995 101.865 32.3969 101.798 41.4 101.798C50.4032 101.798 57.7006 101.865 57.7006 101.943Z" fill="#E0E0E0"/>
<path d="M57.9048 111.546C57.9048 111.629 50.6019 111.691 41.6043 111.691C32.6067 111.691 25.3037 111.629 25.3037 111.546C25.3037 111.463 32.6012 111.406 41.6043 111.406C50.6074 111.406 57.9048 111.468 57.9048 111.546Z" fill="#E0E0E0"/>
<path d="M175.199 89.6765H139.308V92.2829H175.199V89.6765Z" fill="#EBEBEB"/>
<path d="M175.194 89.6765H165.341V92.2829H175.194V89.6765Z" fill="#E0E0E0"/>
<path d="M134.749 92.2828V104.032H132.784V105.304H134.749V113.17H171.501V106.013H168.774V104.461H171.501V102.124H172.71V101.059H171.269V92.2673L134.749 92.2828Z" fill="#F5F5F5"/>
<path d="M161.742 92.319V113.04H171.501V105.883H168.774V104.456H171.501V102.119H172.71V100.924H171.269V92.2828L161.742 92.319Z" fill="#E0E0E0"/>
<path d="M162.437 105.159C162.437 105.232 155.813 105.289 147.583 105.289C139.352 105.289 132.728 105.232 132.728 105.159C132.728 105.087 139.38 105.03 147.583 105.03C155.785 105.03 162.437 105.066 162.437 105.159Z" fill="#E0E0E0"/>
<path d="M162.437 103.944C162.437 104.017 155.813 104.073 147.583 104.073C139.352 104.073 132.728 104.017 132.728 103.944C132.728 103.872 139.38 103.815 147.583 103.815C155.785 103.815 162.437 103.872 162.437 103.944Z" fill="#E0E0E0"/>
<path d="M164.341 100.733C164.341 100.805 157.69 100.862 149.493 100.862C141.295 100.862 134.638 100.805 134.638 100.733C134.638 100.66 141.29 100.603 149.493 100.603C157.695 100.603 164.341 100.66 164.341 100.733Z" fill="#E0E0E0"/>
<path d="M164.524 109.483C164.524 109.555 157.9 109.617 149.675 109.617C141.45 109.617 134.82 109.555 134.82 109.483C134.82 109.41 141.472 109.353 149.675 109.353C157.878 109.353 164.524 109.41 164.524 109.483Z" fill="#E0E0E0"/>
<path d="M138.386 68.7896V80.5336H136.416V81.811H138.386V89.6765H175.133V82.5194H172.412V80.968H175.133V78.6306H176.342V77.5653H174.907V68.7741L138.386 68.7896Z" fill="#F5F5F5"/>
<path d="M165.374 68.8206V89.542H175.133V82.3901H172.412V80.9628L175.133 81.0094V78.672H176.364L176.342 77.467L174.907 77.4308V68.7896L165.374 68.8206Z" fill="#E0E0E0"/>
<path d="M166.069 81.6403C166.069 81.7127 159.418 81.7748 151.22 81.7748C143.023 81.7748 136.366 81.7127 136.366 81.6403C136.366 81.5679 142.99 81.511 151.22 81.511C159.451 81.511 166.069 81.5731 166.069 81.6403Z" fill="#E0E0E0"/>
<path d="M166.069 80.4509C166.069 80.5233 159.418 80.5802 151.22 80.5802C143.023 80.5802 136.366 80.5233 136.366 80.4509C136.366 80.3785 142.99 80.3164 151.22 80.3164C159.451 80.3164 166.069 80.3785 166.069 80.4509Z" fill="#E0E0E0"/>
<path d="M167.979 77.2343C167.979 77.3016 161.328 77.3636 153.125 77.3636C144.922 77.3636 138.276 77.3016 138.276 77.2343C138.276 77.1671 144.9 77.0999 153.125 77.0999C161.35 77.0999 167.979 77.1671 167.979 77.2343Z" fill="#E0E0E0"/>
<path d="M168.161 85.9894C168.161 86.0618 161.51 86.1186 153.313 86.1186C145.115 86.1186 138.458 86.0618 138.458 85.9894C138.458 85.917 145.082 85.8601 153.313 85.8601C161.543 85.8601 168.161 85.917 168.161 85.9894Z" fill="#E0E0E0"/>
<path d="M172.793 113.051H136.902V115.657H172.793V113.051Z" fill="#EBEBEB"/>
<path d="M172.787 113.051H162.934V115.657H172.787V113.051Z" fill="#E0E0E0"/>
<path d="M71.6054 166.145C71.5723 166.186 71.2576 166.015 70.9154 165.757C70.5732 165.498 70.3192 165.24 70.3634 165.209C70.4076 165.178 70.7112 165.338 71.0534 165.597C71.3956 165.855 71.644 166.103 71.6054 166.145Z" fill="#263238"/>
<path d="M81.0225 152.963C81.1526 151.733 81.0441 150.491 80.7024 149.297C80.5227 148.702 80.1833 148.16 79.7166 147.722C79.2498 147.285 78.6713 146.967 78.0362 146.799C76.5624 146.514 75.0554 147.383 74.2329 148.562C73.4104 149.741 73.1289 151.148 72.8805 152.554C71.2022 162.131 70.5844 171.844 71.0369 181.54L77.0536 182.331C79.6977 172.211 80.5423 163.368 81.0225 152.963Z" fill="#455A64"/>
<path d="M77.1972 146.757C77.1972 146.757 77.1972 146.788 77.1972 146.845C77.1972 146.902 77.142 147 77.0978 147.104C77.004 147.342 76.866 147.668 76.7004 148.076C76.6176 148.288 76.5016 148.521 76.4133 148.779C76.325 149.038 76.2256 149.328 76.1208 149.633C76.0159 149.938 75.9055 150.269 75.784 150.615C75.6626 150.962 75.5798 151.344 75.4749 151.732C74.9724 153.57 74.5835 155.433 74.3102 157.312C73.9845 159.432 73.7582 161.785 73.6036 164.252C73.2945 169.191 73.2504 173.674 73.1124 176.917C73.0461 178.54 72.9909 179.849 72.9247 180.759C72.8916 181.198 72.864 181.545 72.8474 181.793C72.8474 181.902 72.8474 181.99 72.8474 182.067C72.8474 182.145 72.8474 182.155 72.8474 182.155C72.8474 182.155 72.8474 182.124 72.8474 182.062V181.793C72.8474 181.535 72.8474 181.188 72.8805 180.759C72.9247 179.854 72.9578 178.54 73.002 176.917C73.1013 173.674 73.1234 169.191 73.4325 164.242C73.6037 161.77 73.8245 159.417 74.1612 157.291C74.4185 155.408 74.7982 153.541 75.2983 151.701C75.4142 151.313 75.5246 150.936 75.624 150.584C75.7233 150.233 75.8668 149.912 75.9828 149.607C76.0987 149.302 76.1925 149.017 76.2919 148.754C76.3913 148.49 76.5016 148.236 76.5955 148.055C76.7776 147.647 76.9267 147.326 77.0316 147.094L77.153 146.845L77.1972 146.757Z" fill="#263238"/>
<path d="M77.7547 146.757C78.0689 147.106 78.3189 147.501 78.4944 147.926C78.9538 149.091 79.142 150.334 79.0464 151.572C78.8863 154.675 78.5882 158.982 78.1908 163.725C77.7933 168.467 77.3517 172.748 76.9985 175.846C76.8218 177.397 76.6673 178.649 76.5513 179.513L76.4189 180.511C76.4189 180.614 76.3857 180.697 76.3747 180.769V180.852C76.3747 180.852 76.3747 180.821 76.3747 180.764C76.3747 180.707 76.3747 180.609 76.3747 180.505C76.3747 180.257 76.4299 179.926 76.4685 179.507C76.5624 178.618 76.6893 177.372 76.8494 175.831C77.1641 172.728 77.5781 168.446 77.9534 163.709C78.3288 158.972 78.671 154.675 78.8642 151.567C78.9796 150.343 78.8198 149.109 78.395 147.947C78.2197 147.533 78.0055 147.135 77.7547 146.757Z" fill="#263238"/>
<path d="M81.9278 161.351C81.5335 161.329 81.1474 161.236 80.7907 161.077C80.4076 160.981 80.0452 160.824 79.7198 160.611C80.1149 160.639 80.5016 160.732 80.8624 160.885C81.2441 160.98 81.6048 161.138 81.9278 161.351Z" fill="#263238"/>
<path d="M82.6564 155.606C82.3257 155.853 81.9523 156.045 81.5524 156.174C81.1881 156.362 80.7924 156.489 80.3822 156.552C80.7121 156.305 81.0858 156.114 81.4862 155.988C81.8494 155.797 82.2455 155.668 82.6564 155.606Z" fill="#263238"/>
<path d="M82.2811 150.915C81.9893 150.997 81.6809 151.013 81.3813 150.962C81.0777 150.973 80.7754 150.918 80.4981 150.801C80.7906 150.723 81.0986 150.708 81.3979 150.76C81.7009 150.75 82.0026 150.803 82.2811 150.915Z" fill="#263238"/>
<path d="M76.0656 147.911C76.0159 147.942 75.7564 147.631 75.4804 147.223C75.2839 146.99 75.1444 146.72 75.072 146.432C75.1216 146.401 75.3866 146.706 75.6626 147.119C75.9386 147.533 76.1208 147.88 76.0656 147.911Z" fill="#263238"/>
<path d="M74.0176 150.745C73.7448 150.841 73.4506 150.871 73.162 150.832C72.6873 150.832 72.3064 150.77 72.3119 150.713C72.3175 150.657 72.6928 150.62 73.1676 150.631C73.4565 150.608 73.7472 150.646 74.0176 150.745Z" fill="#263238"/>
<path d="M72.5438 156.423C72.2289 156.41 71.9212 156.33 71.644 156.19C71.1693 156.009 70.7995 155.823 70.8216 155.771C71.1364 155.784 71.4441 155.863 71.7213 156.004C72.196 156.185 72.5659 156.355 72.5438 156.423Z" fill="#263238"/>
<path d="M72.3837 161.196C72.3837 161.247 72.0525 161.361 71.6164 161.449C71.1803 161.537 70.8215 161.558 70.8105 161.501C70.7995 161.444 71.1417 161.335 71.5723 161.247C72.0028 161.16 72.3727 161.139 72.3837 161.196Z" fill="#263238"/>
<path d="M71.6937 168.999C71.6937 169.056 71.3349 169.16 70.8767 169.237C70.4186 169.315 70.0377 169.335 70.0267 169.279C70.2731 169.14 70.5513 169.058 70.8381 169.041C71.3018 168.963 71.6827 168.942 71.6937 168.999Z" fill="#263238"/>
<path d="M71.208 173.307C71.2356 173.359 70.932 173.56 70.529 173.757C70.1261 173.953 69.7783 174.077 69.7507 174.031C69.7231 173.984 70.0267 173.778 70.4297 173.581C70.8326 173.385 71.208 173.26 71.208 173.307Z" fill="#263238"/>
<path d="M74.9892 178.199C74.934 178.225 74.669 177.884 74.393 177.434C74.1978 177.174 74.0607 176.88 73.9901 176.57C74.0453 176.57 74.3047 176.885 74.5807 177.335C74.7779 177.594 74.9169 177.888 74.9892 178.199Z" fill="#263238"/>
<path d="M76.0711 170.07C76.1098 170.111 75.8172 170.447 75.4142 170.82C75.0113 171.192 74.6469 171.461 74.6028 171.419C74.5586 171.378 74.8567 171.047 75.2597 170.675C75.6626 170.302 76.027 170.034 76.0711 170.07Z" fill="#263238"/>
<path d="M75.8282 165.809C75.7896 165.845 75.5136 165.633 75.221 165.338C74.9285 165.043 74.7242 164.769 74.7684 164.733C74.8126 164.697 75.083 164.904 75.3756 165.204C75.6682 165.503 75.8724 165.767 75.8282 165.809Z" fill="#263238"/>
<path d="M76.5734 160.358C76.6176 160.394 76.3747 160.72 76.0214 161.082C75.6682 161.444 75.359 161.713 75.3149 161.671C75.2707 161.63 75.5136 161.309 75.8669 160.948C76.2202 160.586 76.5293 160.322 76.5734 160.358Z" fill="#263238"/>
<path d="M76.9929 156.402C76.9543 156.443 76.612 156.19 76.2312 155.843C75.8503 155.497 75.5743 155.171 75.6129 155.135C75.6516 155.099 75.9993 155.347 76.3802 155.699C76.7611 156.05 77.0371 156.355 76.9929 156.402Z" fill="#263238"/>
<path d="M77.832 151.06C77.768 151.351 77.636 151.624 77.4456 151.862C77.1806 152.27 76.9267 152.585 76.8936 152.554C76.9581 152.266 77.09 151.994 77.28 151.758C77.5118 151.344 77.7657 151.029 77.832 151.06Z" fill="#263238"/>
<path d="M79.3665 146.106C79.4217 146.132 79.2671 146.489 79.0298 146.907C78.7924 147.326 78.5495 147.637 78.4778 147.611C78.5261 147.323 78.6431 147.049 78.82 146.809C79.0795 146.395 79.3168 146.08 79.3665 146.106Z" fill="#263238"/>
<path d="M81.1439 148.355C81.1715 148.407 80.9287 148.562 80.5919 148.707C80.2552 148.852 79.9848 148.929 79.9572 148.878C79.9296 148.826 80.1724 148.671 80.5092 148.526C80.8459 148.381 81.0998 148.304 81.1439 148.355Z" fill="#263238"/>
<path d="M81.1716 166.145C80.7598 166.151 80.3532 166.058 79.9903 165.876C79.6008 165.759 79.2508 165.548 78.9746 165.266C79.3561 165.376 79.7257 165.52 80.0786 165.695C80.4581 165.81 80.8243 165.961 81.1716 166.145Z" fill="#263238"/>
<path d="M80.4485 169.915C80.4485 169.966 80.1007 170.08 79.6426 170.163C79.3677 170.243 79.0762 170.261 78.7925 170.214C78.7925 170.158 79.1402 170.049 79.5984 169.966C80.0566 169.884 80.4374 169.858 80.4485 169.915Z" fill="#263238"/>
<path d="M79.5652 176.374C79.1948 176.201 78.8789 175.941 78.6489 175.619C78.3725 175.334 78.1819 174.986 78.0969 174.61C78.3719 174.884 78.6213 175.18 78.8421 175.494C79.1097 175.767 79.3516 176.062 79.5652 176.374Z" fill="#263238"/>
<path d="M69.8942 179.326C69.8556 179.285 70.0985 179.032 70.4462 178.758C70.794 178.483 71.0921 178.297 71.1307 178.344C71.1694 178.39 70.9265 178.639 70.5787 178.913C70.231 179.187 69.9329 179.373 69.8942 179.326Z" fill="#263238"/>
<path d="M67.1121 165.229C66.7202 164.081 66.0081 162.747 64.6999 162.726C64.3186 162.747 63.9501 162.863 63.6327 163.062C63.3154 163.262 63.0606 163.537 62.8949 163.859C62.5462 164.498 62.379 165.21 62.4091 165.928C62.5642 171.032 63.4935 176.091 65.1691 180.95H69.8666C69.8112 175.609 68.8822 170.307 67.1121 165.229Z" fill="#455A64"/>
<path d="M58.6113 158.015C58.3795 156.945 57.7721 155.978 56.8858 155.269C55.9995 154.559 54.8853 154.148 53.7206 154.101C51.6451 154.442 50.8392 156.355 50.5908 158.32C50.3424 160.286 50.9937 162.235 51.6396 164.118C53.7004 170.158 55.7612 176.199 57.822 182.243L63.6677 181.643C61.824 173.55 60.7586 166.046 58.6113 158.015Z" fill="#455A64"/>
<path d="M64.6999 162.726C64.5519 162.926 64.419 163.135 64.3024 163.352C64.0617 163.974 63.9859 164.641 64.0816 165.297C64.1755 166.134 64.2748 167.143 64.4239 168.244C64.5729 169.346 64.7937 170.566 65.0531 171.828C65.6051 174.357 66.1847 176.627 66.5656 178.282C66.7588 179.109 66.9023 179.781 66.9962 180.247L67.0955 180.764C67.103 180.826 67.103 180.888 67.0955 180.95C67.0669 180.893 67.0465 180.832 67.0348 180.769L66.8968 180.252C66.7699 179.735 66.6043 179.104 66.4 178.302C65.9805 176.658 65.3623 174.393 64.8268 171.859C64.5619 170.587 64.3576 169.372 64.2141 168.239C64.1368 167.681 64.0871 167.153 64.0375 166.657C63.9878 166.16 63.9381 165.7 63.916 165.276C63.8319 164.601 63.9326 163.918 64.2086 163.29C64.328 163.072 64.4955 162.88 64.6999 162.726Z" fill="#263238"/>
<path d="M53.8034 153.946C53.5443 154.225 53.3081 154.522 53.0969 154.835C52.5588 155.709 52.2539 156.692 52.2081 157.7C52.183 159.198 52.4275 160.689 52.9313 162.111L54.5873 167.406C55.7575 171.161 56.7953 174.558 57.5846 177.041C57.9489 178.261 58.2525 179.254 58.4678 179.968C58.5617 180.299 58.6389 180.562 58.6941 180.764C58.7243 180.857 58.7465 180.952 58.7604 181.048C58.7173 180.96 58.6823 180.868 58.6555 180.774C58.5837 180.578 58.4954 180.314 58.385 179.988C58.1532 179.28 57.833 178.292 57.4356 177.082C56.6517 174.6 55.5753 171.207 54.383 167.463L52.727 162.158C52.224 160.717 51.9923 159.205 52.0425 157.69C52.1013 156.663 52.4354 155.667 53.0141 154.794C53.2233 154.471 53.4903 154.184 53.8034 153.946Z" fill="#263238"/>
<path d="M62.376 181.059C62.3259 180.974 62.2817 180.885 62.2435 180.795C62.1717 180.619 62.0448 180.366 61.9123 180.024C61.6363 179.352 61.2775 178.359 60.9076 177.118C60.5378 175.877 60.1735 174.372 59.8036 172.702C59.4338 171.032 59.0916 169.185 58.6996 167.251C58.3077 165.317 57.8385 163.497 57.3141 161.873C56.8607 160.429 56.2924 159.018 55.614 157.653C55.1737 156.734 54.6665 155.844 54.096 154.99C53.8972 154.685 53.7151 154.473 53.6047 154.302C53.5413 154.225 53.4858 154.142 53.4391 154.054C53.5139 154.121 53.5805 154.196 53.6378 154.277C53.7592 154.432 53.9524 154.644 54.1898 154.949C54.8138 155.788 55.3675 156.672 55.8458 157.591C56.5519 158.954 57.1407 160.366 57.6067 161.816C58.1504 163.593 58.5963 165.395 58.9425 167.215C59.3289 169.149 59.6932 170.99 60.0465 172.671C60.3998 174.352 60.7365 175.841 61.0898 177.082C61.4431 178.323 61.7688 179.321 62.0227 180.004C62.1441 180.345 62.2545 180.604 62.3208 180.785C62.3514 180.873 62.3699 180.966 62.376 181.059Z" fill="#263238"/>
<path d="M51.7445 163.213C51.7445 163.264 51.4354 163.383 51.0324 163.476C50.6294 163.569 50.2872 163.6 50.2706 163.544C50.2541 163.487 50.5742 163.373 50.9827 163.28C51.3912 163.187 51.7279 163.156 51.7445 163.213Z" fill="#263238"/>
<path d="M51.1207 159.458C50.8017 159.544 50.4693 159.577 50.1381 159.556C49.8078 159.602 49.4716 159.593 49.1445 159.531C49.4517 159.397 49.7891 159.337 50.1271 159.355C50.4623 159.308 50.8045 159.344 51.1207 159.458Z" fill="#263238"/>
<path d="M51.7831 156.061C51.7445 156.102 51.4243 155.911 51.071 155.626C50.7177 155.342 50.4638 155.109 50.519 155.042C50.5742 154.975 50.8723 155.192 51.2256 155.476C51.5789 155.761 51.8217 156.019 51.7831 156.061Z" fill="#263238"/>
<path d="M53.5433 152.901C53.5983 152.901 53.5818 153.18 53.5763 153.501C53.5708 153.821 53.5763 154.09 53.5048 154.096C53.4333 154.101 53.3508 153.837 53.3618 153.496C53.3728 153.154 53.5103 152.885 53.5433 152.901Z" fill="#263238"/>
<path d="M57.2092 154.39C57.2589 154.421 57.1154 154.69 56.8891 154.99C56.6627 155.29 56.4419 155.507 56.3923 155.476C56.3426 155.445 56.4916 155.176 56.7124 154.876C56.9332 154.576 57.1595 154.354 57.2092 154.39Z" fill="#263238"/>
<path d="M59.5718 158.238C59.5718 158.289 59.2958 158.455 58.8984 158.605C58.5009 158.755 58.1642 158.838 58.1421 158.786C58.1201 158.734 58.4181 158.569 58.8156 158.419C59.213 158.269 59.5497 158.186 59.5718 158.238Z" fill="#263238"/>
<path d="M61.007 162.199C60.7443 162.408 60.4217 162.539 60.0797 162.576C59.7539 162.682 59.4019 162.692 59.0695 162.608C59.3801 162.494 59.7046 162.418 60.0355 162.38C60.3491 162.279 60.676 162.218 61.007 162.199Z" fill="#263238"/>
<path d="M54.4216 161.072C54.3664 161.072 54.4216 160.782 54.5155 160.461C54.6093 160.141 54.7528 159.893 54.808 159.908C54.8632 159.924 54.808 160.203 54.7197 160.523C54.6314 160.844 54.4768 161.087 54.4216 161.072Z" fill="#263238"/>
<path d="M55.338 166.046C55.3613 165.756 55.4517 165.474 55.6029 165.219C55.8072 164.79 56.0114 164.454 56.0666 164.48C56.0454 164.769 55.9548 165.05 55.8016 165.302C55.6029 165.736 55.3932 166.067 55.338 166.046Z" fill="#263238"/>
<path d="M53.0693 167.406C52.7795 167.403 52.4937 167.344 52.2302 167.231C51.7831 167.101 51.4188 166.982 51.4298 166.926C51.7226 166.888 52.0206 166.928 52.2909 167.039C52.7491 167.174 53.0913 167.355 53.0693 167.406Z" fill="#263238"/>
<path d="M54.3775 171.461C54.4161 171.502 54.1622 171.73 53.8255 171.978C53.4888 172.226 53.1741 172.355 53.141 172.309C53.1079 172.262 53.3563 172.045 53.693 171.792C54.0297 171.538 54.3444 171.414 54.3775 171.461Z" fill="#263238"/>
<path d="M55.4263 175.489C55.4263 175.546 55.1338 175.66 54.7363 175.753C54.3389 175.846 54.0077 175.872 53.9966 175.815C53.9856 175.758 54.2892 175.644 54.6866 175.556C55.0841 175.469 55.4153 175.448 55.4263 175.489Z" fill="#263238"/>
<path d="M61.123 165.576C61.1561 165.622 60.8911 165.819 60.5047 165.953C60.1183 166.088 59.7816 166.103 59.7706 166.052C59.7595 166 60.0631 165.896 60.4274 165.767C60.7918 165.638 61.0954 165.524 61.123 165.576Z" fill="#263238"/>
<path d="M61.9399 171.869C61.9399 171.921 61.5977 171.833 61.2333 171.673C60.869 171.513 60.593 171.342 60.6206 171.29C60.6482 171.238 60.9629 171.332 61.3272 171.492C61.6915 171.652 61.962 171.812 61.9399 171.869Z" fill="#263238"/>
<path d="M63.3751 176.363C63.0495 176.347 62.7313 176.266 62.4422 176.125C61.9509 175.944 61.57 175.758 61.5921 175.706C61.9176 175.719 62.2361 175.798 62.525 175.939C63.0163 176.12 63.3971 176.311 63.3751 176.363Z" fill="#263238"/>
<path d="M55.6581 179.885C55.6581 179.833 56.0114 179.595 56.453 179.264C56.7049 179.04 56.9848 178.846 57.2865 178.685C57.3307 178.721 57.0492 179.088 56.591 179.425C56.3316 179.656 56.0086 179.815 55.6581 179.885Z" fill="#263238"/>
<path d="M59.4559 177.599C59.3952 177.599 59.3124 177.304 59.1689 176.953C59.0253 176.601 58.8653 176.322 58.9149 176.291C58.9646 176.26 59.213 176.498 59.3676 176.88C59.5221 177.263 59.5111 177.594 59.4559 177.599Z" fill="#263238"/>
<path d="M58.4512 172.185C58.4126 172.231 58.1697 172.123 57.8992 171.942C57.6288 171.761 57.4466 171.58 57.4797 171.533C57.5128 171.487 57.7612 171.6 58.0317 171.776C58.3022 171.952 58.512 172.143 58.4512 172.185Z" fill="#263238"/>
<path d="M67.2998 163.704C67.3385 163.75 67.0956 163.973 66.7478 164.221C66.4001 164.469 66.1185 164.598 66.0854 164.552C66.0523 164.505 66.2897 164.288 66.6374 164.061C66.9852 163.833 67.2667 163.662 67.2998 163.704Z" fill="#263238"/>
<path d="M68.6357 167.122C68.6357 167.179 68.2658 167.251 67.8021 167.205C67.3385 167.158 66.9907 167.008 67.0128 166.957C67.286 166.931 67.5618 166.947 67.8297 167.003C68.2658 167.05 68.6301 167.065 68.6357 167.122Z" fill="#263238"/>
<path d="M62.928 167.887C62.928 167.944 62.5968 168.058 62.1497 168.084C61.8773 168.133 61.5953 168.1 61.3438 167.991C61.3437 167.934 61.7026 167.913 62.1331 167.887C62.3958 167.841 62.6653 167.841 62.928 167.887Z" fill="#263238"/>
<path d="M63.3916 164.661C63.3916 164.712 63.0384 164.723 62.6575 164.557C62.2766 164.392 62.0503 164.138 62.1055 164.097C62.1607 164.055 62.4091 164.226 62.7568 164.371C63.1046 164.516 63.4027 164.629 63.3916 164.661Z" fill="#263238"/>
<path d="M69.1269 170.794C69.0938 170.84 68.7405 170.68 68.3265 170.437C67.9125 170.194 67.6089 169.961 67.6421 169.92C67.6752 169.878 68.034 170.028 68.4425 170.271C68.8509 170.514 69.1601 170.742 69.1269 170.794Z" fill="#263238"/>
<path d="M83.1201 180.381H52.5228V185.46H83.1201V180.381Z" fill="#DF437E"/>
<path d="M54.808 184.451L58.5285 199.634H76.7666L80.8348 184.451H54.808Z" fill="#DF437E"/>
<path d="M83.1036 185.465C83.1036 185.522 76.2036 185.568 67.6917 185.568C59.1799 185.568 52.2799 185.522 52.2799 185.465C52.2799 185.408 59.1799 185.366 67.6917 185.366C76.2036 185.366 83.1036 185.413 83.1036 185.465Z" fill="#263238"/>
<path d="M66.0909 168.001C66.0412 168.032 65.8315 167.8 65.6217 167.484C65.4119 167.169 65.285 166.9 65.3347 166.869C65.3843 166.838 65.5941 167.065 65.8039 167.386C66.0136 167.706 66.1406 167.97 66.0909 168.001Z" fill="#263238"/>
<path d="M66.102 172.087C66.0413 172.087 66.102 171.725 66.2621 171.316C66.4221 170.907 66.5657 170.592 66.6264 170.608C66.6871 170.623 66.6264 170.969 66.4663 171.378C66.3062 171.787 66.1572 172.107 66.102 172.087Z" fill="#263238"/>
<path d="M67.5923 176.379C67.5427 176.379 67.3108 176.058 67.0845 175.613C66.914 175.354 66.8048 175.063 66.7643 174.76C66.8195 174.76 67.0459 175.081 67.2777 175.525C67.4484 175.785 67.5558 176.076 67.5923 176.379Z" fill="#263238"/>
<path d="M64.3632 179.833C64.319 179.797 64.5012 179.528 64.7716 179.238C65.0421 178.949 65.3236 178.721 65.3236 178.773C65.3236 178.825 65.1856 179.078 64.9152 179.368C64.6447 179.657 64.4073 179.869 64.3632 179.833Z" fill="#263238"/>
<path d="M63.6842 173.56C63.6842 173.617 63.3806 173.617 63.0273 173.56C62.6741 173.503 62.3981 173.41 62.4036 173.359C62.4091 173.307 62.7127 173.307 63.066 173.359C63.4193 173.41 63.6953 173.509 63.6842 173.56Z" fill="#263238"/>
<path d="M260.251 199.474C260.251 199.546 205.515 199.608 138.005 199.608C70.4959 199.608 15.7485 199.546 15.7485 199.474C15.7485 199.401 70.4738 199.334 138.005 199.334C205.537 199.334 260.251 199.396 260.251 199.474Z" fill="#263238"/>
<path d="M183.104 115.59H21.953V122.023H183.104V115.59Z" fill="#455A64"/>
<path d="M56.0887 115.688C56.0887 115.688 56.0887 115.714 56.039 115.756C55.9894 115.797 55.9507 115.869 55.8734 115.952C55.6338 116.182 55.3606 116.379 55.062 116.536C54.578 116.782 54.0506 116.943 53.5054 117.012C52.7869 117.107 52.0604 117.136 51.336 117.1C50.4587 117.059 49.5849 116.967 48.7195 116.826C47.7359 116.66 46.7422 116.551 45.7442 116.5C43.4521 116.514 41.1815 116.917 39.043 117.69C36.7411 118.439 34.5938 119.293 32.5404 119.81C31.5694 120.059 30.5779 120.232 29.5762 120.327C28.6989 120.41 27.8149 120.41 26.9376 120.327C25.6703 120.222 24.4406 119.87 23.3275 119.293C22.9285 119.079 22.5579 118.823 22.2235 118.527L22.3008 118.574L22.5161 118.724C22.7914 118.915 23.081 119.088 23.3827 119.241C24.4942 119.796 25.7153 120.132 26.9707 120.229C27.8351 120.311 28.7062 120.311 29.5706 120.229C30.5594 120.107 31.536 119.909 32.4907 119.639C34.5276 119.122 36.6638 118.258 38.9767 117.509C41.1376 116.728 43.4336 116.326 45.7498 116.324C46.7553 116.382 47.7562 116.496 48.7471 116.666C49.6048 116.813 50.4712 116.911 51.3415 116.96C52.0576 117.006 52.7766 116.987 53.4888 116.904C54.0236 116.841 54.5428 116.692 55.0234 116.464C55.4227 116.264 55.7829 116.001 56.0887 115.688Z" fill="#263238"/>
<path d="M38.4633 115.787C38.3121 115.924 38.1497 116.05 37.9776 116.164C37.5133 116.498 37.0203 116.796 36.5037 117.054C35.7374 117.427 34.933 117.726 34.1025 117.948C33.0777 118.212 32.0237 118.363 30.9616 118.398C29.0256 118.464 27.1003 118.1 25.3423 117.338C24.8088 117.11 24.3427 116.764 23.9844 116.33C23.8954 116.208 23.8214 116.078 23.7636 115.942C23.7427 115.894 23.7297 115.843 23.7249 115.792C23.8201 115.971 23.929 116.144 24.0506 116.309C24.4205 116.696 24.879 117 25.392 117.198C27.1297 117.911 29.0159 118.251 30.912 118.191C32.8293 118.147 34.7131 117.711 36.432 116.914C36.9465 116.675 37.4443 116.405 37.9224 116.107C38.092 115.985 38.2731 115.878 38.4633 115.787Z" fill="#263238"/>
<path d="M76.2753 119.862C76.3603 119.883 76.4433 119.911 76.5237 119.944C76.7671 120.021 77.0162 120.082 77.2689 120.125C78.2309 120.282 79.2211 120.14 80.0896 119.722V119.805C79.0692 119.093 77.8574 118.661 76.5899 118.558C74.984 118.412 73.374 118.795 72.0359 119.639C71.9492 119.682 71.8731 119.742 71.8122 119.814C71.7514 119.886 71.7073 119.969 71.6827 120.058C71.6837 120.147 71.7131 120.235 71.7671 120.308C71.8212 120.382 71.8975 120.439 71.9863 120.472C72.1817 120.568 72.3923 120.634 72.61 120.668L73.2945 120.813C74.2219 120.999 75.1713 121.185 76.1594 121.33C77.1657 121.474 78.1832 121.536 79.2009 121.516C79.7243 121.505 80.2462 121.46 80.7631 121.382C81.0225 121.341 81.2819 121.294 81.5414 121.232C81.7989 121.181 82.0504 121.107 82.2921 121.01C82.6685 120.873 83.0039 120.653 83.2691 120.368C83.3883 120.232 83.468 120.069 83.5009 119.895C83.5337 119.721 83.5186 119.542 83.4568 119.375C83.2921 119.051 83.024 118.781 82.6895 118.605C82.3498 118.414 81.9912 118.255 81.6187 118.129C80.1816 117.633 78.6717 117.347 77.1419 117.281C72.7705 117.062 68.451 118.254 64.9041 120.658C64.4128 121.004 64.0319 121.278 63.8001 121.48L63.5131 121.697L63.4137 121.77L63.502 121.687C63.5683 121.625 63.6566 121.547 63.7725 121.454C64.1246 121.152 64.4931 120.868 64.8765 120.601C66.2802 119.615 67.8266 118.821 69.4691 118.243C71.9342 117.37 74.5656 116.987 77.1971 117.116C78.7472 117.178 80.2776 117.464 81.7346 117.964C82.1182 118.095 82.4878 118.259 82.8386 118.455C83.2123 118.652 83.5085 118.957 83.6831 119.324C83.7602 119.518 83.7809 119.728 83.743 119.933C83.7052 120.137 83.6103 120.328 83.4679 120.487C83.1831 120.795 82.8234 121.035 82.4191 121.185C82.165 121.288 81.9005 121.366 81.6297 121.418C81.3703 121.48 81.0777 121.527 80.8403 121.568C80.3147 121.65 79.7834 121.697 79.2506 121.708C78.2215 121.727 77.1927 121.661 76.1759 121.511C75.1823 121.377 74.2219 121.185 73.3 120.994L72.6155 120.849C72.3802 120.808 72.1531 120.733 71.9421 120.627C71.8298 120.572 71.7318 120.494 71.6551 120.399C71.5755 120.3 71.5399 120.176 71.5557 120.053C71.5842 119.944 71.6367 119.841 71.7099 119.752C71.7831 119.663 71.8753 119.589 71.9807 119.536C73.3536 118.677 75.0034 118.295 76.6451 118.455C77.9351 118.566 79.1655 119.016 80.1945 119.753L80.2607 119.799L80.1835 119.836C79.2805 120.242 78.2589 120.354 77.2799 120.156C76.9308 120.107 76.5919 120.008 76.2753 119.862Z" fill="#263238"/>
<path d="M97.014 115.854C97.0885 115.952 97.1428 116.063 97.174 116.18C97.2777 116.49 97.3134 116.817 97.2789 117.141C97.1186 118.219 96.5646 119.211 95.7112 119.949C95.2726 120.383 94.7796 120.765 94.2429 121.087C93.8008 121.349 93.3263 121.559 92.8298 121.713C92.4945 121.817 92.1513 121.896 91.8031 121.951C91.6751 121.97 91.5447 121.97 91.4167 121.951C91.4167 121.92 91.9687 121.852 92.7801 121.568C93.2583 121.4 93.7155 121.183 94.1436 120.922C94.6615 120.601 95.1376 120.224 95.5622 119.799C96.3892 119.088 96.9438 118.141 97.1409 117.105C97.1788 116.684 97.1358 116.26 97.014 115.854Z" fill="#263238"/>
<path d="M125.95 121.708C125.718 121.474 125.471 121.255 125.21 121.051C124.483 120.504 123.615 120.147 122.693 120.017C122.054 119.932 121.405 119.949 120.772 120.068C120.036 120.225 119.28 120.288 118.525 120.255C117.694 120.123 116.918 119.778 116.284 119.256C115.614 118.734 114.855 118.321 114.038 118.036C112.416 117.542 110.673 117.519 109.036 117.969C107.709 118.332 106.459 118.91 105.344 119.675C104.587 120.184 103.869 120.742 103.196 121.346L102.644 121.837C102.586 121.9 102.519 121.956 102.446 122.002C102.446 122.002 102.501 121.935 102.617 121.811L103.136 121.294C103.795 120.671 104.503 120.095 105.255 119.572C106.377 118.782 107.638 118.183 108.981 117.803C110.654 117.338 112.439 117.36 114.098 117.865C114.935 118.156 115.714 118.577 116.4 119.112C117.003 119.618 117.745 119.956 118.542 120.089C119.283 120.126 120.026 120.069 120.75 119.918C121.401 119.807 122.067 119.798 122.721 119.893C123.661 120.04 124.542 120.422 125.271 120.999C125.535 121.201 125.764 121.44 125.95 121.708Z" fill="#263238"/>
<path d="M151.8 115.652C151.75 115.732 151.691 115.806 151.623 115.874C151.453 116.084 151.269 116.282 151.071 116.469C150.363 117.183 149.575 117.823 148.72 118.377C147.456 119.221 146.086 119.916 144.641 120.446C143.786 120.766 142.906 121.022 142.008 121.211C141.042 121.423 140.056 121.539 139.065 121.558C137.15 121.551 135.254 121.2 133.479 120.523C132.037 119.983 130.672 119.276 129.416 118.419C128.571 117.853 127.789 117.208 127.081 116.495C126.822 116.252 126.656 116.035 126.529 115.9C126.462 115.832 126.403 115.758 126.353 115.678C126.425 115.74 126.493 115.805 126.557 115.874C126.695 116.004 126.872 116.211 127.137 116.448C127.863 117.136 128.653 117.761 129.499 118.315C130.755 119.154 132.113 119.848 133.545 120.384C135.299 121.053 137.172 121.404 139.065 121.418C140.043 121.401 141.017 121.287 141.969 121.077C142.859 120.894 143.732 120.645 144.58 120.332C146.016 119.812 147.381 119.135 148.648 118.315C149.502 117.773 150.297 117.152 151.022 116.464C151.292 116.231 151.463 116.019 151.601 115.89C151.662 115.807 151.728 115.727 151.8 115.652Z" fill="#263238"/>
<path d="M148.096 115.59C148.096 115.59 148.057 115.631 147.964 115.693C147.87 115.755 147.732 115.849 147.544 115.952C147.023 116.256 146.485 116.534 145.932 116.785C145.111 117.164 144.258 117.48 143.382 117.731C142.311 118.056 141.195 118.23 140.07 118.248C138.009 118.209 135.983 117.745 134.136 116.888C133.582 116.639 133.049 116.352 132.541 116.03C132.353 115.921 132.226 115.823 132.132 115.761C132.038 115.699 131.994 115.657 132 115.652C132.005 115.647 132.209 115.766 132.579 115.973C133.103 116.269 133.645 116.537 134.202 116.774C136.033 117.591 138.026 118.039 140.053 118.088C141.165 118.062 142.267 117.888 143.327 117.571C144.195 117.325 145.043 117.022 145.866 116.666C146.573 116.361 147.125 116.086 147.522 115.885C147.708 115.778 147.9 115.679 148.096 115.59Z" fill="#263238"/>
<path d="M164.496 116.252H164.308L163.756 116.221L163.381 116.195H162.923C162.597 116.195 162.227 116.195 161.819 116.195L161.178 116.226L160.488 116.299C160.008 116.335 159.506 116.438 158.97 116.521C157.826 116.749 156.7 117.055 155.603 117.436C154.516 117.837 153.461 118.311 152.446 118.853C151.993 119.122 151.546 119.37 151.165 119.624L150.613 119.996L150.116 120.363C149.791 120.596 149.52 120.829 149.283 121.025L148.946 121.304L148.681 121.553L148.306 121.899C148.217 121.971 148.173 122.013 148.168 122.008C148.162 122.002 148.201 121.956 148.278 121.873L148.62 121.506L148.88 121.242L149.206 120.953C149.437 120.746 149.702 120.503 150.023 120.265L150.519 119.887L151.071 119.505C151.458 119.231 151.899 118.988 152.357 118.714C153.375 118.154 154.438 117.672 155.537 117.271C156.645 116.883 157.784 116.577 158.943 116.355C159.495 116.278 159.986 116.18 160.472 116.149L161.173 116.086H161.819C162.187 116.068 162.555 116.068 162.923 116.086H163.381L163.762 116.133L164.286 116.195C164.359 116.202 164.43 116.222 164.496 116.252Z" fill="#263238"/>
<path d="M128.848 121.558C128.583 121.213 128.286 120.891 127.959 120.596C127.025 119.82 125.915 119.253 124.713 118.936C123.883 118.708 123.036 118.535 122.18 118.419C121.258 118.284 120.259 118.181 119.215 118.015C118.126 117.836 117.051 117.589 115.997 117.276C114.877 116.935 113.729 116.683 112.564 116.521C110.296 116.31 108.007 116.599 105.879 117.364C104.949 117.685 104.04 118.058 103.158 118.481C102.324 118.869 101.562 119.251 100.867 119.613C99.4814 120.327 98.3774 120.937 97.6156 121.361L96.738 121.853L96.5116 121.977L96.4288 122.013L96.5006 121.961L96.7159 121.821C96.9091 121.697 97.2016 121.522 97.5715 121.304C98.3222 120.865 99.4152 120.239 100.795 119.505C101.491 119.138 102.252 118.75 103.08 118.352C103.965 117.919 104.877 117.539 105.813 117.214C107.974 116.43 110.302 116.134 112.608 116.35C113.782 116.516 114.94 116.772 116.069 117.116C117.116 117.428 118.184 117.676 119.265 117.86C120.297 118.026 121.296 118.139 122.224 118.279C123.086 118.393 123.938 118.566 124.774 118.796C125.988 119.127 127.104 119.718 128.031 120.523C128.364 120.822 128.641 121.172 128.848 121.558Z" fill="#263238"/>
<path d="M92.5483 115.688C92.5713 115.824 92.5713 115.962 92.5483 116.097C92.4897 116.469 92.3841 116.834 92.2337 117.183C91.7392 118.361 90.875 119.37 89.7552 120.079C88.6013 120.73 87.3691 121.251 86.0844 121.63C85.5931 121.78 85.1957 121.884 84.9141 121.951C84.7709 121.994 84.6227 122.022 84.4725 122.034C84.6072 121.972 84.7476 121.921 84.8921 121.884L86.0402 121.506C87.2974 121.107 88.5071 120.587 89.6503 119.955C90.7346 119.264 91.585 118.297 92.1012 117.167C92.2998 116.689 92.4495 116.193 92.5483 115.688Z" fill="#263238"/>
<path d="M55.1392 122.023C55.2578 121.898 55.389 121.783 55.5311 121.682C55.7906 121.465 56.1825 121.165 56.6793 120.823C57.9834 119.925 59.3561 119.118 60.7862 118.408C62.4422 117.565 64.0264 116.893 65.1635 116.417C65.7155 116.18 66.1958 115.993 66.5159 115.869C66.6785 115.793 66.8486 115.733 67.0238 115.688C66.8736 115.782 66.7147 115.864 66.5491 115.931L65.2243 116.531C64.1203 117.048 62.5526 117.726 60.8855 118.564C59.4617 119.273 58.0847 120.062 56.7621 120.927C56.2598 121.258 55.8568 121.537 55.5808 121.734C55.4448 121.844 55.2968 121.941 55.1392 122.023Z" fill="#263238"/>
<path d="M62.7292 115.952C62.3835 115.935 62.0372 115.935 61.6915 115.952C60.7531 116.042 59.8411 116.296 59.0032 116.702C57.776 117.32 56.6071 118.034 55.5091 118.838C54.8403 119.299 54.1375 119.716 53.406 120.084C52.6071 120.467 51.7646 120.763 50.8944 120.968C49.2041 121.328 47.4775 121.517 45.7442 121.532C44.1489 121.573 42.7192 121.532 41.5214 121.589C40.5744 121.615 39.6303 121.7 38.6951 121.842C38.3639 121.899 38.11 121.94 37.9389 121.982L37.674 122.023C37.7557 121.99 37.8408 121.964 37.9279 121.946C38.099 121.894 38.3529 121.837 38.6786 121.77C39.6152 121.603 40.5634 121.499 41.5159 121.459C42.7192 121.397 44.1544 121.413 45.7387 121.361C47.4573 121.341 49.1688 121.15 50.8447 120.792C51.7003 120.588 52.5296 120.297 53.3176 119.924C54.0415 119.561 54.7386 119.153 55.4042 118.703C56.5139 117.899 57.6981 117.19 58.9425 116.583C59.8044 116.182 60.7424 115.945 61.7025 115.885C61.9615 115.864 62.2219 115.864 62.4808 115.885C62.5655 115.901 62.6486 115.923 62.7292 115.952Z" fill="#263238"/>
<path d="M163.237 115.569C163.237 115.616 156.503 115.657 148.195 115.657C139.888 115.657 133.153 115.616 133.153 115.569C133.153 115.523 139.888 115.476 148.195 115.476C156.503 115.476 163.237 115.502 163.237 115.569Z" fill="#263238"/>
<path d="M28.0029 199.474H25.7177L24.4094 121.527H29.3112L28.0029 199.474Z" fill="#455A64"/>
<path d="M175.646 199.582H173.356L174.504 121.749H179.4L175.646 199.582Z" fill="#455A64"/>
<path d="M183.104 115.59H162.669V122.023H183.104V115.59Z" fill="#455A64"/>
<path d="M42.2114 79.7011C42.1601 79.3809 41.9752 79.0928 41.6973 78.9003C41.4193 78.7078 41.0711 78.6266 40.7293 78.6746C40.3874 78.7226 40.0799 78.8959 39.8744 79.1563C39.669 79.4167 39.5823 79.7429 39.6335 80.0631L45.3467 112.71H47.9522L42.2114 79.7011Z" fill="#263238"/>
<path d="M40.1745 80.1045L63.7118 55.8821L63.8829 56.1458L65.0256 57.9144L42.1065 81.7438C41.9916 81.8626 41.8529 81.9591 41.6982 82.0277C41.5435 82.0963 41.3759 82.1357 41.2049 82.1436C41.034 82.1516 40.8631 82.1279 40.7019 82.0739C40.5407 82.0199 40.3925 81.9368 40.2656 81.8291C40.1388 81.7215 40.0358 81.5915 39.9625 81.4466C39.8893 81.3016 39.8473 81.1446 39.8388 80.9845C39.8304 80.8243 39.8556 80.6642 39.9133 80.5132C39.9709 80.3622 40.0596 80.2233 40.1745 80.1045Z" fill="#263238"/>
<path d="M41.9023 80.7302C41.9023 80.7302 41.9465 80.6785 41.9354 80.5803C41.9177 80.4333 41.8407 80.2982 41.7201 80.2028C41.627 80.1288 41.5148 80.0789 41.3948 80.0581C41.2747 80.0372 41.1509 80.0461 41.0357 80.0838C40.8921 80.131 40.7678 80.2188 40.6798 80.3351C40.5918 80.4513 40.5446 80.5903 40.5446 80.7328C40.5446 80.8753 40.5918 81.0143 40.6798 81.1306C40.7678 81.2468 40.8921 81.3346 41.0357 81.3818C41.1516 81.4173 41.2753 81.4246 41.3951 81.4029C41.5148 81.3812 41.6267 81.3312 41.7201 81.2577C41.8399 81.1638 41.9169 81.0307 41.9354 80.8854C41.9354 80.7819 41.9354 80.7302 41.9023 80.7302C41.8692 80.7302 41.8637 80.9578 41.6042 81.1181C41.5325 81.1602 41.4514 81.1863 41.3671 81.1944C41.2829 81.2025 41.1978 81.1923 41.1185 81.1646C41.0263 81.1291 40.9474 81.069 40.8914 80.9918C40.8355 80.9145 40.805 80.8236 40.8038 80.7302C40.8057 80.6371 40.8364 80.5464 40.8923 80.4693C40.9482 80.3922 41.0267 80.3319 41.1185 80.2959C41.1978 80.2682 41.2829 80.258 41.3671 80.2661C41.4514 80.2741 41.5325 80.3003 41.6042 80.3424C41.8637 80.5027 41.8637 80.7406 41.9023 80.7302Z" fill="#455A64"/>
<path d="M41.5435 78.6927C41.2843 78.8669 41.0504 79.072 40.848 79.303C40.5972 79.5327 40.3613 79.7761 40.1414 80.0321C39.9937 80.1978 39.8845 80.3905 39.8208 80.598C39.7571 80.8055 39.7403 81.0231 39.7716 81.237C39.832 81.4503 39.9525 81.6444 40.1205 81.7991C40.2885 81.9538 40.4978 82.0633 40.7265 82.1162C40.9109 82.1654 41.1041 82.1784 41.2941 82.1544C41.4841 82.1304 41.6667 82.0698 41.8305 81.9765C42.3825 81.6663 42.5481 81.3508 42.526 81.3353C42.504 81.3198 42.25 81.5783 41.7477 81.8214C41.4607 81.9579 41.1286 81.9856 40.8204 81.899C40.6379 81.8516 40.4715 81.7611 40.3371 81.6362C40.2027 81.5112 40.1049 81.3559 40.0531 81.1853C40.0253 81.0023 40.0384 80.8158 40.0917 80.6378C40.1449 80.4597 40.237 80.294 40.3622 80.1511C40.5775 79.8666 40.8259 79.6339 41.008 79.4064C41.2201 79.1922 41.4002 78.9522 41.5435 78.6927Z" fill="#455A64"/>
<path d="M58.2856 115.59H36.857C36.857 115.59 39.617 112.399 46.7268 112.399C53.3673 112.399 57.3307 114.23 58.2856 115.59Z" fill="#263238"/>
<path d="M63.5793 52.0398L62.4863 50.5091L63.8332 49.5421L64.9869 51.0831L63.5793 52.0398Z" fill="#263238"/>
<path d="M61.7301 52.9655L66.4221 49.7748L70.9264 54.853C78.7372 56.0321 81.8836 60.6345 81.8836 60.6345L67.8959 70.6617C63.1101 65.7076 65.3788 58.6281 65.3788 58.6281L61.7301 52.9655Z" fill="#DF437E"/>
<path d="M65.3843 58.6177C66.3825 58.0923 67.3349 57.4941 68.2327 56.8284C69.1831 56.2315 70.0836 55.5676 70.9264 54.8427C69.9283 55.368 68.9759 55.9663 68.0781 56.6319C67.1262 57.2269 66.2255 57.8909 65.3843 58.6177Z" fill="#263238"/>
<path d="M142.118 88.2338L129.83 113.697C129.5 114.251 129.026 114.717 128.451 115.054C127.877 115.39 127.222 115.585 126.546 115.621L69.85 115.549C69.919 115.01 70.1931 114.512 70.622 114.148C71.0509 113.783 71.6059 113.575 72.185 113.563L93.713 113.123L104.725 88.3631C104.897 87.9762 105.186 87.6453 105.557 87.4117C105.928 87.1781 106.365 87.0521 106.812 87.0496L141.146 86.8065C141.323 86.8139 141.496 86.8611 141.649 86.9442C141.803 87.0272 141.933 87.1437 142.028 87.2837C142.123 87.4236 142.181 87.5831 142.197 87.7484C142.212 87.9138 142.185 88.0803 142.118 88.2338Z" fill="#263238"/>
<path d="M94.7507 115.838C94.8193 115.755 94.875 115.662 94.9163 115.564C95.0267 115.342 95.1592 115.047 95.3248 114.742L96.7655 111.691C97.9634 109.105 99.5918 105.527 101.342 101.555C103.091 97.5835 104.654 93.974 105.708 91.3418C106.26 90.0231 106.668 88.9578 106.944 88.239C107.066 87.8925 107.171 87.6132 107.254 87.3805C107.296 87.2807 107.326 87.1766 107.342 87.0703C107.277 87.1581 107.225 87.2538 107.187 87.3547C107.088 87.5822 106.961 87.8718 106.812 88.1924C106.481 88.9681 106.028 90.0127 105.476 91.2952L101.016 101.431C99.2771 105.382 97.7039 108.955 96.5337 111.598C95.9817 112.87 95.5346 113.915 95.1979 114.701L94.8501 115.549C94.8024 115.64 94.7689 115.738 94.7507 115.838Z" fill="#455A64"/>
<path d="M116.98 100.578C116.979 100.904 117.081 101.224 117.274 101.496C117.467 101.768 117.741 101.98 118.063 102.105C118.385 102.231 118.739 102.265 119.081 102.201C119.423 102.138 119.737 101.982 119.984 101.751C120.231 101.521 120.399 101.227 120.467 100.907C120.536 100.586 120.501 100.255 120.368 99.9528C120.235 99.6511 120.009 99.3931 119.72 99.2116C119.43 99.0301 119.089 98.9332 118.741 98.9332C118.51 98.9326 118.281 98.9746 118.067 99.0569C117.854 99.1393 117.659 99.2603 117.496 99.4131C117.332 99.5658 117.203 99.7473 117.114 99.9472C117.025 100.147 116.98 100.361 116.98 100.578Z" fill="white"/>
<path d="M166.87 23.6751C167.515 22.2995 166.776 20.5723 165.589 19.538C164.981 19.042 164.237 18.7151 163.441 18.5945C162.645 18.4739 161.829 18.5643 161.085 18.8554C160.435 19.0914 159.89 19.5272 159.539 20.0914C159.308 20.5736 159.23 21.1079 159.314 21.6305C159.399 22.1531 159.641 22.642 160.014 23.039C160.778 23.8193 161.78 24.3609 162.884 24.5904C163.652 24.8142 164.468 24.8569 165.258 24.7145C165.651 24.6403 166.019 24.4772 166.33 24.2392C166.641 24.0013 166.885 23.6958 167.041 23.3493" fill="#263238"/>
<path d="M197.285 42.178C196.181 42.5193 194.994 41.6144 194.735 40.5697C194.475 39.5251 194.884 38.4392 195.369 37.467C195.855 36.4948 196.424 35.5174 196.506 34.4469C196.65 32.6214 195.364 30.9977 194.806 29.2446C193.647 25.6247 195.607 21.3273 193.564 18.028C192.631 16.4389 191.147 15.195 189.358 14.5012C188.379 14.1199 187.324 13.9397 186.264 13.9727C185.204 14.0057 184.164 14.2511 183.214 14.6925C181.918 13.9287 180.47 13.4201 178.957 13.1979C177.444 12.9756 175.899 13.0443 174.415 13.3997C172.94 13.7692 171.562 14.4189 170.367 15.3086C169.171 16.1982 168.184 17.3087 167.466 18.571C166.522 20.262 166.091 22.1909 164.971 23.7785C164.11 24.9938 162.829 26.0849 162.702 27.5329C162.536 29.3687 164.314 30.9097 164.496 32.7456C164.706 34.9123 162.663 37.0688 163.513 39.0959C164.099 40.4973 165.937 41.3351 166.124 42.8296C166.098 43.2547 166.164 43.6804 166.318 44.0811C166.601 44.4334 166.97 44.7168 167.395 44.9076C167.82 45.0984 168.287 45.1909 168.757 45.1774C178.522 44.6189 186.802 45.9841 195.524 43.8897C195.991 43.8066 196.433 43.6302 196.821 43.3726C197.015 43.2379 197.162 43.0529 197.244 42.8406C197.327 42.6282 197.341 42.3978 197.285 42.178Z" fill="#263238"/>
<path d="M170.474 21.5497L170.369 19.6311L182.613 17.0765C186.399 16.5904 190.628 20.0345 190.987 23.5975C191.384 27.5587 191.704 32.3887 191.301 35.3829C190.484 41.3661 185.643 42.2659 185.643 42.2659L185.809 49.542L171.777 49.0714L170.474 21.5497Z" fill="#FFBE9D"/>
<path d="M189.297 28.019C189.305 28.2177 189.23 28.4115 189.088 28.5592C188.945 28.7068 188.747 28.7969 188.536 28.8102C188.432 28.8216 188.328 28.8134 188.228 28.786C188.128 28.7587 188.035 28.7127 187.955 28.6509C187.874 28.5891 187.808 28.5127 187.76 28.4263C187.712 28.34 187.683 28.2454 187.674 28.1483C187.665 27.9495 187.739 27.7551 187.88 27.6065C188.021 27.4578 188.219 27.3665 188.431 27.3519C188.535 27.3412 188.64 27.35 188.74 27.378C188.84 27.4059 188.933 27.4523 189.014 27.5144C189.095 27.5766 189.161 27.6532 189.21 27.7399C189.259 27.8265 189.288 27.9214 189.297 28.019Z" fill="#263238"/>
<path d="M189.722 26.1676C189.629 26.2711 188.994 25.8625 188.116 25.8884C187.238 25.9142 186.615 26.3435 186.515 26.2452C186.416 26.147 186.565 26.0228 186.835 25.8212C187.206 25.5628 187.654 25.4199 188.116 25.4126C188.573 25.3961 189.024 25.5175 189.402 25.7591C189.678 25.9453 189.772 26.1211 189.722 26.1676Z" fill="#263238"/>
<path d="M181.128 28.3706C181.137 28.5694 181.063 28.7638 180.922 28.9124C180.781 29.0611 180.583 29.1524 180.372 29.167C180.268 29.1777 180.163 29.1689 180.062 29.1409C179.962 29.113 179.869 29.0666 179.788 29.0045C179.707 28.9423 179.641 28.8657 179.592 28.779C179.543 28.6924 179.514 28.5975 179.505 28.4999C179.497 28.3012 179.572 28.1074 179.715 27.9597C179.857 27.8121 180.055 27.722 180.267 27.7087C180.37 27.6973 180.475 27.7055 180.574 27.7329C180.674 27.7602 180.767 27.8062 180.848 27.868C180.928 27.9298 180.994 28.0062 181.042 28.0926C181.091 28.1789 181.12 28.2735 181.128 28.3706Z" fill="#263238"/>
<path d="M181.111 26.5555C181.012 26.6589 180.383 26.2504 179.505 26.2762C178.627 26.3021 177.998 26.7313 177.899 26.6331C177.799 26.5348 177.948 26.4107 178.224 26.209C178.595 25.9507 179.043 25.8078 179.505 25.8005C179.96 25.7836 180.41 25.9051 180.786 26.147C181.056 26.3486 181.155 26.5245 181.111 26.5555Z" fill="#263238"/>
<path d="M184.495 32.5697C184.952 32.4214 185.426 32.3276 185.908 32.2905C186.134 32.2594 186.344 32.2129 186.377 32.0681C186.391 31.8512 186.331 31.6359 186.206 31.4527L185.472 29.8755C184.473 27.626 183.75 25.7746 183.816 25.7384C183.882 25.7022 184.799 27.4915 185.792 29.741C186.035 30.2944 186.261 30.8218 186.482 31.3286C186.632 31.5781 186.683 31.8695 186.626 32.1509C186.596 32.2258 186.548 32.2934 186.486 32.3481C186.424 32.4028 186.349 32.4433 186.267 32.4663C186.143 32.5019 186.015 32.5228 185.886 32.5284C185.426 32.5971 184.959 32.611 184.495 32.5697Z" fill="#263238"/>
<path d="M185.638 42.2815C182.578 42.4155 179.537 41.7627 176.844 40.3939C176.844 40.3939 179.124 44.4999 185.676 43.7656L185.638 42.2815Z" fill="#EB996E"/>
<path d="M184.191 34.5607C184.018 34.3678 183.796 34.2192 183.545 34.1288C183.294 34.0383 183.023 34.009 182.756 34.0436C182.564 34.0635 182.377 34.1195 182.209 34.2084C182.04 34.2972 181.892 34.4171 181.774 34.5607C181.662 34.7016 181.599 34.871 181.592 35.0464C181.585 35.2217 181.635 35.395 181.735 35.5432C181.881 35.6867 182.069 35.786 182.276 35.8284C182.482 35.8708 182.698 35.8543 182.894 35.7811C183.304 35.6315 183.679 35.4085 183.998 35.1244C184.093 35.0527 184.175 34.9671 184.241 34.871C184.273 34.8258 184.291 34.7727 184.291 34.7184C184.291 34.6641 184.273 34.611 184.241 34.5659" fill="#EB996E"/>
<path d="M181.934 33.2162C182.077 33.2162 182.105 34.0953 182.944 34.7055C183.783 35.3157 184.788 35.1864 184.799 35.3105C184.81 35.4346 184.578 35.4915 184.153 35.5122C183.595 35.5358 183.046 35.3747 182.602 35.0571C182.177 34.7511 181.896 34.3023 181.818 33.8057C181.768 33.4333 181.867 33.211 181.934 33.2162Z" fill="#263238"/>
<path d="M181.227 24.2439C181.15 24.4714 180.272 24.3887 179.245 24.5387C178.219 24.6886 177.396 24.9679 177.253 24.7766C177.192 24.6783 177.33 24.4663 177.656 24.2594C178.095 23.9819 178.598 23.8047 179.124 23.7423C179.648 23.6675 180.183 23.7101 180.686 23.8664C181.056 23.9698 181.266 24.1405 181.227 24.2439Z" fill="#263238"/>
<path d="M189.606 23.3493C189.457 23.5406 188.845 23.3493 188.122 23.3803C187.398 23.4114 186.78 23.5406 186.637 23.3493C186.57 23.2562 186.637 23.07 186.924 22.8839C187.276 22.657 187.694 22.5378 188.122 22.5426C188.547 22.5361 188.965 22.6555 189.314 22.8839C189.579 23.07 189.673 23.2562 189.606 23.3493Z" fill="#263238"/>
<path d="M181.244 16.368C177.744 16.9282 174.289 17.7056 170.899 18.6951C170.361 18.7964 169.874 19.0619 169.514 19.4501C169.253 19.9134 169.16 20.4432 169.249 20.9601C169.419 24.0892 169.277 27.2263 168.824 30.3306C168.626 31.7512 168.695 33.1933 169.028 34.5917C169.63 37.2446 169.199 45.1826 171.451 45.0636C179.875 43.3829 174.062 37.5549 173.196 34.8244C173.069 34.3559 173.068 33.8654 173.192 33.3963C173.316 32.9272 173.562 32.4941 173.908 32.1353C174.415 31.6182 175.133 31.2614 175.668 30.7443C176.227 30.1938 176.558 29.4745 176.6 28.7159C176.643 27.9573 176.395 27.2094 175.9 26.6072C175.48 26.1781 175.217 25.6346 175.15 25.0558C175.045 23.551 176.634 23.3027 177.843 22.9408C180.388 22.1806 183.86 18.4262 183.132 16.0681L181.244 16.368Z" fill="#263238"/>
<path d="M165.738 22.6356C166.656 22.8981 167.605 23.051 168.564 23.0907C170.886 23.0862 173.173 22.5538 175.227 21.5393C177.278 20.5186 179.169 19.2378 180.846 17.7332C181.503 17.1644 182.005 16.699 182.364 16.3473C182.531 16.1599 182.716 15.9868 182.916 15.8302C182.773 16.0334 182.612 16.2254 182.436 16.4042C182.105 16.761 181.619 17.2678 180.979 17.8574C179.321 19.4188 177.421 20.7368 175.343 21.7669C173.253 22.8062 170.913 23.3261 168.548 23.2769C167.833 23.2452 167.126 23.1252 166.445 22.9201C166.207 22.8425 166.025 22.7753 165.893 22.7236C165.76 22.6718 165.732 22.646 165.738 22.6356Z" fill="#455A64"/>
<path d="M182.116 14.7546C182.004 14.9514 181.871 15.1368 181.718 15.3079C181.324 15.7874 180.898 16.2433 180.443 16.6731C177.388 19.5445 173.266 21.1974 168.94 21.2859C168.293 21.3004 167.646 21.2762 167.002 21.2135C166.766 21.2004 166.533 21.1622 166.307 21.0998C166.307 21.0481 167.311 21.1722 168.934 21.0998C173.185 20.9058 177.22 19.285 180.3 16.5335C181.476 15.4889 182.072 14.7235 182.116 14.7546Z" fill="#455A64"/>
<path d="M194.304 19.7346C194.152 19.7544 193.998 19.7544 193.846 19.7346C193.428 19.7267 193.012 19.6938 192.598 19.6363C191.229 19.4542 189.897 19.0811 188.646 18.5296C187.404 17.9637 186.24 17.2587 185.179 16.4301C184.776 16.1146 184.456 15.8509 184.247 15.6544C184.037 15.4579 183.926 15.3441 183.943 15.3338C184.417 15.6239 184.872 15.9399 185.306 16.2801C186.387 17.0556 187.548 17.7261 188.773 18.2814C190.003 18.8231 191.301 19.2158 192.637 19.4501C193.631 19.6415 194.304 19.688 194.304 19.7346Z" fill="#455A64"/>
<path d="M164.121 34.9537C164.147 34.7456 164.192 34.5399 164.253 34.3383C164.395 33.7957 164.442 33.235 164.391 32.6783C164.343 32.2996 164.223 31.932 164.038 31.5924C163.845 31.22 163.569 30.858 163.298 30.4392C162.694 29.5317 162.426 28.4629 162.536 27.3984C162.616 26.8457 162.844 26.3209 163.199 25.8729C163.53 25.4437 163.894 25.0765 164.181 24.6938C164.703 24.015 165.161 23.2952 165.55 22.5426C165.893 21.9013 166.147 21.3687 166.329 20.9912C166.408 20.7943 166.512 20.6068 166.638 20.4327C166.594 20.6391 166.525 20.8403 166.434 21.0326C166.279 21.4101 166.053 21.953 165.733 22.6098C165.364 23.3858 164.916 24.127 164.397 24.8231C163.812 25.6143 162.934 26.3383 162.818 27.4088C162.72 28.4155 162.97 29.4251 163.53 30.2892C163.778 30.6926 164.082 31.0752 164.253 31.4683C164.441 31.8332 164.556 32.2277 164.59 32.6318C164.628 33.2089 164.551 33.7876 164.364 34.3383C164.313 34.5529 164.231 34.7599 164.121 34.9537Z" fill="#455A64"/>
<path d="M202.402 74.416L194.541 79.1891L193.824 86.6358C193.824 86.6358 196.137 87.6442 199.531 84.7534C202.926 81.8627 207.348 76.0036 207.348 76.0036L202.402 74.416Z" fill="#FFBE9D"/>
<path d="M202.054 77.4722L199.476 65.2317L192.604 67.7812L194.359 83.9002L202.054 77.4722Z" fill="#FFBE9D"/>
<path d="M220.684 61.9738C220.635 61.8437 220.55 61.7277 220.439 61.6371C220.328 61.5465 220.194 61.4843 220.049 61.4567L215.109 60.562C214.894 60.5256 214.672 60.5326 214.46 60.5825C214.248 60.6324 214.049 60.7242 213.878 60.8516L198.974 71.8458L199.581 72.4819L204.858 73.9868L220.783 62.1807L220.684 61.9738Z" fill="#263238"/>
<path d="M216.677 62.7547C216.732 62.8062 216.803 62.8392 216.88 62.8486C216.958 62.8581 217.036 62.8434 217.103 62.8068C217.171 62.7703 217.223 62.7139 217.253 62.6465C217.282 62.5791 217.288 62.5044 217.267 62.434C217.212 62.3825 217.14 62.3495 217.063 62.3401C216.986 62.3306 216.908 62.3453 216.84 62.3819C216.773 62.4184 216.721 62.4748 216.691 62.5422C216.661 62.6096 216.656 62.6843 216.677 62.7547Z" fill="white"/>
<path d="M220.767 62.1962C220.44 62.1771 220.116 62.1356 219.795 62.0721L217.162 61.6428L215.346 61.3274C215.196 61.2926 215.039 61.2898 214.887 61.3194C214.735 61.3489 214.592 61.41 214.469 61.4981L213.624 62.1341L209.81 64.9525C207.099 66.9434 204.632 68.7379 202.838 70.0255L200.702 71.5459C200.448 71.7403 200.176 71.9133 199.89 72.063C200.124 71.8461 200.371 71.6423 200.63 71.4528L202.7 69.8704C204.461 68.5465 206.906 66.7314 209.616 64.7353L213.447 61.9324L214.308 61.3067C214.461 61.2017 214.637 61.1293 214.823 61.0945C215.009 61.0596 215.201 61.0632 215.385 61.105L217.195 61.4515L219.817 61.9686C220.14 62.0202 220.458 62.0963 220.767 62.1962Z" fill="#455A64"/>
<path d="M213.701 65.573C213.701 65.573 213.309 65.3714 212.686 66.3746C212.062 67.3778 210.202 70.2376 210.202 70.2376L208.397 68.4431L205.515 67.9001C205.515 67.9001 204.726 68.2311 205.062 68.6551C205.666 69.1502 206.329 69.5771 207.039 69.9273L207.696 72.063L204.61 69.224C204.61 69.224 203.269 69.1361 203.379 69.9531C203.489 70.7702 205.173 73.7644 205.173 73.7644L203.368 73.0456L201.624 71.096C201.624 71.096 200.939 70.9098 201 71.5304C201.061 72.151 202.656 74.8193 202.656 74.8193L204.974 76.9603C204.974 76.9603 206.525 77.3326 206.823 76.9603C207.041 76.6612 207.226 76.3424 207.375 76.0087C207.375 76.0087 208.253 76.0605 208.535 75.745C208.734 75.4653 208.869 75.1502 208.932 74.8193C208.932 74.8193 210.113 75.4244 210.511 74.8193C210.921 74.0338 211.187 73.1896 211.3 72.3216C211.361 71.7786 213.729 67.2796 213.729 67.1193C213.729 66.959 214.607 65.5162 213.701 65.573Z" fill="#FFBE9D"/>
<path d="M206.895 76.9913C206.633 77.0552 206.357 77.0552 206.095 76.9913C205.456 76.8803 204.846 76.6574 204.295 76.3345C203.744 76.011 203.264 75.5914 202.882 75.0986C202.595 74.7211 202.485 74.4522 202.518 74.4366C203.089 75.0619 203.74 75.6193 204.455 76.0966C205.227 76.4853 206.047 76.7857 206.895 76.9913Z" fill="#EB996E"/>
<path d="M206.575 75.8536C206.509 75.895 206.106 75.502 205.73 74.9279C205.355 74.3539 205.145 73.8471 205.223 73.8109C205.3 73.7747 205.615 74.2246 205.984 74.7831C206.354 75.3416 206.641 75.8019 206.575 75.8536Z" fill="#EB996E"/>
<path d="M208.844 74.0747C208.783 74.1212 208.38 73.7282 208.043 73.149C207.796 72.8142 207.66 72.4184 207.651 72.0113C207.729 71.9855 207.983 72.4509 208.308 73.0145C208.634 73.5782 208.915 74.0281 208.844 74.0747Z" fill="#EB996E"/>
<path d="M211.035 72.756C210.848 72.356 210.702 71.9405 210.599 71.5149C210.403 71.1193 210.248 70.7072 210.135 70.2841C210.47 70.6087 210.725 70.9985 210.88 71.4258C211.036 71.8531 211.089 72.3073 211.035 72.756Z" fill="#EB996E"/>
<path d="M189.728 48.0733C189.728 48.0733 194.392 50.0281 195.993 52.5C197.594 54.9719 201.938 69.1361 201.938 69.1361L195.833 70.2686L189.728 48.0733Z" fill="#DF437E"/>
<path d="M186.598 47.1942L171.639 46.1134L173.565 53.8342L186.962 58.0178L188.74 55.1994L186.598 47.1942Z" fill="#FFBE9D"/>
<path d="M196.098 63.8665C194.895 59.9829 189.728 48.0733 189.728 48.0733L185.748 46.9563C185.748 46.9563 185.748 50.84 184.28 51.0934C182.811 51.3468 175.746 51.383 172.274 47.1942L171.639 46.1134L161.764 52.0397C160.108 52.9861 157.695 55.1994 157.348 59.7295C157.027 63.8665 156.492 74.8142 156.492 74.8142L166.152 74.4935L166.941 78.5375L166.268 83.3055C166.268 83.3055 164.932 90.0282 165.716 91.0624C166.246 91.6873 167.013 92.0967 167.858 92.2053L193.802 90.3229L194.663 76.9344C194.663 76.9344 197.301 67.7553 196.098 63.8665Z" fill="#DF437E"/>
<path d="M158.363 74.8142C158.363 74.8142 157.441 83.1865 158.468 87.0288C159.534 91.0004 161.637 90.9435 163.409 91.0572C165.18 91.171 193.095 77.4722 193.095 77.4722L189.998 72.3009L168.978 78.2686L169.171 74.4263L158.363 74.8142Z" fill="#FFBE9D"/>
<path d="M189.822 72.4716L194.856 66.5608L199.404 65.573L204.924 66.147C204.984 66.3875 204.951 66.64 204.829 66.8591C204.708 67.0782 204.507 67.2493 204.262 67.3416L206.2 67.445C206.252 67.5775 206.275 67.7187 206.267 67.8598C206.259 68.0008 206.22 68.1389 206.153 68.2654C206.085 68.3918 205.991 68.504 205.876 68.5951C205.76 68.6862 205.626 68.7541 205.482 68.7948L206.868 69.0223C206.685 69.4007 206.374 69.7115 205.982 69.9053C205.59 70.0992 205.14 70.1651 204.704 70.0928C203.344 69.9195 201.974 69.8331 200.602 69.8342L197.886 71.2356L201.933 71.0805L204.869 71.5976C204.869 71.5976 205.261 72.3009 204.593 72.4664C203.925 72.6319 201.375 72.4664 201.375 72.4664L197.511 73.4127C197.511 73.4127 196.683 75.7502 196.181 76.2725C195.678 76.7948 192.907 77.467 192.907 77.467L189.822 72.4716Z" fill="#FFBE9D"/>
<path d="M206.227 67.4451C205.724 67.4733 205.22 67.456 204.72 67.3934C203.793 67.3261 202.512 67.2124 201.105 67.0676L199.752 66.9279H199.807C198.753 67.2072 197.842 67.4451 197.191 67.5899C196.849 67.6929 196.495 67.7589 196.137 67.7864C196.455 67.6288 196.792 67.5073 197.141 67.4244C197.776 67.2227 198.681 66.959 199.725 66.6694H199.752H199.78L201.138 66.7987C202.545 66.9435 203.82 67.0882 204.742 67.2072C205.244 67.2419 205.742 67.3215 206.227 67.4451Z" fill="#EB996E"/>
<path d="M206.564 68.9603C206.106 68.9754 205.647 68.946 205.195 68.8723C204.356 68.7844 203.202 68.6396 201.927 68.4638L200.663 68.288H200.735C199.699 68.7036 198.633 69.0493 197.544 69.3222C198.536 68.8142 199.567 68.3785 200.63 68.0191H200.663H200.702L201.971 68.1897C203.246 68.3604 204.395 68.5362 205.228 68.6758C205.683 68.7227 206.132 68.8182 206.564 68.9603Z" fill="#EB996E"/>
<path d="M192.918 77.4722C193.063 77.4147 193.213 77.368 193.366 77.3326C193.658 77.2447 194.089 77.1154 194.646 76.9292C194.922 76.831 195.226 76.7224 195.552 76.5828C195.717 76.5095 195.876 76.423 196.026 76.3242C196.171 76.2047 196.287 76.0586 196.368 75.895C196.787 75.0854 197.143 74.249 197.434 73.3921V73.3455H197.484L201.348 72.3837H201.386C202.049 72.4199 202.75 72.4509 203.473 72.4509C203.833 72.4582 204.194 72.434 204.549 72.3785C204.62 72.3702 204.686 72.3412 204.739 72.2958C204.791 72.2503 204.827 72.1907 204.842 72.1251C204.86 71.9719 204.83 71.817 204.753 71.6804L204.847 71.7424L201.905 71.2253H201.938L197.892 71.3908L197.268 71.4166L197.82 71.1322L200.536 69.7256H200.569H200.608C201.635 69.7256 202.717 69.767 203.815 69.8704C204.113 69.9014 204.417 69.9376 204.715 69.9842C204.986 70.0387 205.266 70.0387 205.537 69.9842C205.798 69.9127 206.04 69.79 206.247 69.6241C206.453 69.4583 206.62 69.2531 206.735 69.0223L206.845 69.2137L205.46 68.9861L204.952 68.8982L205.432 68.7172C205.687 68.6359 205.901 68.4704 206.034 68.2518C206.143 68.0307 206.157 67.7789 206.073 67.5485L206.2 67.6312L204.257 67.5278L203.705 67.4968L204.179 67.2744C204.39 67.181 204.565 67.0294 204.682 66.84C204.786 66.6525 204.819 66.4373 204.775 66.2298L204.897 66.3281L199.377 65.7437H199.421L194.867 66.7159L194.928 66.6797L191.196 70.9822L190.192 72.063L189.921 72.3578C189.859 72.4233 189.825 72.4543 189.822 72.4509C189.842 72.41 189.868 72.3717 189.899 72.3371L190.147 72.0268L191.124 70.8374L194.779 66.478V66.4522H194.856L199.399 65.4179H199.438L204.985 65.9764H205.085V66.0592C205.149 66.3302 205.11 66.6138 204.974 66.8607C204.829 67.0996 204.61 67.2909 204.345 67.4089L204.29 67.1555L206.233 67.2589H206.332L206.36 67.3365C206.417 67.4871 206.442 67.6468 206.434 67.8065C206.425 67.9663 206.383 68.1228 206.31 68.2673C206.146 68.5462 205.879 68.7595 205.559 68.8672L205.526 68.6034L206.917 68.831L207.11 68.862L207.028 69.0223C206.839 69.4383 206.502 69.7801 206.074 69.9894C205.646 70.1987 205.154 70.2627 204.682 70.1703C204.389 70.129 204.097 70.0928 203.798 70.0617C202.694 69.9583 201.64 69.9273 200.624 69.917H200.696L197.975 71.3184L197.898 71.0598L201.949 70.9098H201.982L204.919 71.427H204.985L205.013 71.4839C205.114 71.6704 205.153 71.8814 205.123 72.0889C205.097 72.1987 205.037 72.2989 204.951 72.377C204.864 72.4552 204.755 72.5078 204.637 72.5285C204.26 72.5874 203.877 72.6116 203.495 72.6009C202.761 72.6009 202.06 72.5647 201.392 72.5181H201.43L197.566 73.4438L197.633 73.3869C197.333 74.2497 196.964 75.0899 196.529 75.9002C196.433 76.0815 196.298 76.2419 196.131 76.3707C195.972 76.4737 195.802 76.5604 195.623 76.6293C195.322 76.7544 195.015 76.8648 194.701 76.9603C194.149 77.1309 193.702 77.2447 193.404 77.3171L193.062 77.3947C193.022 77.4315 192.973 77.4582 192.918 77.4722Z" fill="#EB996E"/>
<path d="M156.216 74.8142C156.304 74.7904 156.395 74.7782 156.486 74.778L157.276 74.7314L160.218 74.6021L170.286 74.2402L170.148 74.3746C170.187 73.0507 170.148 71.639 170.082 70.191C169.955 67.7915 169.729 65.5368 169.585 63.4373C169.508 62.403 169.481 61.405 169.392 60.4896C169.316 59.6402 169.176 58.7969 168.973 57.966C168.685 56.7593 168.151 55.6161 167.4 54.5995C166.848 53.891 166.445 53.5652 166.467 53.5652C166.575 53.6304 166.675 53.7067 166.765 53.7928C167.028 54.0243 167.272 54.275 167.493 54.5426C168.295 55.5526 168.868 56.7052 169.177 57.9298C169.4 58.7673 169.553 59.6196 169.635 60.4793C169.74 61.405 169.779 62.3927 169.861 63.4269C170.022 65.4955 170.253 67.7812 170.38 70.1858C170.463 71.639 170.48 73.0611 170.441 74.3901V74.5194H170.303L160.229 74.7831L157.281 74.8297H156.498C156.403 74.8315 156.309 74.8263 156.216 74.8142Z" fill="#263238"/>
<path d="M227.38 166.853L237.305 189.023L227.286 193.578L213.812 172.009L227.38 166.853Z" fill="#FFBE9D"/>
<path d="M236.079 186.065L236.416 186.685C236.416 186.685 249.896 185.651 251.083 187.6L228.721 197.943L225.359 190.833C229.444 190.719 233.005 189.276 236.079 186.065Z" fill="#455A64"/>
<g opacity="0.6">
<path d="M228.798 191.996C228.615 192.156 228.501 192.374 228.479 192.608C228.456 192.842 228.527 193.075 228.677 193.263C228.842 193.439 229.073 193.55 229.323 193.572C229.572 193.594 229.821 193.526 230.018 193.382C230.213 193.211 230.332 192.979 230.354 192.731C230.375 192.482 230.297 192.235 230.134 192.037C229.945 191.867 229.693 191.772 229.431 191.772C229.168 191.772 228.916 191.867 228.727 192.037" fill="white"/>
</g>
<g opacity="0.6">
<path d="M228.721 197.922L227.915 196.211L249.636 186.944C249.636 186.944 250.845 186.892 251.083 187.6L228.721 197.922Z" fill="white"/>
</g>
<path d="M236.521 186.706C236.576 186.809 236.052 187.109 235.687 187.688C235.323 188.268 235.262 188.826 235.135 188.831C235.008 188.836 234.865 188.169 235.323 187.482C235.781 186.794 236.499 186.602 236.521 186.706Z" fill="#263238"/>
<path d="M239.347 186.535C239.424 186.623 239.044 187.011 238.9 187.616C238.757 188.221 238.9 188.728 238.779 188.774C238.657 188.821 238.293 188.257 238.486 187.523C238.679 186.789 239.292 186.437 239.347 186.535Z" fill="#263238"/>
<path d="M242.063 188.547C241.975 188.614 241.555 188.174 241.539 187.487C241.522 186.799 241.92 186.339 242.008 186.401C242.096 186.463 241.942 186.918 241.964 187.476C241.986 188.035 242.162 188.49 242.063 188.547Z" fill="#263238"/>
<path d="M207.541 157.612L216.522 181.064L232.447 173.886L216.114 137.615L207.541 157.612Z" fill="#263238"/>
<path d="M211.918 161.754L197.793 192.332L187.222 189.059L197.715 155.435L211.918 161.754Z" fill="#FFBE9D"/>
<path d="M199.117 189.416L198.891 190.077C198.891 190.077 209.324 198.15 208.728 200.312L185.019 193.108L187.901 185.832C190.893 188.418 194.525 189.71 199.117 189.416Z" fill="#455A64"/>
<g opacity="0.6">
<path d="M189.48 188.935C189.229 188.929 188.986 189.01 188.796 189.163C188.607 189.316 188.484 189.529 188.453 189.762C188.437 189.997 188.519 190.228 188.682 190.408C188.845 190.587 189.075 190.7 189.325 190.724C189.594 190.733 189.857 190.648 190.061 190.484C190.266 190.32 190.397 190.09 190.429 189.84C190.429 189.374 189.877 188.852 189.408 188.935" fill="white"/>
</g>
<g opacity="0.6">
<path d="M185.014 193.108L185.709 191.355L208.181 198.9C208.181 198.9 209.087 199.65 208.733 200.312L185.014 193.108Z" fill="white"/>
</g>
<path d="M198.952 190.165C198.913 190.274 198.317 190.165 197.627 190.321C196.937 190.476 196.473 190.838 196.385 190.786C196.297 190.734 196.683 190.134 197.522 189.938C198.361 189.741 199.013 190.072 198.952 190.165Z" fill="#263238"/>
<path d="M201.11 191.882C201.11 191.996 200.531 192.027 199.979 192.368C199.427 192.71 199.145 193.16 199.035 193.118C198.924 193.077 199.035 192.441 199.752 192.032C200.47 191.624 201.143 191.779 201.11 191.882Z" fill="#263238"/>
<path d="M201.552 195.099C201.441 195.099 201.469 194.499 201.971 193.997C202.474 193.496 203.075 193.423 203.114 193.527C203.153 193.63 202.689 193.847 202.28 194.266C201.872 194.685 201.673 195.14 201.552 195.099Z" fill="#263238"/>
<path d="M191.356 102.331C190.726 101.301 189.758 100.489 188.596 100.014L188.442 90.7056L167.858 92.2311C167.858 92.2311 160.505 101.633 160.505 105.387C160.505 109.141 160.505 116.655 169.376 122.07L189.971 108.262C189.971 108.262 192.438 104.063 191.356 102.331Z" fill="#263238"/>
<path d="M207.541 126.315L189.728 109.353L183.661 91.0624L193.824 90.3229L195.066 100.231" fill="#263238"/>
<path d="M176.839 91.8329C176.925 92.0211 176.982 92.2195 177.01 92.4225C177.119 92.9675 177.191 93.5185 177.225 94.0721C177.271 94.897 177.206 95.724 177.032 96.5337C176.82 97.537 176.388 98.4881 175.762 99.3262C175.142 100.175 174.293 100.855 173.3 101.296C172.483 101.645 171.586 101.797 170.689 101.741C170.092 101.702 169.509 101.553 168.973 101.302C168.828 101.231 168.69 101.15 168.559 101.059C168.47 100.997 168.426 100.965 168.432 100.955C169.138 101.298 169.913 101.497 170.706 101.539C171.56 101.567 172.408 101.402 173.179 101.059C174.12 100.627 174.927 99.9754 175.519 99.1659C176.575 97.6588 177.097 95.8781 177.01 94.0773C176.982 92.6914 176.784 91.8433 176.839 91.8329Z" fill="#263238"/>
<path d="M191.279 98.5557C190.998 98.8399 190.668 99.0777 190.302 99.259C188.598 100.249 186.638 100.785 184.633 100.81C184.219 100.843 183.802 100.806 183.402 100.702C184.784 100.637 186.155 100.446 187.498 100.133C189.706 99.5382 191.229 98.4729 191.279 98.5557Z" fill="#455A64"/>
<path d="M190.136 91.9105C190.136 91.8847 190.495 91.7916 190.937 92.1019C191.067 92.196 191.172 92.3177 191.243 92.4569C191.314 92.5962 191.349 92.7491 191.345 92.9034C191.343 93.0966 191.282 93.2852 191.171 93.4479C191.06 93.6106 190.902 93.7408 190.716 93.8239C190.522 93.8955 190.31 93.9106 190.107 93.8672C189.904 93.8239 189.72 93.724 189.579 93.5808C189.464 93.4631 189.39 93.3157 189.367 93.1579C189.343 93.0001 189.371 92.8393 189.446 92.6966C189.491 92.604 189.556 92.5207 189.635 92.4514C189.715 92.3822 189.808 92.3284 189.91 92.2932C190.059 92.2467 190.142 92.2932 190.142 92.2932C190.142 92.2932 189.805 92.3708 189.645 92.7793C189.599 92.8843 189.588 92.9996 189.611 93.1108C189.635 93.222 189.693 93.3243 189.778 93.405C189.884 93.503 190.017 93.5706 190.163 93.5999C190.309 93.6292 190.46 93.619 190.6 93.5705C190.735 93.507 190.849 93.4114 190.931 93.2934C191.013 93.1754 191.061 93.0391 191.069 92.8982C191.078 92.7793 191.058 92.6601 191.011 92.5492C190.964 92.4383 190.892 92.3385 190.799 92.257C190.468 91.9519 190.131 91.9571 190.136 91.9105Z" fill="#455A64"/>
<path d="M193.25 103.691C193.211 103.071 193.343 102.453 193.633 101.895C193.923 101.337 194.361 100.859 194.906 100.505C194.972 100.567 194.354 101.136 193.907 102.02C193.459 102.905 193.338 103.701 193.25 103.691Z" fill="#455A64"/>
<path d="M211.571 130.545C211.626 130.602 209.064 132.805 205.857 135.468C202.65 138.132 199.995 140.242 199.94 140.185C199.885 140.128 202.446 137.92 205.659 135.256C208.871 132.593 211.515 130.499 211.571 130.545Z" fill="#455A64"/>
<path d="M211.079 131.481C210.909 131.862 210.682 132.219 210.406 132.542C209.802 133.355 209.14 134.129 208.424 134.858C207.707 135.587 206.938 136.269 206.122 136.901C205.801 137.183 205.441 137.423 205.051 137.615C204.991 137.547 206.542 136.363 208.203 134.667C209.865 132.971 211.002 131.435 211.079 131.481Z" fill="#455A64"/>
<path d="M177.937 92.7483C177.936 92.9015 177.908 93.0536 177.854 93.1982C177.749 93.6025 177.605 93.9971 177.424 94.3772C177.162 94.9442 176.842 95.4862 176.469 95.9959C176.003 96.6162 175.472 97.1914 174.885 97.7127C174.287 98.2229 173.636 98.6751 172.942 99.0625C172.371 99.3722 171.77 99.6302 171.148 99.833C170.73 99.9732 170.299 100.079 169.861 100.148C169.704 100.191 169.539 100.207 169.376 100.195C169.376 100.143 170.044 100.029 171.07 99.6468C171.669 99.4221 172.246 99.1523 172.798 98.8401C173.468 98.4506 174.098 98.004 174.68 97.5059C175.254 96.9984 175.777 96.4427 176.243 95.8459C176.616 95.3545 176.946 94.8357 177.231 94.2945C177.711 93.3482 177.888 92.7173 177.937 92.7483Z" fill="#455A64"/>
<path d="M169.376 122.044L198.582 145.775L189.336 177.873L207.094 182.869C207.094 182.869 218.272 146.323 218.686 140.185C219.1 134.046 214.794 132.5 212.846 130.033C210.897 127.567 189.364 108.345 189.364 108.345L169.348 122.044" fill="#263238"/>
<path d="M181.531 104.642C181.875 104.626 182.22 104.65 182.557 104.715C183.52 104.907 184.45 105.225 185.317 105.661C186.713 106.312 187.991 107.163 189.104 108.185L193.52 112.182C196.794 115.161 200.696 118.698 205.024 122.628L211.775 128.834C212.934 129.914 214.121 131.016 215.302 132.159C216.553 133.299 217.506 134.693 218.09 136.234C218.363 137.013 218.548 137.818 218.642 138.633C218.711 139.439 218.711 140.248 218.642 141.053C218.463 142.616 218.149 144.162 217.703 145.677C216.87 148.65 216.047 151.52 215.308 154.256C213.756 159.712 212.354 164.624 211.179 168.735C210.003 172.847 209.031 176.187 208.358 178.509C208.021 179.647 207.762 180.542 207.58 181.157L207.37 181.845C207.32 182 207.287 182.077 207.287 182.077C207.3 181.997 207.319 181.918 207.342 181.84L207.524 181.147C207.696 180.526 207.938 179.626 208.253 178.478C208.899 176.156 209.832 172.816 210.985 168.689C212.139 164.562 213.519 159.634 215.054 154.173L217.427 145.594C217.869 144.093 218.179 142.56 218.355 141.012C218.424 140.222 218.424 139.428 218.355 138.638C218.261 137.843 218.076 137.059 217.803 136.301C217.231 134.798 216.3 133.438 215.081 132.324C213.906 131.187 212.719 130.08 211.56 128.999L204.82 122.794C200.508 118.848 196.628 115.29 193.36 112.306C191.732 110.812 190.252 109.467 188.944 108.278C187.849 107.254 186.59 106.397 185.213 105.739C184.358 105.298 183.445 104.966 182.497 104.751C182.247 104.704 181.994 104.67 181.74 104.647L181.531 104.642Z" fill="#455A64"/>
</svg>
