<svg width="27" height="27" viewBox="0 0 27 27" fill="none" xmlns="http://www.w3.org/2000/svg">
<path d="M25.3382 10.0798C25.4693 10.4731 25.3824 10.9629 25.1778 11.6555C25.1503 11.7488 25.1203 11.8464 25.0892 11.9476C24.9133 12.52 24.7024 13.2063 24.7024 13.8642C24.7024 14.5173 24.9091 15.19 25.0818 15.7519C25.1138 15.856 25.1446 15.9564 25.1728 16.0521C25.3718 16.7293 25.4599 17.2268 25.3213 17.6528C25.1838 18.0759 24.8108 18.4325 24.2385 18.8671C24.1551 18.9305 24.0662 18.9962 23.9738 19.0644C23.4982 19.4158 22.9319 19.8343 22.5545 20.3461C22.1748 20.8609 21.9417 21.5287 21.7462 22.0888C21.7095 22.1939 21.6742 22.2951 21.6395 22.3908C21.3941 23.067 21.1667 23.5277 20.8107 23.7828C20.4517 24.04 19.9248 24.1146 19.1923 24.1389C19.0853 24.1424 18.9726 24.1448 18.8557 24.1472C18.2573 24.1595 17.5514 24.1741 16.9578 24.3657C16.3677 24.5561 15.7948 24.9516 15.3094 25.2867C15.2111 25.3546 15.1163 25.42 15.0258 25.4807C14.4266 25.8824 13.9547 26.1285 13.4963 26.1285C13.0389 26.1285 12.5772 25.8853 11.9827 25.4844C11.8971 25.4268 11.8079 25.365 11.7153 25.3008C11.2273 24.9628 10.647 24.5609 10.0328 24.365C9.42162 24.1702 8.71259 24.1572 8.11455 24.1462C7.99987 24.1441 7.88928 24.1421 7.78423 24.1388C7.05813 24.1166 6.54225 24.0437 6.18424 23.7845C5.826 23.5251 5.59628 23.0587 5.35004 22.3818C5.31505 22.2856 5.27946 22.1839 5.24255 22.0784C5.04676 21.5189 4.81387 20.8533 4.43733 20.345C4.06395 19.8411 3.49839 19.415 3.01997 19.0546C2.92878 18.9859 2.84076 18.9196 2.75784 18.8556C2.17765 18.4078 1.80282 18.0475 1.66987 17.6487C1.53878 17.2554 1.62569 16.7656 1.83025 16.0729C1.8578 15.9797 1.8878 15.8821 1.91889 15.7809C2.09479 15.2085 2.3057 14.5222 2.3057 13.8642C2.3057 13.2089 2.09199 12.5339 1.91431 11.9727C1.88121 11.8682 1.84936 11.7676 1.82038 11.6718C1.6154 10.9944 1.5272 10.5024 1.66912 10.0821C1.81327 9.65518 2.19247 9.29667 2.76686 8.86199C2.84931 8.79959 2.93695 8.73498 3.02788 8.66795C3.50603 8.31546 4.07474 7.8962 4.45364 7.38239C4.83327 6.86757 5.06636 6.19984 5.2619 5.63967C5.29855 5.53465 5.33389 5.43341 5.36863 5.33767C5.61397 4.66148 5.84141 4.2008 6.19741 3.9457C6.55432 3.68994 7.07798 3.61973 7.81337 3.5983C7.912 3.59542 8.01553 3.59355 8.12269 3.5916C8.72905 3.58061 9.45153 3.5675 10.06 3.35957C10.6354 3.16298 11.1971 2.77683 11.6769 2.44702C11.7823 2.37453 11.8838 2.30476 11.9806 2.24032C12.5774 1.84313 13.051 1.6 13.5118 1.6C13.9692 1.6 14.4309 1.84316 15.0254 2.24405C15.111 2.30173 15.2002 2.36354 15.2928 2.42766C15.7808 2.76566 16.3611 3.16762 16.9753 3.36345C17.5865 3.55831 18.2955 3.57132 18.8935 3.5823C19.0082 3.5844 19.1188 3.58643 19.2239 3.58966C19.95 3.61193 20.4659 3.68484 20.8239 3.94401C21.1821 4.20334 21.4118 4.66981 21.6581 5.34674C21.693 5.44292 21.7286 5.54463 21.7655 5.65011C21.9613 6.20964 22.1942 6.87521 22.5708 7.38346C22.9442 7.88743 23.5097 8.31347 23.9881 8.67385C24.0793 8.74255 24.1673 8.80885 24.2503 8.87286C24.8305 9.32071 25.2053 9.68097 25.3382 10.0798Z" stroke="#DF437E" stroke-width="1.2"/>
<path d="M21.7943 13.9331C21.7943 18.4367 18.0938 22.1007 13.5126 22.1007C8.93138 22.1007 5.23086 18.4367 5.23086 13.9331C5.23086 9.42958 8.93138 5.76553 13.5126 5.76553C18.0938 5.76553 21.7943 9.42958 21.7943 13.9331Z" stroke="#DF437E" stroke-width="1.2"/>
<path d="M14.3644 9.27021L15.303 10.8859C15.3734 11.0044 15.4687 11.1067 15.5824 11.1859C15.6961 11.2652 15.8257 11.3195 15.9624 11.3453L17.8473 11.7129C18.0095 11.7459 18.1601 11.8204 18.284 11.9289C18.4079 12.0374 18.5008 12.176 18.5534 12.331C18.606 12.4861 18.6165 12.652 18.5838 12.8123C18.5511 12.9725 18.4763 13.1215 18.367 13.2443L17.0716 14.6303C16.9737 14.731 16.8999 14.852 16.8556 14.9845C16.8113 15.117 16.7977 15.2576 16.8156 15.396L17.0406 17.2338C17.0577 17.4029 17.0292 17.5734 16.9581 17.7281C16.887 17.8829 16.7758 18.0163 16.6357 18.115C16.4956 18.2137 16.3316 18.2741 16.1602 18.2901C15.9888 18.3062 15.8162 18.2772 15.6598 18.2063L13.9223 17.4405C13.7929 17.3835 13.6528 17.3541 13.5112 17.3541C13.3695 17.3541 13.2294 17.3835 13.1 17.4405L11.3625 18.2063C11.2061 18.2772 11.0335 18.3062 10.8621 18.2901C10.6908 18.2741 10.5267 18.2137 10.3866 18.115C10.2465 18.0163 10.1353 17.8829 10.0642 17.7281C9.99308 17.5734 9.96464 17.4029 9.98174 17.2338L10.2067 15.396C10.2247 15.2576 10.211 15.117 10.1667 14.9845C10.1224 14.852 10.0486 14.731 9.95071 14.6303L8.6553 13.2673C8.54599 13.1445 8.47126 12.9955 8.43856 12.8352C8.40585 12.675 8.41633 12.509 8.46894 12.354C8.52154 12.199 8.61444 12.0603 8.73834 11.9518C8.86225 11.8434 9.01282 11.7689 9.17501 11.7359L11.06 11.3683C11.1967 11.3425 11.3262 11.2881 11.4399 11.2089C11.5536 11.1297 11.6489 11.0274 11.7193 10.9089L12.6579 9.27021C12.7459 9.12423 12.8708 9.00333 13.0204 8.91937C13.17 8.8354 13.3391 8.79126 13.5112 8.79126C13.6832 8.79126 13.8524 8.8354 14.0019 8.91937C14.1515 9.00333 14.2764 9.12423 14.3644 9.27021Z" fill="#DF437E"/>
</svg>
