<svg width="26" height="27" viewBox="0 0 26 27" fill="none" xmlns="http://www.w3.org/2000/svg">
<path d="M3.25 17.8687C3.25 15.2594 3.80925 14.7002 6.41853 14.7002H19.5815C22.1908 14.7002 22.75 15.2594 22.75 17.8687V20.1983C22.75 22.8076 22.1908 23.3669 19.5815 23.3669H6.41853C3.80925 23.3669 3.25 22.8076 3.25 20.1983V17.8687Z" stroke="#DF437E" stroke-width="2"/>
<path d="M6.5 14.7003V13.2443C6.5 10.8748 7.00785 10.3669 9.37733 10.3669H16.6227C18.9921 10.3669 19.5 10.8748 19.5 13.2443V14.7003" stroke="#DF437E" stroke-width="2" stroke-linecap="round"/>
<path d="M9.75 10.3669V8.2002" stroke="#DF437E" stroke-width="2" stroke-linecap="round" stroke-linejoin="round"/>
<path d="M9.75 4.40861V3.86694" stroke="#DF437E" stroke-width="2" stroke-linecap="round" stroke-linejoin="round"/>
<path d="M16.25 10.3669V8.2002" stroke="#DF437E" stroke-width="2" stroke-linecap="round" stroke-linejoin="round"/>
<path d="M16.25 4.40861V3.86694" stroke="#DF437E" stroke-width="2" stroke-linecap="round" stroke-linejoin="round"/>
<path d="M13 10.3669V8.2002" stroke="#DF437E" stroke-width="2" stroke-linecap="round" stroke-linejoin="round"/>
<path d="M13 4.40861V3.86694" stroke="#DF437E" stroke-width="2" stroke-linecap="round" stroke-linejoin="round"/>
<path d="M3.25 17.9932C3.58503 17.9634 3.94168 17.9502 4.33333 17.9502C6.07768 17.9502 6.92232 19.0335 8.66667 19.0335C10.411 19.0335 11.2556 17.9502 13 17.9502C14.7444 17.9502 15.589 19.0335 17.3333 19.0335C19.0777 19.0335 19.9223 17.9502 21.6667 17.9502C22.0583 17.9502 22.4149 17.9634 22.75 17.9932" stroke="#DF437E" stroke-width="2" stroke-linecap="round" stroke-linejoin="round"/>
</svg>
