<svg width="23" height="23" viewBox="0 0 23 23" fill="none" xmlns="http://www.w3.org/2000/svg">
<path d="M5.75 10.2222H17.25M8.30556 5.75V7.02778M14.6944 5.75V7.02778M7.79444 17.25H15.2056C15.9212 17.25 16.279 17.25 16.5523 17.1107C16.7927 16.9882 16.9882 16.7927 17.1107 16.5523C17.25 16.279 17.25 15.9212 17.25 15.2056V9.07222C17.25 8.3566 17.25 7.99879 17.1107 7.72546C16.9882 7.48502 16.7927 7.28955 16.5523 7.16705C16.279 7.02778 15.9212 7.02778 15.2056 7.02778H7.79444C7.07882 7.02778 6.72101 7.02778 6.44768 7.16705C6.20725 7.28955 6.01177 7.48502 5.88927 7.72546C5.75 7.99879 5.75 8.3566 5.75 9.07222V15.2056C5.75 15.9212 5.75 16.279 5.88927 16.5523C6.01177 16.7927 6.20725 16.9882 6.44768 17.1107C6.72101 17.25 7.07882 17.25 7.79444 17.25Z" stroke="#DF437E" stroke-width="1.4" stroke-linecap="round" stroke-linejoin="round"/>
<circle cx="11.5" cy="11.5" r="10.8" stroke="#DF437E" stroke-width="1.4"/>
</svg>
