<svg width="21" height="21" viewBox="0 0 21 21" fill="none" xmlns="http://www.w3.org/2000/svg">
<path fill-rule="evenodd" clip-rule="evenodd" d="M10.5 14.5714C12.7486 14.5714 14.5714 12.7486 14.5714 10.5C14.5714 8.25144 12.7486 6.42859 10.5 6.42859C8.25142 6.42859 6.42857 8.25144 6.42857 10.5C6.42857 12.7486 8.25142 14.5714 10.5 14.5714ZM13.2143 10.5C13.2143 11.999 11.999 13.2143 10.5 13.2143C9.00097 13.2143 7.78572 11.999 7.78572 10.5C7.78572 9.00099 9.00097 7.78573 10.5 7.78573C11.999 7.78573 13.2143 9.00099 13.2143 10.5Z" fill="#1C1C1C"/>
<path fill-rule="evenodd" clip-rule="evenodd" d="M1 9.82116V11.1783C1 12.2289 1.7957 13.0935 2.81728 13.2025C2.90399 13.449 3.00221 13.69 3.11126 13.925C2.44186 14.7248 2.48292 15.9177 3.23447 16.6693L4.19412 17.6289C4.92856 18.3634 6.08457 18.4193 6.88323 17.7967C7.17799 17.9431 7.48296 18.0722 7.79677 18.1826C7.90575 19.2042 8.77039 20 9.82095 20H11.1781C12.2284 20 13.0929 19.2046 13.2021 18.1833C13.4873 18.083 13.7652 17.9674 14.0347 17.8373C14.8308 18.4165 15.9519 18.347 16.67 17.6289L17.6296 16.6693C18.3477 15.9512 18.4172 14.8302 17.8381 14.0341C17.9679 13.7648 18.0835 13.4873 18.1837 13.2023C19.2048 13.0929 20 12.2285 20 11.1783V9.82116C20 8.771 19.2048 7.90664 18.1837 7.79718C18.0732 7.4829 17.944 7.17754 17.7974 6.88242C18.4195 6.08378 18.3634 4.92817 17.6291 4.19391L16.6695 3.23426C15.9181 2.48289 14.7255 2.44166 13.9258 3.11056C13.6904 3.00134 13.449 2.90299 13.2021 2.81618C13.0926 1.79513 12.2282 1 11.1781 1H9.82095C8.77059 1 7.90602 1.7955 7.79684 2.81687C7.51957 2.91445 7.24921 3.02657 6.9867 3.1523C6.1873 2.44027 4.96126 2.46759 4.19459 3.23426L3.23494 4.1939C2.46827 4.96058 2.44096 6.18663 3.15301 6.98603C3.02714 7.24881 2.91492 7.51946 2.81728 7.79705C1.7957 7.90602 1 8.77066 1 9.82116ZM11.8567 3.03571C11.8567 2.66095 11.5529 2.35714 11.1781 2.35714H9.82095C9.44618 2.35714 9.14238 2.66095 9.14238 3.03571V3.2954C9.14238 3.61808 8.91391 3.89259 8.604 3.98261C8.12269 4.12243 7.66339 4.31415 7.23264 4.55129C6.94996 4.70691 6.59431 4.67434 6.36614 4.44616L6.11388 4.19391C5.84888 3.9289 5.41924 3.9289 5.15423 4.1939L4.19459 5.15355C3.92959 5.41854 3.92959 5.8482 4.19459 6.11319L4.44686 6.36546C4.67503 6.59363 4.70761 6.94928 4.55199 7.23197C4.31472 7.66296 4.12292 8.12249 3.98307 8.60414C3.89309 8.91411 3.61857 9.14259 3.29584 9.14259H3.03571C2.66095 9.14259 2.35714 9.44645 2.35714 9.82116V11.1783C2.35714 11.5531 2.66095 11.8569 3.03571 11.8569H3.29584C3.61857 11.8569 3.89308 12.0854 3.98307 12.3953C4.11433 12.8474 4.29136 13.28 4.50879 13.6879C4.65887 13.9693 4.62422 14.3199 4.39866 14.5454L4.19412 14.75C3.92912 15.015 3.92912 15.4446 4.19412 15.7097L5.15377 16.6693C5.41876 16.9343 5.84841 16.9343 6.11341 16.6693L6.27852 16.5042C6.50931 16.2734 6.87002 16.243 7.15382 16.4041C7.60722 16.6617 8.09317 16.8685 8.604 17.0169C8.91391 17.1069 9.14238 17.3815 9.14238 17.7041V17.9643C9.14238 18.3391 9.44618 18.6429 9.82095 18.6429H11.1781C11.5529 18.6429 11.8567 18.3391 11.8567 17.9643V17.7047C11.8567 17.3819 12.0852 17.1074 12.3952 17.0174C12.8772 16.8776 13.337 16.6857 13.7683 16.4482C14.051 16.2926 14.4066 16.3252 14.6348 16.5534L14.7507 16.6693C15.0157 16.9343 15.4454 16.9343 15.7103 16.6693L16.67 15.7097C16.935 15.4446 16.935 15.015 16.67 14.75L16.5541 14.6341C16.3259 14.4059 16.2933 14.0503 16.449 13.7676C16.6863 13.3366 16.878 12.877 17.0179 12.3953C17.1079 12.0854 17.3824 11.8569 17.7051 11.8569H17.9643C18.3391 11.8569 18.6429 11.5531 18.6429 11.1783V9.82116C18.6429 9.44645 18.3391 9.14259 17.9643 9.14259H17.7051C17.3824 9.14259 17.1079 8.91411 17.0179 8.60414C16.8695 8.09304 16.6626 7.60675 16.4049 7.1531C16.2436 6.8693 16.2741 6.5086 16.5049 6.2778L16.6695 6.11319C16.9345 5.8482 16.9345 5.41854 16.6695 5.15355L15.7099 4.1939C15.4449 3.9289 15.0152 3.9289 14.7502 4.1939L14.5462 4.39793C14.3206 4.62349 13.97 4.65815 13.6885 4.50807C13.2805 4.29049 12.8476 4.11339 12.3952 3.9821C12.0852 3.89214 11.8567 3.6176 11.8567 3.29484V3.03571Z" fill="#1C1C1C"/>
</svg>
