<svg width="24" height="30" viewBox="0 0 24 30" fill="none" xmlns="http://www.w3.org/2000/svg">
<path d="M13.2715 17.9166H7.52148C7.14024 17.9166 6.7746 18.0681 6.50502 18.3377C6.23544 18.6072 6.08398 18.9729 6.08398 19.3541C6.08398 19.7354 6.23544 20.101 6.50502 20.3706C6.7746 20.6402 7.14024 20.7916 7.52148 20.7916H13.2715C13.6527 20.7916 14.0184 20.6402 14.288 20.3706C14.5575 20.101 14.709 19.7354 14.709 19.3541C14.709 18.9729 14.5575 18.6072 14.288 18.3377C14.0184 18.0681 13.6527 17.9166 13.2715 17.9166ZM19.0215 3.54163H17.3252C17.0287 2.70277 16.4799 1.97619 15.7541 1.46147C15.0284 0.946764 14.1612 0.669127 13.2715 0.666626H10.3965C9.50675 0.669127 8.63957 0.946764 7.91383 1.46147C7.18809 1.97619 6.63931 2.70277 6.34273 3.54163H4.64648C3.50274 3.54163 2.40584 3.99598 1.59709 4.80473C0.788336 5.61348 0.333984 6.71038 0.333984 7.85413V25.1041C0.333984 26.2479 0.788336 27.3448 1.59709 28.1535C2.40584 28.9623 3.50274 29.4166 4.64648 29.4166H19.0215C20.1652 29.4166 21.2621 28.9623 22.0709 28.1535C22.8796 27.3448 23.334 26.2479 23.334 25.1041V7.85413C23.334 6.71038 22.8796 5.61348 22.0709 4.80473C21.2621 3.99598 20.1652 3.54163 19.0215 3.54163ZM8.95898 4.97913C8.95898 4.59788 9.11044 4.23224 9.38002 3.96266C9.6496 3.69308 10.0152 3.54163 10.3965 3.54163H13.2715C13.6527 3.54163 14.0184 3.69308 14.288 3.96266C14.5575 4.23224 14.709 4.59788 14.709 4.97913V6.41663H8.95898V4.97913ZM20.459 25.1041C20.459 25.4854 20.3075 25.851 20.038 26.1206C19.7684 26.3902 19.4027 26.5416 19.0215 26.5416H4.64648C4.26524 26.5416 3.8996 26.3902 3.63002 26.1206C3.36044 25.851 3.20898 25.4854 3.20898 25.1041V7.85413C3.20898 7.47288 3.36044 7.10724 3.63002 6.83766C3.8996 6.56808 4.26524 6.41663 4.64648 6.41663H6.08398V7.85413C6.08398 8.23537 6.23544 8.60101 6.50502 8.87059C6.7746 9.14017 7.14024 9.29163 7.52148 9.29163H16.1465C16.5277 9.29163 16.8934 9.14017 17.163 8.87059C17.4325 8.60101 17.584 8.23537 17.584 7.85413V6.41663H19.0215C19.4027 6.41663 19.7684 6.56808 20.038 6.83766C20.3075 7.10724 20.459 7.47288 20.459 7.85413V25.1041ZM16.1465 12.1666H7.52148C7.14024 12.1666 6.7746 12.3181 6.50502 12.5877C6.23544 12.8572 6.08398 13.2229 6.08398 13.6041C6.08398 13.9854 6.23544 14.351 6.50502 14.6206C6.7746 14.8902 7.14024 15.0416 7.52148 15.0416H16.1465C16.5277 15.0416 16.8934 14.8902 17.163 14.6206C17.4325 14.351 17.584 13.9854 17.584 13.6041C17.584 13.2229 17.4325 12.8572 17.163 12.5877C16.8934 12.3181 16.5277 12.1666 16.1465 12.1666Z" fill="#DF437E"/>
</svg>
