<svg width="23" height="23" viewBox="0 0 23 23" fill="none" xmlns="http://www.w3.org/2000/svg">
<g clip-path="url(#clip0_1319_2335)">
<path d="M6.24208 6.24127C4.93763 7.54807 4.16642 9.2937 4.07871 11.138C3.991 12.9824 4.59307 14.7933 5.76762 16.218C6.94217 17.6427 8.60505 18.5791 10.4323 18.8447C12.2595 19.1103 14.1202 18.6862 15.6517 17.6549C17.1833 16.6236 18.2761 15.059 18.7172 13.2661C19.1582 11.4731 18.916 9.58013 18.0376 7.95601C17.1592 6.33189 15.7076 5.09296 13.9657 4.48061C12.2238 3.86826 10.3163 3.92635 8.61482 4.64358C7.72847 5.01851 6.92282 5.561 6.24208 6.24127ZM11.5179 17.7243C9.87161 17.7423 8.28562 17.1056 7.10879 15.9543C5.93196 14.803 5.2607 13.2313 5.24267 11.5851C5.22464 9.9388 5.86132 8.3528 7.01264 7.17598C8.16397 5.99915 9.73564 5.32788 11.3819 5.30985H11.5179V17.7243Z" fill="#DF437E"/>
<path d="M11.5043 23C9.2286 23.0013 7.0036 22.3276 5.11084 21.0641C3.21807 19.8006 1.7426 18.0041 0.871091 15.9019C-0.000416758 13.7996 -0.228795 11.4861 0.214849 9.25403C0.658493 7.02196 1.75422 4.97163 3.36341 3.36244C4.9726 1.75325 7.02293 0.657517 9.25501 0.213872C11.4871 -0.229772 13.8006 -0.00139332 15.9028 0.870114C18.0051 1.74162 19.8016 3.2171 21.0651 5.10986C22.3286 7.00263 23.0023 9.22763 23.0009 11.5034C22.9956 14.5508 21.7826 17.4719 19.6277 19.6267C17.4728 21.7816 14.5518 22.9946 11.5043 23ZM11.5043 1.83561C9.59224 1.83561 7.72308 2.40262 6.13323 3.46492C4.54337 4.52723 3.30423 6.03713 2.5725 7.80368C1.84078 9.57023 1.64932 11.5141 2.02235 13.3894C2.39539 15.2648 3.31615 16.9874 4.66821 18.3395C6.02027 19.6916 7.7429 20.6123 9.61826 20.9854C11.4936 21.3584 13.4375 21.1669 15.204 20.4352C16.9706 19.7035 18.4805 18.4643 19.5428 16.8745C20.6051 15.2846 21.1721 13.4155 21.1721 11.5034C21.1685 8.94042 20.1488 6.48348 18.3365 4.67121C16.5242 2.85893 14.0673 1.83921 11.5043 1.83561Z" fill="#DF437E"/>
</g>
<defs>
<clipPath id="clip0_1319_2335">
<rect width="23" height="23" fill="white"/>
</clipPath>
</defs>
</svg>
