<svg width="20" height="21" viewBox="0 0 20 21" fill="none" xmlns="http://www.w3.org/2000/svg">
<path fill-rule="evenodd" clip-rule="evenodd" d="M7.01636 8.75427H3.7392C3.25834 8.75034 2.79559 8.93658 2.45276 9.272C2.10992 9.60741 1.91508 10.0646 1.91111 10.5429V17.3121C1.92001 18.3078 2.73831 19.1079 3.7392 19.0995H7.01636C7.49719 19.1036 7.95998 18.9173 8.30284 18.5819C8.64569 18.2465 8.84052 17.7894 8.84445 17.311V10.5429C8.84052 10.0646 8.64569 9.60741 8.30284 9.272C7.95998 8.93658 7.49719 8.75034 7.01636 8.75427Z" stroke="#1C1C1C" stroke-width="1.6" stroke-linecap="round" stroke-linejoin="round"/>
<path fill-rule="evenodd" clip-rule="evenodd" d="M7.01636 1.85751H3.7392C2.75844 1.83045 1.94068 2.59813 1.91111 3.57367V4.73924C1.94068 5.71478 2.75844 6.48247 3.7392 6.4554H7.01636C7.99708 6.48247 8.81487 5.71478 8.84445 4.73924V3.57367C8.81487 2.59813 7.99708 1.83045 7.01636 1.85751Z" stroke="#1C1C1C" stroke-width="1.6" stroke-linecap="round" stroke-linejoin="round"/>
<path fill-rule="evenodd" clip-rule="evenodd" d="M12.9837 12.2029H16.2597C16.7407 12.2071 17.2037 12.021 17.5468 11.6856C17.8899 11.3501 18.085 10.8928 18.0889 10.4143V3.64613C18.085 3.16781 17.8901 2.71064 17.5473 2.37521C17.2044 2.03978 16.7416 1.85357 16.2608 1.85755H12.9837C12.5028 1.85357 12.04 2.03978 11.6972 2.37521C11.3543 2.71064 11.1595 3.16781 11.1556 3.64613V10.4143C11.1595 10.8926 11.3543 11.3497 11.6972 11.6851C12.04 12.0205 12.5028 12.2068 12.9837 12.2029Z" stroke="#1C1C1C" stroke-width="1.6" stroke-linecap="round" stroke-linejoin="round"/>
<path fill-rule="evenodd" clip-rule="evenodd" d="M12.9837 19.0996H16.2597C17.2408 19.1273 18.0593 18.3595 18.0889 17.3835V16.2179C18.0593 15.2423 17.2415 14.4747 16.2608 14.5017H12.9837C12.0029 14.4747 11.1851 15.2423 11.1556 16.2179V17.3823C11.1845 18.3583 12.0025 19.1266 12.9837 19.0996Z" stroke="#1C1C1C" stroke-width="1.6" stroke-linecap="round" stroke-linejoin="round"/>
</svg>
