<svg width="23" height="23" viewBox="0 0 23 23" fill="none" xmlns="http://www.w3.org/2000/svg">
<path d="M9.91658 3.33337H5.79992C4.58648 3.33337 3.97975 3.33337 3.51627 3.56953C3.10858 3.77726 2.77713 4.10871 2.56941 4.51639C2.33325 4.97988 2.33325 5.5866 2.33325 6.80004V17.2C2.33325 18.4135 2.33325 19.0203 2.56941 19.4837C2.77713 19.8914 3.10858 20.2229 3.51627 20.4305C3.97975 20.6667 4.58648 20.6667 5.79992 20.6667H16.1999C17.4134 20.6667 18.0201 20.6667 18.4836 20.4305C18.8912 20.2229 19.2227 19.8914 19.4304 19.4837C19.6666 19.0203 19.6666 18.4135 19.6666 17.2V12.5417M14.7916 4.95837L17.8557 8.0225M9.65951 10.0904L16.8618 2.88814C17.7079 2.04201 19.0799 2.04201 19.9259 2.88814C20.7721 3.73428 20.7721 5.10614 19.9259 5.95228L12.4921 13.3861C11.667 14.2112 11.2545 14.6238 10.7846 14.9518C10.3675 15.2431 9.91756 15.4843 9.44425 15.6706C8.91093 15.8805 8.33901 15.9959 7.19518 16.2268L6.66658 16.3334L6.71799 15.9735C6.89989 14.7002 6.99085 14.0636 7.19773 13.4691C7.38131 12.9417 7.63211 12.4402 7.9439 11.9769C8.29528 11.4547 8.75004 10.9999 9.65951 10.0904Z" stroke="#DF437E" stroke-width="2" stroke-linecap="round" stroke-linejoin="round"/>
</svg>
