<svg width="28" height="28" viewBox="0 0 28 28" fill="none" xmlns="http://www.w3.org/2000/svg">
<path fill-rule="evenodd" clip-rule="evenodd" d="M14.0002 2.33337C20.4425 2.33337 25.6668 7.55771 25.6668 14C25.6668 20.4424 20.4425 25.6667 14.0002 25.6667C7.55783 25.6667 2.3335 20.4424 2.3335 14C2.3335 7.55771 7.55783 2.33337 14.0002 2.33337ZM14.0002 4.66671C8.854 4.66671 4.66683 8.85387 4.66683 14C4.66683 19.1462 8.854 23.3334 14.0002 23.3334C19.1463 23.3334 23.3335 19.1462 23.3335 14C23.3335 8.85387 19.1463 4.66671 14.0002 4.66671ZM16.6753 9.67521L18.325 11.3249L15.6498 14L18.325 16.6752L16.6753 18.3249L14.0002 15.6497L11.325 18.3249L9.67533 16.6752L12.3505 14L9.67533 11.3249L11.325 9.67521L14.0002 12.3504L16.6753 9.67521Z" fill="#D11111"/>
</svg>
