<svg width="22" height="16" viewBox="0 0 22 16" fill="none" xmlns="http://www.w3.org/2000/svg">
<path fill-rule="evenodd" clip-rule="evenodd" d="M1.25 2.58333C1.25 1.98503 1.73503 1.5 2.33333 1.5H19.6667C20.265 1.5 20.75 1.98503 20.75 2.58333C20.75 3.18164 20.265 3.66667 19.6667 3.66667H2.33333C1.73503 3.66667 1.25 3.18164 1.25 2.58333ZM4.5 8C4.5 7.40168 4.98503 6.91667 5.58333 6.91667H16.4167C17.015 6.91667 17.5 7.40168 17.5 8C17.5 8.59833 17.015 9.08333 16.4167 9.08333H5.58333C4.98503 9.08333 4.5 8.59833 4.5 8ZM7.75 13.4167C7.75 12.8183 8.23503 12.3333 8.83333 12.3333H13.1667C13.765 12.3333 14.25 12.8183 14.25 13.4167C14.25 14.015 13.765 14.5 13.1667 14.5H8.83333C8.23503 14.5 7.75 14.015 7.75 13.4167Z" fill="#DF437E"/>
</svg>
