<svg width="21" height="21" viewBox="0 0 21 21" fill="none" xmlns="http://www.w3.org/2000/svg">
<path fill-rule="evenodd" clip-rule="evenodd" d="M10.5 18.3125C14.8147 18.3125 18.3125 14.8147 18.3125 10.5C18.3125 6.18527 14.8147 2.6875 10.5 2.6875C6.18527 2.6875 2.6875 6.18527 2.6875 10.5C2.6875 14.8147 6.18527 18.3125 10.5 18.3125ZM10.5 19.875C15.6777 19.875 19.875 15.6777 19.875 10.5C19.875 5.32233 15.6777 1.125 10.5 1.125C5.32233 1.125 1.125 5.32233 1.125 10.5C1.125 15.6777 5.32233 19.875 10.5 19.875ZM11.2812 13.625V15.1875H9.71875V13.625H11.2812ZM8.9375 8.86646C8.9375 8.06524 9.61427 7.375 10.5 7.375C11.3857 7.375 12.0625 8.06524 12.0625 8.86646C12.0625 9.18646 11.8699 9.56573 11.4454 9.99573C11.034 10.4126 10.5108 10.7701 10.0758 11.0512L9.71875 11.2822V12.8437H11.2812V12.1274C11.6783 11.8573 12.1487 11.5074 12.5575 11.0933C13.0852 10.5587 13.625 9.80167 13.625 8.86646C13.625 7.15732 12.203 5.8125 10.5 5.8125C8.79698 5.8125 7.375 7.15732 7.375 8.86646H8.9375Z" fill="#1C1C1C"/>
</svg>
