<svg width="23" height="23" viewBox="0 0 23 23" fill="none" xmlns="http://www.w3.org/2000/svg">
<g clip-path="url(#clip0_1321_2329)">
<path d="M11.5 0.359375C5.35684 0.359375 0.359375 5.35684 0.359375 11.5C0.359375 17.6432 5.35684 22.6406 11.5 22.6406C17.6432 22.6406 22.6406 17.6432 22.6406 11.5C22.6406 5.35684 17.6432 0.359375 11.5 0.359375ZM11.5 20.4844C6.54566 20.4844 2.51562 16.4543 2.51562 11.5C2.51562 6.54566 6.54566 2.51562 11.5 2.51562C16.4543 2.51562 20.4844 6.54566 20.4844 11.5C20.4844 16.4543 16.4543 20.4844 11.5 20.4844Z" fill="#DF437E"/>
<path d="M11.5 7.97819C11.2141 7.97819 10.9398 8.09178 10.7377 8.29396C10.5355 8.49615 10.4219 8.77038 10.4219 9.05631V17.0157C10.4219 17.3017 10.5355 17.5759 10.7377 17.7781C10.9398 17.9803 11.2141 18.0939 11.5 18.0939C11.7859 18.0939 12.0602 17.9803 12.2623 17.7781C12.4645 17.5759 12.5781 17.3017 12.5781 17.0157V9.05631C12.5781 8.77038 12.4645 8.49615 12.2623 8.29396C12.0602 8.09178 11.7859 7.97819 11.5 7.97819ZM11.5 4.90625C11.2141 4.90625 10.9398 5.01984 10.7377 5.22203C10.5355 5.42421 10.4219 5.69844 10.4219 5.98438V5.98797C10.4219 6.58309 10.9042 7.06466 11.5 7.06466C11.7814 7.05739 12.0488 6.94051 12.2453 6.73891C12.4418 6.53731 12.5517 6.26695 12.5517 5.98545C12.5517 5.70396 12.4418 5.4336 12.2453 5.232C12.0488 5.0304 11.7814 4.91351 11.5 4.90625Z" fill="#DF437E"/>
</g>
<defs>
<clipPath id="clip0_1321_2329">
<rect width="23" height="23" fill="white"/>
</clipPath>
</defs>
</svg>
