<svg width="22" height="26" viewBox="0 0 22 26" fill="none" xmlns="http://www.w3.org/2000/svg">
<path fill-rule="evenodd" clip-rule="evenodd" d="M16.047 5.13177C13.1095 2.46565 8.31776 2.46565 5.38012 5.13177C2.87461 7.40569 2.50142 10.9316 4.44946 13.5836L10.7136 22.1114L16.9777 13.5836C18.9257 10.9316 18.5526 7.40569 16.047 5.13177ZM3.98405 3.66563C7.70864 0.285286 13.7186 0.285286 17.4431 3.66563C20.6879 6.61044 21.2068 11.2613 18.644 14.7502L11.7129 24.1859C11.2249 24.8503 10.2023 24.8503 9.7142 24.1859L2.7832 14.7502C0.220405 11.2613 0.739323 6.61044 3.98405 3.66563Z" fill="#DF437E"/>
<path d="M10.5177 11.7277C11.85 11.7277 12.93 10.6733 12.93 9.37265C12.93 8.07198 11.85 7.01758 10.5177 7.01758C9.18548 7.01758 8.10547 8.07198 8.10547 9.37265C8.10547 10.6733 9.18548 11.7277 10.5177 11.7277Z" fill="#DF437E"/>
</svg>
