<svg width="28" height="27" viewBox="0 0 28 27" fill="none" xmlns="http://www.w3.org/2000/svg">
<path d="M13.6836 16.875L17.0586 13.5M17.0586 13.5L13.6836 10.125M17.0586 13.5H4.68359M4.68359 8.15402V8.10023C4.68359 6.8401 4.68359 6.20957 4.92883 5.72828C5.14454 5.3049 5.4885 4.96095 5.91187 4.74524C6.39317 4.5 7.0237 4.5 8.28382 4.5H19.0838C20.3439 4.5 20.9731 4.5 21.4544 4.74524C21.8778 4.96095 22.2229 5.3049 22.4386 5.72828C22.6836 6.2091 22.6836 6.83886 22.6836 8.09652V18.9041C22.6836 20.1617 22.6836 20.7906 22.4386 21.2714C22.2229 21.6947 21.8778 22.0393 21.4544 22.255C20.9736 22.5 20.3447 22.5 19.0871 22.5H8.28012C7.02246 22.5 6.39269 22.5 5.91187 22.255C5.4885 22.0393 5.14454 21.6944 4.92883 21.2711C4.68359 20.7898 4.68359 20.1601 4.68359 18.9V18.8438" stroke="#D11111" stroke-width="2.17346" stroke-linecap="round" stroke-linejoin="round"/>
</svg>
