<svg width="26" height="27" viewBox="0 0 26 27" fill="none" xmlns="http://www.w3.org/2000/svg">
<path d="M22.75 9.28369L18.8925 11.4268C16.7418 12.6215 15.6665 13.219 14.5277 13.4532C13.5198 13.6605 12.4802 13.6605 11.4723 13.4532C10.3335 13.219 9.2582 12.6215 7.10753 11.4268L3.25 9.28369M6.71667 21.2004H19.2833C20.4968 21.2004 21.1036 21.2004 21.567 20.9642C21.9747 20.7565 22.3062 20.425 22.5138 20.0174C22.75 19.5539 22.75 18.9471 22.75 17.7337V9.50036C22.75 8.28692 22.75 7.68018 22.5138 7.21671C22.3062 6.80902 21.9747 6.47757 21.567 6.26985C21.1036 6.03369 20.4968 6.03369 19.2833 6.03369H6.71667C5.50322 6.03369 4.89649 6.03369 4.43302 6.26985C4.02533 6.47757 3.69387 6.80902 3.48616 7.21671C3.25 7.68018 3.25 8.28691 3.25 9.50036V17.7337C3.25 18.9471 3.25 19.5539 3.48616 20.0174C3.69387 20.425 4.02533 20.7565 4.43302 20.9642C4.89649 21.2004 5.50321 21.2004 6.71667 21.2004Z" stroke="#DF437E" stroke-width="2" stroke-linecap="round" stroke-linejoin="round"/>
</svg>
