<svg width="23" height="18" viewBox="0 0 23 18" fill="none" xmlns="http://www.w3.org/2000/svg">
<path d="M11.8297 9.12876C12.3883 8.64524 12.8363 8.04722 13.1434 7.37527C13.4505 6.70332 13.6094 5.97317 13.6094 5.23438C13.6094 3.84614 13.0579 2.51475 12.0763 1.53311C11.0946 0.551478 9.76325 1.87298e-07 8.37501 1.87298e-07C6.98676 1.87298e-07 5.65538 0.551478 4.67374 1.53311C3.69211 2.51475 3.14063 3.84614 3.14063 5.23438C3.14062 5.97317 3.29955 6.70332 3.60662 7.37527C3.91369 8.04722 4.36173 8.64524 4.92032 9.12876C3.45484 9.79236 2.21149 10.864 1.33893 12.2155C0.466378 13.5671 0.00154085 15.1413 0 16.75C0 17.0277 0.110296 17.2939 0.306623 17.4903C0.50295 17.6866 0.769227 17.7969 1.04688 17.7969C1.32452 17.7969 1.5908 17.6866 1.78713 17.4903C1.98346 17.2939 2.09375 17.0277 2.09375 16.75C2.09375 15.0841 2.75553 13.4865 3.93349 12.3085C5.11145 11.1305 6.70912 10.4688 8.37501 10.4688C10.0409 10.4688 11.6386 11.1305 12.8165 12.3085C13.9945 13.4865 14.6563 15.0841 14.6563 16.75C14.6563 17.0277 14.7666 17.2939 14.9629 17.4903C15.1592 17.6866 15.4255 17.7969 15.7031 17.7969C15.9808 17.7969 16.2471 17.6866 16.4434 17.4903C16.6397 17.2939 16.75 17.0277 16.75 16.75C16.7485 15.1413 16.2836 13.5671 15.4111 12.2155C14.5385 10.864 13.2952 9.79236 11.8297 9.12876ZM8.37501 8.37501C7.75385 8.37501 7.14664 8.19081 6.63017 7.84572C6.1137 7.50062 5.71115 7.01012 5.47345 6.43625C5.23574 5.86237 5.17355 5.2309 5.29473 4.62167C5.41591 4.01245 5.71502 3.45285 6.15425 3.01362C6.59347 2.5744 7.15308 2.27528 7.7623 2.1541C8.37152 2.03292 9.003 2.09511 9.57687 2.33282C10.1507 2.57053 10.6412 2.97307 10.9863 3.48954C11.3314 4.00601 11.5156 4.61322 11.5156 5.23438C11.5156 6.06733 11.1848 6.86616 10.5958 7.45514C10.0068 8.04412 9.20795 8.37501 8.37501 8.37501ZM18.5716 8.71001C19.2415 7.95556 19.6792 7.02355 19.8318 6.02617C19.9844 5.0288 19.8456 4.00857 19.4319 3.08828C19.0182 2.168 18.3473 1.3869 17.5001 0.83899C16.6528 0.291084 15.6653 -0.000269675 14.6563 1.87298e-07C14.3786 1.87298e-07 14.1123 0.110296 13.916 0.306623C13.7197 0.50295 13.6094 0.769228 13.6094 1.04688C13.6094 1.32453 13.7197 1.5908 13.916 1.78713C14.1123 1.98346 14.3786 2.09375 14.6563 2.09375C15.4892 2.09375 16.288 2.42464 16.877 3.01362C17.466 3.6026 17.7969 4.40143 17.7969 5.23438C17.7954 5.78424 17.6496 6.32408 17.374 6.7999C17.0984 7.27573 16.7028 7.67086 16.2266 7.94579C16.0714 8.03532 15.9417 8.16319 15.8501 8.31716C15.7584 8.47113 15.7078 8.64605 15.7031 8.82517C15.6988 9.00289 15.7397 9.1788 15.8221 9.33631C15.9046 9.49383 16.0257 9.62776 16.1742 9.72548L16.5825 9.99767L16.7186 10.0709C17.9805 10.6695 19.0451 11.6161 19.787 12.7994C20.5289 13.9827 20.9172 15.3534 20.9061 16.75C20.9061 17.0277 21.0164 17.2939 21.2127 17.4903C21.4091 17.6866 21.6753 17.7969 21.953 17.7969C22.2306 17.7969 22.4969 17.6866 22.6932 17.4903C22.8896 17.2939 22.9999 17.0277 22.9999 16.75C23.0084 15.1435 22.6061 13.5615 21.831 12.1543C21.0559 10.7471 19.9339 9.56145 18.5716 8.71001Z" fill="#DF437E"/>
</svg>
