<svg width="22" height="22" viewBox="0 0 22 22" fill="none" xmlns="http://www.w3.org/2000/svg">
<path d="M2.75 11.9167V13.5667C2.75 14.5934 2.75 15.1068 2.94982 15.499C3.12559 15.8439 3.40605 16.1244 3.75102 16.3002C4.14319 16.5 4.65657 16.5 5.68333 16.5H14.8909C15.1491 16.5 15.2783 16.5 15.4048 16.5177C15.5171 16.5335 15.6277 16.5596 15.7351 16.5957C15.8562 16.6364 15.9717 16.6941 16.2027 16.8096L19.25 18.3333V6.6C19.25 5.57324 19.25 5.05985 19.0502 4.66768C18.8744 4.32271 18.5939 4.04225 18.249 3.86649C17.8569 3.66666 17.3434 3.66666 16.3167 3.66666H11.9167M7.44454 3.55545C8.51848 4.62939 8.51848 6.3706 7.44454 7.44454C6.3706 8.51848 4.6294 8.51848 3.55546 7.44454C2.48152 6.3706 2.48152 4.62939 3.55546 3.55545C4.6294 2.48152 6.3706 2.48152 7.44454 3.55545Z" stroke="#1C1C1C" stroke-width="2" stroke-linecap="round" stroke-linejoin="round"/>
</svg>
