<svg width="9" height="30" viewBox="0 0 9 30" fill="none" xmlns="http://www.w3.org/2000/svg">
<g clip-path="url(#clip0_24_206)">
<path d="M4.50005 22.5C6.2753 22.5 7.71434 23.8431 7.71434 25.5C7.71434 27.1569 6.2753 28.5 4.50005 28.5C2.7248 28.5 1.28577 27.1569 1.28577 25.5C1.28577 23.8431 2.7248 22.5 4.50005 22.5Z" fill="#CACACA"/>
<path d="M4.50005 12C6.2753 12 7.71434 13.3431 7.71434 15C7.71434 16.6569 6.2753 18 4.50005 18C2.7248 18 1.28577 16.6569 1.28577 15C1.28577 13.3431 2.7248 12 4.50005 12Z" fill="#CACACA"/>
<path d="M4.50005 1.5C6.2753 1.5 7.71434 2.8431 7.71434 4.5C7.71434 6.1569 6.2753 7.5 4.50005 7.5C2.7248 7.5 1.28577 6.1569 1.28577 4.5C1.28577 2.8431 2.7248 1.5 4.50005 1.5Z" fill="#CACACA"/>
</g>
<defs>
<clipPath id="clip0_24_206">
<rect width="30" height="9" fill="white" transform="translate(0 30) rotate(-90)"/>
</clipPath>
</defs>
</svg>
