<svg width="19" height="5" viewBox="0 0 19 5" fill="none" xmlns="http://www.w3.org/2000/svg">
<path d="M5.37905 2.50001C5.37905 3.48626 4.57317 4.28572 3.57905 4.28572C2.58494 4.28572 1.77905 3.48626 1.77905 2.50001C1.77905 1.51376 2.58494 0.714294 3.57905 0.714294C4.57317 0.714294 5.37905 1.51376 5.37905 2.50001Z" fill="#414141"/>
<path d="M11.679 2.50001C11.679 3.48626 10.8731 4.28572 9.87898 4.28572C8.88484 4.28572 8.07898 3.48626 8.07898 2.50001C8.07898 1.51376 8.88484 0.714294 9.87898 0.714294C10.8731 0.714294 11.679 1.51376 11.679 2.50001Z" fill="#414141"/>
<path d="M17.979 2.50001C17.979 3.48626 17.1732 4.28572 16.179 4.28572C15.1849 4.28572 14.379 3.48626 14.379 2.50001C14.379 1.51376 15.1849 0.714294 16.179 0.714294C17.1732 0.714294 17.979 1.51376 17.979 2.50001Z" fill="#414141"/>
</svg>
