<svg width="26" height="32" viewBox="0 0 26 32" fill="none" xmlns="http://www.w3.org/2000/svg">
<path d="M12.8201 19.8718V22.9343M5.82196 13.0254C6.48178 12.9813 7.2952 12.9813 8.34131 12.9813H17.299C18.3451 12.9813 19.1585 12.9813 19.8183 13.0254M5.82196 13.0254C4.99852 13.0804 4.41433 13.2041 3.9157 13.482C3.12561 13.9224 2.48326 14.6251 2.0807 15.4894C1.62305 16.4722 1.62305 17.7584 1.62305 20.3312V22.4749C1.62305 25.0477 1.62305 26.3339 2.0807 27.3166C2.48326 28.181 3.12561 28.8837 3.9157 29.3241C4.81388 29.8248 5.98969 29.8248 8.34131 29.8248H17.299C19.6507 29.8248 20.8264 29.8248 21.7246 29.3241C22.5147 28.8837 23.157 28.181 23.5596 27.3166C24.0172 26.3339 24.0172 25.0477 24.0172 22.4749V20.3312C24.0172 17.7584 24.0172 16.4722 23.5596 15.4894C23.157 14.6251 22.5147 13.9224 21.7246 13.482C21.226 13.2041 20.6417 13.0804 19.8183 13.0254M5.82196 13.0254V9.91883C5.82196 5.69047 8.95516 2.2627 12.8201 2.2627C16.6851 2.2627 19.8183 5.69047 19.8183 9.91883V13.0254" stroke="white" stroke-width="3" stroke-linecap="round" stroke-linejoin="round"/>
</svg>
