<svg width="23" height="23" viewBox="0 0 23 23" fill="none" xmlns="http://www.w3.org/2000/svg">
<g clip-path="url(#clip0_1194_2246)">
<path d="M11.5029 1.85706C16.8159 1.85706 21.1492 5.60536 21.1492 10.2244C21.1438 11.4255 20.6638 12.5758 19.8139 13.4245C18.9639 14.2732 17.8129 14.7514 16.6118 14.755H14.3397C13.6129 14.7578 12.9024 14.971 12.2942 15.3689C11.686 15.7668 11.2061 16.3325 10.9125 16.9973C10.6189 17.6622 10.5242 18.3979 10.6399 19.1155C10.7555 19.8331 11.0766 20.5018 11.5642 21.0407C11.5674 21.0483 11.569 21.0564 11.569 21.0645C11.569 21.0727 11.5674 21.0808 11.5642 21.0884C11.5674 21.0959 11.569 21.104 11.569 21.1122C11.569 21.1203 11.5674 21.1284 11.5642 21.136C11.5511 21.1413 11.5364 21.1413 11.5234 21.136C8.96501 21.136 6.51144 20.1197 4.70242 18.3106C2.8934 16.5016 1.8771 14.0481 1.8771 11.4897C1.8771 8.93137 2.8934 6.4778 4.70242 4.66878C6.51144 2.85975 8.96501 1.84345 11.5234 1.84345M11.5234 -0.0136883C9.98962 -0.050994 8.46391 0.218875 7.03604 0.780036C5.60816 1.3412 4.30695 2.18231 3.20901 3.25388C2.11106 4.32544 1.23855 5.60581 0.642839 7.01962C0.047123 8.43343 -0.259766 9.95212 -0.259766 11.4863C-0.259766 13.0205 0.047123 14.5392 0.642839 15.953C1.23855 17.3668 2.11106 18.6472 3.20901 19.7187C4.30695 20.7903 5.60816 21.6314 7.03604 22.1926C8.46391 22.7537 9.98962 23.0236 11.5234 22.9863C11.89 22.9798 12.247 22.8683 12.5522 22.6651C12.8574 22.4619 13.098 22.1754 13.2455 21.8397C13.3929 21.504 13.4411 21.1331 13.3842 20.7708C13.3274 20.4086 13.1679 20.0702 12.9247 19.7958C12.6765 19.5219 12.5134 19.1817 12.4552 18.8167C12.3971 18.4517 12.4463 18.0777 12.597 17.7402C12.7478 17.4027 12.9934 17.1164 13.304 16.9161C13.6147 16.7158 13.9769 16.6102 14.3465 16.6122H16.6186C17.4583 16.6104 18.2895 16.4432 19.0647 16.1202C19.8398 15.7972 20.5437 15.3247 21.1362 14.7296C21.7288 14.1346 22.1983 13.4286 22.518 12.6521C22.8377 11.8756 23.0013 11.0437 22.9995 10.204C22.9995 4.55774 17.8499 -8.28141e-05 11.5029 -8.28141e-05L11.5234 -0.0136883Z" fill="#DF437E"/>
<path d="M5.18399 13.2176C4.80458 13.2176 4.43368 13.1051 4.11821 12.8943C3.80273 12.6835 3.55685 12.3839 3.41165 12.0333C3.26646 11.6828 3.22847 11.2971 3.30249 10.9249C3.37651 10.5528 3.55921 10.211 3.8275 9.94271C4.09579 9.67443 4.43761 9.49172 4.80974 9.4177C5.18187 9.34368 5.56758 9.38167 5.91812 9.52686C6.26866 9.67206 6.56826 9.91794 6.77906 10.2334C6.98985 10.5489 7.10236 10.9198 7.10236 11.2992C7.10236 11.8068 6.90118 12.2937 6.54289 12.6533C6.1846 13.0129 5.6984 13.2158 5.1908 13.2176H5.18399ZM8.26563 7.43526C7.8871 7.43123 7.51823 7.31531 7.20546 7.10208C6.89268 6.88886 6.64997 6.58786 6.5079 6.23699C6.36583 5.88612 6.33074 5.50106 6.40705 5.13028C6.48336 4.75951 6.66766 4.4196 6.93674 4.15335C7.20582 3.8871 7.54766 3.70641 7.91922 3.63403C8.29078 3.56165 8.67545 3.60081 9.0248 3.74659C9.37415 3.89237 9.67256 4.13824 9.88246 4.45326C10.0924 4.76827 10.2044 5.13835 10.2044 5.51689C10.2053 5.76849 10.1565 6.0178 10.0608 6.25051C9.96518 6.48321 9.82452 6.69475 9.64693 6.87297C9.46933 7.0512 9.2583 7.19261 9.02594 7.2891C8.79357 7.38559 8.54444 7.43526 8.29284 7.43526H8.26563ZM14.6942 7.48288C14.3148 7.48288 13.9439 7.37037 13.6284 7.15958C13.3129 6.94878 13.0671 6.64917 12.9219 6.29864C12.7767 5.9481 12.7387 5.56238 12.8127 5.19026C12.8867 4.81813 13.0694 4.47631 13.3377 4.20802C13.606 3.93973 13.9478 3.75703 14.3199 3.68301C14.6921 3.60898 15.0778 3.64697 15.4283 3.79217C15.7789 3.93737 16.0785 4.18325 16.2893 4.49872C16.5001 4.8142 16.6126 5.18509 16.6126 5.56451C16.6135 5.81611 16.5647 6.06542 16.469 6.29812C16.3733 6.53083 16.2327 6.74237 16.0551 6.92059C15.8775 7.09882 15.6665 7.24023 15.4341 7.33672C15.2017 7.43321 14.9526 7.48288 14.701 7.48288H14.6942ZM17.3473 12.8026C16.9676 12.804 16.596 12.6926 16.2796 12.4826C15.9633 12.2726 15.7163 11.9735 15.5701 11.6231C15.4238 11.2727 15.3849 10.8867 15.4581 10.5142C15.5314 10.1416 15.7135 9.79914 15.9816 9.53017C16.2496 9.2612 16.5914 9.07782 16.9637 9.00325C17.336 8.92867 17.7221 8.96626 18.073 9.11126C18.4239 9.25625 18.7239 9.50213 18.935 9.81775C19.1461 10.1334 19.2588 10.5045 19.2588 10.8842C19.2597 11.1353 19.2112 11.384 19.1159 11.6163C19.0207 11.8485 18.8806 12.0598 18.7038 12.2379C18.5269 12.4161 18.3166 12.5576 18.0851 12.6545C17.8535 12.7514 17.6051 12.8017 17.3541 12.8026H17.3473Z" fill="#DF437E"/>
</g>
<defs>
<clipPath id="clip0_1194_2246">
<rect width="23" height="23" fill="white"/>
</clipPath>
</defs>
</svg>
