<svg width="12" height="14" viewBox="0 0 12 14" fill="none" xmlns="http://www.w3.org/2000/svg">
<g clip-path="url(#clip0_290_2164)">
<path d="M6.67948 3.65257C6.89268 3.38106 6.84989 2.98457 6.58386 2.76697C6.31792 2.54938 5.92953 2.59307 5.71641 2.86457L6.67948 3.65257ZM1.34473 9.44016L1.81214 9.85151C1.81696 9.8458 1.82168 9.84 1.82629 9.83412L1.34473 9.44016ZM1.20402 9.79128L0.588081 9.7502L0.587538 9.76213L1.20402 9.79128ZM1.08882 12.3306L0.472339 12.3015C0.470923 12.3327 0.471787 12.364 0.474939 12.3952L1.08882 12.3306ZM1.73641 12.9077L1.75659 13.5373C1.79775 13.5359 1.83866 13.5304 1.87873 13.5206L1.73641 12.9077ZM4.20498 12.3104L4.34734 12.9235L4.35688 12.921L4.20498 12.3104ZM4.52178 12.1055L4.99789 12.5064L5.00324 12.4996L4.52178 12.1055ZM9.97329 6.17273C10.1865 5.90124 10.1438 5.50476 9.87792 5.28708C9.61206 5.0694 9.22359 5.113 9.01039 5.38447L9.97329 6.17273ZM5.71896 2.8644C5.50576 3.13583 5.54838 3.53234 5.81433 3.75003C6.08019 3.96772 6.46858 3.92416 6.68187 3.65274L5.71896 2.8644ZM7.50711 1.59537L7.98856 1.98954C7.99663 1.97921 8.00444 1.96863 8.01193 1.9578L7.50711 1.59537ZM8.84754 1.32657L9.24235 0.842356C9.22268 0.825657 9.20203 0.810226 9.18055 0.796139L8.84754 1.32657ZM10.6883 2.89065L11.125 2.44558C11.1116 2.43188 11.0976 2.41883 11.0831 2.40644L10.6883 2.89065ZM10.6809 4.26657L10.2489 3.81663C10.2314 3.83413 10.215 3.85268 10.1996 3.87218L10.6809 4.26657ZM9.01039 5.38447C8.79702 5.65579 8.83973 6.05202 9.10551 6.26983C9.37129 6.48764 9.75993 6.44405 9.97329 6.17273L9.01039 5.38447ZM6.81072 3.16521C6.7602 2.82111 6.44603 2.58396 6.10899 2.63553C5.77187 2.68709 5.53957 3.00783 5.5901 3.35193L6.81072 3.16521ZM9.57495 6.4028C9.91265 6.35602 10.1492 6.0385 10.1034 5.69376C10.0575 5.34897 9.74651 5.10746 9.40873 5.1543L9.57495 6.4028ZM5.71641 2.86457L0.863171 9.04611L1.82629 9.83412L6.67948 3.65257L5.71641 2.86457ZM0.877324 9.02873C0.706696 9.23075 0.60509 9.48401 0.588081 9.7502L1.81986 9.83227C1.81941 9.83933 1.8167 9.84613 1.81214 9.85151L0.877324 9.02873ZM0.587538 9.76213L0.472339 12.3015L1.70531 12.3597L1.82051 9.82043L0.587538 9.76213ZM0.474939 12.3952C0.542142 13.0604 1.10189 13.5592 1.75659 13.5373L1.71623 12.278C1.7136 12.2781 1.71147 12.2773 1.71147 12.2773C1.71029 12.2769 1.70874 12.2761 1.70715 12.2747C1.70555 12.2732 1.70453 12.2718 1.70394 12.2707C1.70394 12.2707 1.70298 12.2686 1.70271 12.2659L0.474939 12.3952ZM1.87873 13.5206L4.34734 12.9235L4.06263 11.6974L1.59409 12.2946L1.87873 13.5206ZM4.35688 12.921C4.60826 12.8559 4.83282 12.7107 4.99789 12.5064L4.04568 11.7045C4.04765 11.7022 4.0502 11.7005 4.05308 11.6998L4.35688 12.921ZM5.00324 12.4996L9.97329 6.17273L9.01039 5.38447L4.04033 11.7114L5.00324 12.4996ZM6.68187 3.65274L7.98856 1.98954L7.02565 1.2012L5.71896 2.8644L6.68187 3.65274ZM8.01193 1.9578C8.12598 1.79222 8.34757 1.74778 8.51453 1.857L9.18055 0.796139C8.45702 0.322833 7.49666 0.515411 7.00229 1.23294L8.01193 1.9578ZM8.45274 1.81078L10.2935 3.37486L11.0831 2.40644L9.24235 0.842356L8.45274 1.81078ZM10.2515 3.33572C10.314 3.39964 10.3488 3.48641 10.3484 3.57672L11.5826 3.58365C11.5849 3.15717 11.4202 2.74743 11.125 2.44558L10.2515 3.33572ZM10.3484 3.57672C10.3479 3.66704 10.3121 3.75341 10.2489 3.81663L11.1129 4.71651C11.4112 4.41798 11.5803 4.01012 11.5826 3.58365L10.3484 3.57672ZM10.1996 3.87218L9.01039 5.38447L9.97329 6.17273L11.1622 4.66096L10.1996 3.87218ZM5.5901 3.35193C5.87752 5.31022 7.65284 6.66942 9.57495 6.4028L9.40873 5.1543C8.1556 5.32812 6.99817 4.44195 6.81072 3.16521L5.5901 3.35193Z" fill="#DF437E"/>
</g>
<defs>
<clipPath id="clip0_290_2164">
<rect width="12" height="14" fill="white"/>
</clipPath>
</defs>
</svg>
