<svg width="156" height="48" viewBox="0 0 156 48" fill="none" xmlns="http://www.w3.org/2000/svg">
<path d="M43.592 37V17.632H48.956V23.104L48.2 21.52C48.776 20.152 49.7 19.12 50.972 18.424C52.244 17.704 53.792 17.344 55.616 17.344V22.528C55.376 22.504 55.16 22.492 54.968 22.492C54.776 22.468 54.572 22.456 54.356 22.456C52.82 22.456 51.572 22.9 50.612 23.788C49.676 24.652 49.208 26.008 49.208 27.856V37H43.592ZM68.4267 37.288C66.2187 37.288 64.2747 36.856 62.5947 35.992C60.9387 35.128 59.6547 33.952 58.7427 32.464C57.8307 30.952 57.3747 29.236 57.3747 27.316C57.3747 25.372 57.8187 23.656 58.7067 22.168C59.6187 20.656 60.8547 19.48 62.4147 18.64C63.9747 17.776 65.7387 17.344 67.7067 17.344C69.6027 17.344 71.3067 17.752 72.8187 18.568C74.3547 19.36 75.5667 20.512 76.4547 22.024C77.3427 23.512 77.7867 25.3 77.7867 27.388C77.7867 27.604 77.7747 27.856 77.7507 28.144C77.7267 28.408 77.7027 28.66 77.6787 28.9H61.9467V25.624H74.7267L72.5667 26.596C72.5667 25.588 72.3627 24.712 71.9547 23.968C71.5467 23.224 70.9827 22.648 70.2627 22.24C69.5427 21.808 68.7027 21.592 67.7427 21.592C66.7827 21.592 65.9307 21.808 65.1867 22.24C64.4667 22.648 63.9027 23.236 63.4947 24.004C63.0867 24.748 62.8827 25.636 62.8827 26.668V27.532C62.8827 28.588 63.1107 29.524 63.5667 30.34C64.0467 31.132 64.7067 31.744 65.5467 32.176C66.4107 32.584 67.4187 32.788 68.5707 32.788C69.6027 32.788 70.5027 32.632 71.2707 32.32C72.0627 32.008 72.7827 31.54 73.4307 30.916L76.4187 34.156C75.5307 35.164 74.4147 35.944 73.0707 36.496C71.7267 37.024 70.1787 37.288 68.4267 37.288ZM92.8783 37V33.22L92.5183 32.392V25.624C92.5183 24.424 92.1463 23.488 91.4023 22.816C90.6823 22.144 89.5663 21.808 88.0543 21.808C87.0223 21.808 86.0023 21.976 84.9943 22.312C84.0103 22.624 83.1703 23.056 82.4743 23.608L80.4583 19.684C81.5143 18.94 82.7863 18.364 84.2743 17.956C85.7623 17.548 87.2743 17.344 88.8103 17.344C91.7623 17.344 94.0543 18.04 95.6863 19.432C97.3183 20.824 98.1343 22.996 98.1343 25.948V37H92.8783ZM86.9743 37.288C85.4623 37.288 84.1663 37.036 83.0863 36.532C82.0063 36.004 81.1783 35.296 80.6023 34.408C80.0263 33.52 79.7383 32.524 79.7383 31.42C79.7383 30.268 80.0143 29.26 80.5663 28.396C81.1423 27.532 82.0423 26.86 83.2663 26.38C84.4903 25.876 86.0863 25.624 88.0543 25.624H93.2023V28.9H88.6663C87.3463 28.9 86.4343 29.116 85.9303 29.548C85.4503 29.98 85.2103 30.52 85.2103 31.168C85.2103 31.888 85.4863 32.464 86.0383 32.896C86.6143 33.304 87.3943 33.508 88.3783 33.508C89.3143 33.508 90.1543 33.292 90.8983 32.86C91.6423 32.404 92.1823 31.744 92.5183 30.88L93.3823 33.472C92.9743 34.72 92.2303 35.668 91.1503 36.316C90.0703 36.964 88.6783 37.288 86.9743 37.288ZM111.674 37.288C109.85 37.288 108.206 36.88 106.742 36.064C105.278 35.224 104.114 34.06 103.25 32.572C102.41 31.084 101.99 29.332 101.99 27.316C101.99 25.276 102.41 23.512 103.25 22.024C104.114 20.536 105.278 19.384 106.742 18.568C108.206 17.752 109.85 17.344 111.674 17.344C113.306 17.344 114.734 17.704 115.958 18.424C117.182 19.144 118.13 20.236 118.802 21.7C119.474 23.164 119.81 25.036 119.81 27.316C119.81 29.572 119.486 31.444 118.838 32.932C118.19 34.396 117.254 35.488 116.03 36.208C114.83 36.928 113.378 37.288 111.674 37.288ZM112.646 32.68C113.558 32.68 114.386 32.464 115.13 32.032C115.874 31.6 116.462 30.988 116.894 30.196C117.35 29.38 117.578 28.42 117.578 27.316C117.578 26.188 117.35 25.228 116.894 24.436C116.462 23.644 115.874 23.032 115.13 22.6C114.386 22.168 113.558 21.952 112.646 21.952C111.71 21.952 110.87 22.168 110.126 22.6C109.382 23.032 108.782 23.644 108.326 24.436C107.894 25.228 107.678 26.188 107.678 27.316C107.678 28.42 107.894 29.38 108.326 30.196C108.782 30.988 109.382 31.6 110.126 32.032C110.87 32.464 111.71 32.68 112.646 32.68ZM117.722 37V33.04L117.83 27.28L117.47 21.556V10.288H123.086V37H117.722ZM130.731 44.272C129.723 44.272 128.727 44.116 127.743 43.804C126.759 43.492 125.955 43.06 125.331 42.508L127.383 38.512C127.815 38.896 128.307 39.196 128.859 39.412C129.435 39.628 129.999 39.736 130.551 39.736C131.343 39.736 131.967 39.544 132.423 39.16C132.903 38.8 133.335 38.188 133.719 37.324L134.727 34.948L135.159 34.336L142.107 17.632H147.507L138.759 38.188C138.135 39.748 137.415 40.972 136.599 41.86C135.807 42.748 134.919 43.372 133.935 43.732C132.975 44.092 131.907 44.272 130.731 44.272ZM134.043 37.756L125.403 17.632H131.199L137.895 33.832L134.043 37.756ZM150.763 37.288C149.803 37.288 148.975 36.964 148.279 36.316C147.607 35.644 147.271 34.792 147.271 33.76C147.271 32.728 147.607 31.9 148.279 31.276C148.975 30.628 149.803 30.304 150.763 30.304C151.747 30.304 152.575 30.628 153.247 31.276C153.919 31.9 154.255 32.728 154.255 33.76C154.255 34.792 153.919 35.644 153.247 36.316C152.575 36.964 151.747 37.288 150.763 37.288Z" fill="#414141"/>
<g clip-path="url(#clip0_24_364)">
<path d="M26 5.64071C26 7.05564 25.4653 8.4189 24.5018 9.46013C23.5382 10.5014 22.2164 11.1445 20.7983 11.262C20.645 11.262 20.4861 11.2814 20.3272 11.2814H10.3978V10.3445C10.403 8.70632 10.014 7.09064 9.26322 5.6324C8.34701 3.85794 6.93593 2.38362 5.19889 1.38593C3.61947 0.475421 1.82566 -0.00277505 0 1.21143e-05H20.3272C20.4861 1.21143e-05 20.645 1.21144e-05 20.7983 0.019415C22.2164 0.13692 23.5382 0.780062 24.5018 1.82129C25.4653 2.86252 26 4.22578 26 5.64071Z" fill="#EB996E"/>
<path d="M10.3978 42.8388C10.3981 43.5165 10.2642 44.1875 10.0037 44.8137C9.74313 45.4399 9.36107 46.0089 8.8793 46.4882C8.39754 46.9674 7.82553 47.3477 7.19594 47.6071C6.56635 47.8665 5.89153 48 5.21004 48C3.85462 47.9688 2.56529 47.4114 1.61778 46.4472C0.67027 45.4829 0.139793 44.1883 0.139793 42.8402C0.139793 41.4921 0.67027 40.1975 1.61778 39.2332C2.56529 38.269 3.85462 37.7117 5.21004 37.6804C6.58591 37.6804 7.90543 38.2239 8.87832 39.1913C9.85121 40.1587 10.3978 41.4707 10.3978 42.8388Z" fill="#71CEBD"/>
<path d="M10.3978 11.2814V28.2035H10.3755C10.3914 28.3629 10.3989 28.5229 10.3978 28.683C10.3978 30.0511 9.85121 31.3632 8.87832 32.3306C7.90543 33.298 6.58591 33.8414 5.21004 33.8414C4.52841 33.8418 3.85338 33.7087 3.2235 33.4496C2.59361 33.1906 2.02121 32.8107 1.53897 32.3317C1.05672 31.8527 0.674084 31.284 0.412897 30.6579C0.151711 30.0319 0.0170916 29.3608 0.0167256 28.683C0.0167256 28.5195 0.0167256 28.3587 0.0390265 28.2035H0V1.21143e-05C1.82566 -0.00277505 3.61947 0.475421 5.19889 1.38593C6.93711 2.38586 8.34831 3.86319 9.26322 5.64071C10.014 7.09896 10.403 8.71464 10.3978 10.3528" fill="#DF437E"/>
</g>
<defs>
<clipPath id="clip0_24_364">
<rect width="26" height="48" fill="white"/>
</clipPath>
</defs>
</svg>
