<svg width="163" height="48" viewBox="0 0 163 48" fill="none" xmlns="http://www.w3.org/2000/svg">
<path d="M44.8945 34.7783V13.2677H50.2806V19.3982L49.5222 17.6038C50.0624 16.1333 51.0452 14.9137 52.3049 14.1508C53.7441 13.323 55.3517 12.9175 56.9735 12.9733V18.7642C56.7638 18.7105 56.5517 18.6689 56.3381 18.6397C56.1331 18.6397 55.9332 18.6001 55.7436 18.6001C54.3498 18.5187 52.9839 19.0522 51.9462 20.0832C51.0032 21.0625 50.5369 22.5852 50.5369 24.6117V34.7783H44.8945Z" fill="white"/>
<path d="M70.9557 34.7748C68.7743 34.8247 66.6135 34.3401 64.6593 33.3628C62.9178 32.4857 61.46 31.128 60.456 29.448C59.452 27.7681 58.9433 25.8352 58.9892 23.8751C58.9564 21.9029 59.4502 19.9581 60.4192 18.2438C61.3629 16.6005 62.7455 15.2566 64.4099 14.365C66.1837 13.4177 68.1667 12.9377 70.1742 12.9698C72.114 12.9414 74.0303 13.3998 75.7501 14.3036C77.3818 15.1755 78.742 16.4851 79.6799 18.0876C80.6853 19.875 81.1856 21.9055 81.1265 23.9588C81.1265 24.1932 81.1265 24.4667 81.0877 24.7681C81.0489 25.0694 81.0323 25.3262 81.0101 25.6164H63.9166V22.0166H77.7732L75.3899 23.0826C75.4402 22.0853 75.2239 21.0928 74.7635 20.2084C74.338 19.411 73.7009 18.7483 72.9234 18.2941C72.0881 17.8228 71.1425 17.5858 70.1853 17.6076C69.2173 17.5841 68.2607 17.8211 67.414 18.2941C66.626 18.7478 65.9821 19.4174 65.5572 20.2251C65.0969 21.1329 64.8683 22.1418 64.8921 23.1607V24.1039C64.8753 25.1852 65.1574 26.2499 65.7069 27.1791C66.2179 28.0367 66.9649 28.7269 67.8574 29.1659C68.8852 29.6485 70.0105 29.8836 71.1442 29.8524C72.1374 29.8714 73.1251 29.699 74.0541 29.3445C74.9217 28.9901 75.7124 28.4688 76.382 27.8097L79.63 31.3537C78.6331 32.4762 77.3874 33.3462 75.994 33.893C74.386 34.5084 72.6757 34.8077 70.9557 34.7748Z" fill="white"/>
<path d="M91.072 34.7704C89.6204 34.8073 88.1789 34.5194 86.8531 33.928C85.7456 33.4258 84.7982 32.6286 84.115 31.6239C83.4718 30.6556 83.135 29.5166 83.1482 28.3547C83.104 27.141 83.4576 25.946 84.1555 24.9512C84.8534 23.9564 85.8575 23.2161 87.0151 22.8428C88.7131 22.2639 90.5026 21.9992 92.2958 22.0618H97.8838V25.6322H92.9161C91.4688 25.6322 90.4797 25.8666 89.9377 26.3352C89.6801 26.5528 89.4743 26.8249 89.3351 27.1317C89.196 27.4386 89.1269 27.7725 89.133 28.1093C89.1251 28.4684 89.2056 28.8241 89.3673 29.145C89.529 29.466 89.767 29.7425 90.0606 29.9503C90.7995 30.4522 91.6826 30.6991 92.5752 30.6532C93.5526 30.6651 94.516 30.4208 95.3692 29.9447C96.2038 29.464 96.8293 28.6904 97.1238 27.7745L98.0906 30.6532C97.668 31.9247 96.8012 33.002 95.6486 33.6881C94.2526 34.4642 92.6684 34.8388 91.072 34.7704ZM97.5429 34.458V30.3241L97.1462 29.4203V22.0172C97.1778 21.4496 97.0869 20.882 96.8796 20.3526C96.6724 19.8232 96.3535 19.3444 95.9448 18.9488C95.1401 18.2124 93.9163 17.833 92.2567 17.833C91.1163 17.838 89.9842 18.0264 88.9039 18.3909C87.8886 18.7057 86.9344 19.1905 86.0819 19.8247L83.9138 15.5234C85.1779 14.6365 86.5948 13.9897 88.0936 13.6154C89.714 13.1835 91.3842 12.9659 93.0614 12.9683C96.2949 12.9683 98.8058 13.7289 100.594 15.25C102.382 16.7712 103.276 19.1459 103.276 22.3742V34.458H97.5429Z" fill="white"/>
<path d="M117.454 34.7731C115.642 34.8089 113.853 34.3581 112.265 33.4655C110.738 32.5876 109.48 31.2921 108.632 29.724C107.715 27.9886 107.258 26.0375 107.306 24.065C107.258 22.0926 107.715 20.1414 108.632 18.4061C109.48 16.8379 110.738 15.5424 112.265 14.6646C113.851 13.7624 115.64 13.3021 117.454 13.3296C119.031 13.2919 120.589 13.6925 121.962 14.4888C123.293 15.3162 124.338 16.5496 124.951 18.016C125.725 19.9292 126.091 21.9898 126.024 24.0595C126.086 26.1244 125.738 28.1807 124.999 30.1031C124.424 31.5807 123.394 32.8252 122.064 33.6468C120.654 34.4399 119.061 34.829 117.454 34.7731ZM118.441 29.8284C119.369 29.839 120.283 29.6003 121.092 29.1361C121.892 28.6666 122.544 27.9727 122.97 27.1362C123.455 26.1803 123.695 25.1142 123.668 24.0376C123.701 22.9603 123.46 21.8928 122.97 20.9389C122.535 20.1186 121.885 19.4392 121.092 18.9775C120.283 18.52 119.371 18.287 118.447 18.3017C117.533 18.2892 116.632 18.5222 115.833 18.9775C115.041 19.4392 114.39 20.1186 113.955 20.9389C113.465 21.8928 113.225 22.9603 113.257 24.0376C113.231 25.1142 113.471 26.1803 113.955 27.1362C114.382 27.9727 115.034 28.6666 115.833 29.1361C116.63 29.5905 117.529 29.8235 118.441 29.8119V29.8284ZM123.808 34.4819V30.202L123.92 23.9991L123.545 17.8347V5.69824H129.448V34.4654L123.808 34.4819Z" fill="white"/>
<path d="M137.51 42.0479C136.387 42.0459 135.272 41.8788 134.203 41.5526C133.201 41.271 132.269 40.8009 131.461 40.17L133.746 35.8645C134.23 36.2983 134.799 36.6385 135.419 36.866C136.03 37.0903 136.678 37.2065 137.333 37.2089C138.077 37.2445 138.811 37.035 139.412 36.6156C140.043 36.0719 140.531 35.3953 140.84 34.6398L141.982 32.1033L142.468 31.4501L150.281 13.6292H156.29L146.494 35.5597C145.951 36.9991 145.139 38.3326 144.095 39.4951C143.282 40.3706 142.259 41.0465 141.114 41.4655C139.958 41.8614 138.738 42.0586 137.51 42.0479ZM141.194 35.097L131.581 13.6292H138.029L145.569 30.9493L141.194 35.097Z" fill="white"/>
<path d="M159.31 34.7773C158.827 34.7879 158.347 34.6943 157.898 34.5019C157.45 34.3096 157.042 34.0224 156.699 33.6576C156.345 33.2934 156.066 32.8534 155.88 32.3662C155.695 31.8791 155.607 31.3556 155.622 30.8297C155.602 30.2945 155.687 29.7607 155.873 29.2633C156.058 28.766 156.34 28.3164 156.699 27.944C157.409 27.239 158.342 26.8474 159.31 26.8474C160.278 26.8474 161.211 27.239 161.921 27.944C162.279 28.3177 162.56 28.7675 162.745 29.2646C162.931 29.7616 163.017 30.2947 162.998 30.8297C163.012 31.3554 162.923 31.8783 162.738 32.3652C162.552 32.8521 162.274 33.2923 161.921 33.6576C161.579 34.0238 161.172 34.3118 160.723 34.5043C160.274 34.6967 159.793 34.7896 159.31 34.7773Z" fill="white"/>
<path d="M10.5485 42.7059V42.8852C10.5406 43.439 10.4402 43.9878 10.2515 44.5096C9.99452 45.2353 9.57489 45.8948 9.02365 46.4394C8.47241 46.984 7.80365 47.3998 7.06687 47.656C6.51056 47.8544 5.92304 47.955 5.33124 47.9532C3.9489 47.9532 2.62319 47.4133 1.64573 46.4523C0.668272 45.4913 0.119142 44.1879 0.119142 42.8289C0.118364 41.7673 0.452933 40.7318 1.07662 39.8652C1.70031 38.9987 2.58233 38.344 3.60082 37.9915C4.1307 37.8026 4.68944 37.7039 5.25306 37.6995H5.43548C5.99741 37.7038 6.55444 37.8026 7.0825 37.9915C7.81766 38.2461 8.48538 38.6595 9.03652 39.2014C9.58765 39.7432 10.0082 40.3997 10.2671 41.1225C10.4475 41.6318 10.5425 42.1666 10.5485 42.7059Z" fill="#71CEBD"/>
<path d="M27.9525 5.0628V5.24215C27.9423 5.80018 27.8311 6.35198 27.6241 6.87167C27.3246 7.61337 26.8603 8.27989 26.2652 8.82249C25.67 9.36508 24.959 9.77004 24.1841 10.0077C23.5792 10.2063 22.9455 10.3067 22.3078 10.3049H9.15766V8.86502C9.15766 8.77278 9.15766 8.68054 9.15766 8.58831C9.15766 8.49607 9.15766 8.40383 9.15766 8.31159C9.13789 7.82716 9.07511 7.34536 8.97002 6.87167C8.69404 5.61404 8.1209 4.43791 7.29694 3.4384C6.75702 2.77869 6.12334 2.19883 5.41537 1.71664C4.28671 0.946487 3.00368 0.422355 1.65224 0.17935C1.10754 0.074386 0.554868 0.0143935 0 0L22.412 0C23.0177 0.00909375 23.6186 0.107553 24.1946 0.292084C24.968 0.533169 25.6771 0.940635 26.2704 1.48487C26.8636 2.02911 27.326 2.69645 27.6241 3.4384C27.8316 3.95617 27.9428 4.50637 27.9525 5.0628Z" fill="#EB996E"/>
<path d="M10.5493 8.28598V29.2084C10.5443 29.7625 10.4439 30.3118 10.2522 30.8328C9.98936 31.5579 9.56377 32.2154 9.00704 32.7565C8.4503 33.2977 7.77673 33.7085 7.03633 33.9587C6.50091 34.1471 5.93712 34.2458 5.36846 34.2507H5.2121C4.64339 34.2463 4.07952 34.1476 3.54423 33.9587C2.80383 33.7085 2.13025 33.2977 1.57352 32.7565C1.01679 32.2154 0.591199 31.5579 0.328362 30.8328C0.128591 30.3129 0.0176402 29.764 0 29.2084L0 0C0.52121 0 1.00593 0 1.53236 0H1.98581C2.50049 0.0143697 3.01305 0.0709331 3.51817 0.169102C4.79179 0.420372 5.99317 0.945324 7.03633 1.70639C7.70252 2.19456 8.29556 2.77244 8.79802 3.42302C9.57498 4.43359 10.1095 5.60376 10.3616 6.84605C10.4668 7.31973 10.5295 7.80154 10.5493 8.28598Z" fill="#DF437E"/>
</svg>
