<svg width="23" height="23" viewBox="0 0 23 23" fill="none" xmlns="http://www.w3.org/2000/svg">
<path d="M20.5965 15.5365H15.387C15.082 15.5365 14.7895 15.6577 14.5738 15.8733C14.3582 16.089 14.237 16.3815 14.237 16.6865C14.237 16.9915 14.3582 17.284 14.5738 17.4997C14.7895 17.7153 15.082 17.8365 15.387 17.8365H18.147C16.8785 19.1621 15.2426 20.0782 13.4494 20.467C11.6563 20.8558 9.78789 20.6995 8.08424 20.0183C6.3806 19.3371 4.91955 18.1621 3.88883 16.6441C2.85811 15.1262 2.3048 13.3348 2.3 11.5C2.3 11.195 2.17884 10.9025 1.96317 10.6868C1.74751 10.4712 1.455 10.35 1.15 10.35C0.845001 10.35 0.552494 10.4712 0.336827 10.6868C0.12116 10.9025 0 11.195 0 11.5C0.00607966 13.7457 0.669554 15.9405 1.90854 17.8135C3.14753 19.6865 4.90782 21.1558 6.97215 22.04C9.03649 22.9242 11.3145 23.1846 13.5252 22.7891C15.7358 22.3937 17.7823 21.3596 19.412 19.8145V21.85C19.412 22.155 19.5332 22.4475 19.7488 22.6632C19.9645 22.8788 20.257 23 20.562 23C20.867 23 21.1595 22.8788 21.3752 22.6632C21.5908 22.4475 21.712 22.155 21.712 21.85V16.675C21.7092 16.3779 21.5914 16.0934 21.3835 15.8812C21.1755 15.6689 20.8935 15.5454 20.5965 15.5365ZM11.5 0C8.55184 0.00840902 5.71951 1.14875 3.588 3.1855V1.15C3.588 0.845001 3.46684 0.552494 3.25117 0.336827C3.03551 0.12116 2.743 0 2.438 0C2.133 0 1.84049 0.12116 1.62483 0.336827C1.40916 0.552494 1.288 0.845001 1.288 1.15V6.325C1.288 6.63 1.40916 6.92251 1.62483 7.13817C1.84049 7.35384 2.133 7.475 2.438 7.475H7.613C7.918 7.475 8.21051 7.35384 8.42617 7.13817C8.64184 6.92251 8.763 6.63 8.763 6.325C8.763 6.02 8.64184 5.72749 8.42617 5.51183C8.21051 5.29616 7.918 5.175 7.613 5.175H4.853C6.12084 3.85005 7.7557 2.93422 9.54776 2.54507C11.3398 2.15592 13.2073 2.31121 14.9104 2.99099C16.6136 3.67078 18.0748 4.84404 19.1064 6.36019C20.138 7.87634 20.6929 9.66619 20.7 11.5C20.7 11.805 20.8212 12.0975 21.0368 12.3132C21.2525 12.5288 21.545 12.65 21.85 12.65C22.155 12.65 22.4475 12.5288 22.6632 12.3132C22.8788 12.0975 23 11.805 23 11.5C23 9.9898 22.7025 8.49438 22.1246 7.09914C21.5467 5.7039 20.6996 4.43615 19.6317 3.36827C18.5639 2.3004 17.2961 1.45331 15.9009 0.875385C14.5056 0.297456 13.0102 0 11.5 0Z" fill="#DF437E"/>
</svg>
