<svg width="30" height="30" viewBox="0 0 30 30" fill="none" xmlns="http://www.w3.org/2000/svg">
<path d="M14.3754 14.9999H6.7734M6.55793 15.9964L5.30198 19.7481C4.6141 21.8029 4.27016 22.8303 4.51699 23.4629C4.73133 24.0124 5.19169 24.4289 5.75975 24.5875C6.41389 24.77 7.40189 24.3254 9.37789 23.4363L22.0459 17.7356C23.9746 16.8676 24.939 16.4338 25.237 15.8309C25.496 15.3071 25.496 14.6925 25.237 14.1688C24.939 13.566 23.9746 13.132 22.0459 12.2641L9.35604 6.55367C7.38599 5.66715 6.40098 5.22389 5.74749 5.40573C5.17996 5.56364 4.71965 5.97908 4.50456 6.52749C4.25689 7.15898 4.59715 8.18414 5.27769 10.2345L6.56036 14.099C6.67724 14.4511 6.73569 14.6273 6.75875 14.8073C6.77923 14.9671 6.77901 15.1289 6.75814 15.2886C6.7346 15.4686 6.67571 15.6445 6.55793 15.9964Z" stroke="#DF437E" stroke-width="2.5" stroke-linecap="round" stroke-linejoin="round"/>
</svg>
