<svg width="24" height="24" viewBox="0 0 24 24" fill="none" xmlns="http://www.w3.org/2000/svg">
<path fill-rule="evenodd" clip-rule="evenodd" d="M12.0002 0.333374C5.55686 0.333374 0.333496 5.55674 0.333496 12C0.333496 18.4433 5.55686 23.6667 12.0002 23.6667C18.4435 23.6667 23.6668 18.4433 23.6668 12C23.6668 5.55674 18.4435 0.333374 12.0002 0.333374ZM12.0002 21.3334C6.85377 21.3334 2.66683 17.1464 2.66683 12C2.66683 6.85365 6.85377 2.66671 12.0002 2.66671C17.1466 2.66671 21.3335 6.85365 21.3335 12C21.3335 17.1464 17.1466 21.3334 12.0002 21.3334ZM16.3935 7.83182L18.0433 9.48156L10.8335 16.7215L6.50863 12.3967L8.15837 10.7469L10.8335 13.4221L16.3935 7.83182Z" fill="#71CEBD"/>
</svg>
