<svg width="26" height="26" viewBox="0 0 26 26" fill="none" xmlns="http://www.w3.org/2000/svg">
<path d="M13 3.25V4.33333ZM13 21.6667V22.75ZM4.33333 13H3.25ZM6.8403 6.8403L5.95833 5.95833ZM19.1597 6.8403L20.0417 5.95833ZM6.8403 19.1642L5.95833 20.0418ZM19.1597 19.1642L20.0417 20.0418ZM22.75 13H21.6667ZM17.3333 13C17.3333 15.3932 15.3932 17.3333 13 17.3333C10.6068 17.3333 8.66667 15.3932 8.66667 13C8.66667 10.6068 10.6068 8.66667 13 8.66667C15.3932 8.66667 17.3333 10.6068 17.3333 13Z" fill="#DF437E"/>
<path d="M13 3.25V4.33333M13 21.6667V22.75M4.33333 13H3.25M6.8403 6.8403L5.95833 5.95833M19.1597 6.8403L20.0417 5.95833M6.8403 19.1642L5.95833 20.0418M19.1597 19.1642L20.0417 20.0418M22.75 13H21.6667M17.3333 13C17.3333 15.3932 15.3932 17.3333 13 17.3333C10.6068 17.3333 8.66667 15.3932 8.66667 13C8.66667 10.6068 10.6068 8.66667 13 8.66667C15.3932 8.66667 17.3333 10.6068 17.3333 13Z" stroke="#DF437E" stroke-width="2" stroke-linecap="round" stroke-linejoin="round"/>
</svg>
