<svg width="22" height="22" viewBox="0 0 22 22" fill="none" xmlns="http://www.w3.org/2000/svg">
<path d="M9.5307 3.80187L8.87375 3.14492C8.68053 2.95169 8.41002 2.95169 8.2168 3.14492L4.12052 7.20255L2.45882 5.5795C2.2656 5.38628 1.99509 5.38628 1.80187 5.5795L1.14492 6.23645C0.951695 6.42967 0.951695 6.70018 1.14492 6.8934L3.42492 9.17341C3.61814 9.36663 3.85001 9.44392 4.08187 9.44392C4.31374 9.44392 4.5456 9.36663 4.73882 9.17341L9.5307 4.45882C9.68528 4.30424 9.68528 3.99509 9.5307 3.80187Z" fill="#1E1E1E"/>
<path d="M20.2933 7.99651H11.0603C10.6628 7.99651 10.3535 7.79266 10.3535 7.53058V6.59874C10.3535 6.33665 10.6628 6.13281 11.0603 6.13281H20.2933C20.6909 6.13281 21.0001 6.33665 21.0001 6.59874V7.53058C21.0001 7.79266 20.6909 7.99651 20.2933 7.99651Z" fill="#1E1E1E"/>
<path d="M20.2927 13.4421H8.93925C8.54166 13.4421 8.23242 13.2282 8.23242 12.9532V11.9753C8.23242 11.7002 8.54166 11.4863 8.93925 11.4863H20.2927C20.6903 11.4863 20.9995 11.7002 20.9995 11.9753V12.9532C20.9995 13.2282 20.6903 13.4421 20.2927 13.4421Z" fill="#1E1E1E"/>
<path d="M4.49802 13.707H3.49934C3.21846 13.707 3 13.4883 3 13.207V12.207C3 11.9258 3.21846 11.707 3.49934 11.707H4.49802C4.77889 11.707 4.99735 11.9258 4.99735 12.207V13.207C5.02856 13.4883 4.77889 13.707 4.49802 13.707Z" fill="#1E1E1E"/>
<path d="M4.65209 18.7075H3.60929C3.316 18.7075 3.08789 18.4791 3.08789 18.1854V17.1412C3.08789 16.8476 3.316 16.6191 3.60929 16.6191H4.65209C4.94537 16.6191 5.17349 16.8476 5.17349 17.1412V18.1854C5.20607 18.4791 4.94537 18.7075 4.65209 18.7075Z" fill="#1E1E1E"/>
<path d="M20.2927 18.7075H8.93925C8.54166 18.7075 8.23242 18.4993 8.23242 18.2316V17.2797C8.23242 17.0119 8.54166 16.8037 8.93925 16.8037H20.2927C20.6903 16.8037 20.9995 17.0119 20.9995 17.2797V18.2316C20.9995 18.4993 20.6903 18.7075 20.2927 18.7075Z" fill="#1E1E1E"/>
</svg>
