<svg width="26" height="26" viewBox="0 0 26 26" fill="none" xmlns="http://www.w3.org/2000/svg">
<path d="M15.5247 17.2684L16.9655 15.8275C17.1873 15.6031 17.4513 15.4248 17.7423 15.3032C18.0334 15.1817 18.3456 15.1192 18.661 15.1192C18.9764 15.1192 19.2886 15.1817 19.5797 15.3032C19.8707 15.4248 20.1347 15.6031 20.3564 15.8275L22.0464 17.5176C22.2707 17.7392 22.4489 18.003 22.5705 18.2941C22.692 18.5851 22.7547 18.8975 22.7547 19.2129C22.7547 19.5283 22.692 19.8407 22.5705 20.1318C22.4489 20.4227 22.2707 20.6865 22.0464 20.9082L21.2772 21.6882C20.7472 22.2234 20.0618 22.5776 19.3186 22.7001C18.5755 22.8227 17.8126 22.7075 17.1389 22.3708C11.3412 19.3863 6.61892 14.6678 3.62974 8.87256C3.29274 8.1981 3.17832 7.43414 3.30291 6.69056C3.42749 5.94696 3.78466 5.26194 4.32309 4.73415L5.09222 3.95419C5.54281 3.50631 6.15232 3.25488 6.78763 3.25488C7.42294 3.25488 8.03246 3.50631 8.48305 3.95419L10.1839 5.65508C10.6318 6.10569 10.8832 6.71513 10.8832 7.35045C10.8832 7.98576 10.6318 8.5952 10.1839 9.0458L8.74304 10.4867C9.69573 11.7754 10.7422 12.9918 11.8739 14.1265C12.999 15.2536 14.2087 16.2932 15.4922 17.2359L15.5247 17.2684Z" stroke="#DF437E" stroke-width="2" stroke-linecap="round" stroke-linejoin="round"/>
<path d="M19.7285 9.57668C19.5627 8.77142 19.1676 8.03134 18.591 7.44519C18.0146 6.85903 17.2809 6.4517 16.4785 6.27246" stroke="#DF437E" stroke-width="2" stroke-linecap="round" stroke-linejoin="round"/>
<path d="M23.8333 8.13568C23.4307 6.71568 22.672 5.42223 21.6293 4.37761C20.5866 3.33297 19.2943 2.57176 17.875 2.1665" stroke="#DF437E" stroke-width="2" stroke-linecap="round" stroke-linejoin="round"/>
</svg>
