<svg width="25" height="27" viewBox="0 0 25 27" fill="none" xmlns="http://www.w3.org/2000/svg">
<path d="M20.375 5.83333L19.3238 21.1831C19.2318 22.5275 19.1857 23.1997 18.8875 23.7094C18.6249 24.1582 18.2288 24.5189 17.7514 24.7442C17.2093 25 16.5172 25 15.1331 25H9.86682C8.48279 25 7.79078 25 7.24854 24.7442C6.77116 24.5189 6.37507 24.1582 6.11248 23.7094C5.81422 23.1997 5.76819 22.5275 5.67613 21.1831L4.625 5.83333M2 5.83333H23M17.75 5.83333L17.3948 4.79587C17.0506 3.79049 16.8784 3.2878 16.5592 2.91614C16.2772 2.58794 15.9153 2.33391 15.5063 2.17733C15.0431 2 14.4989 2 13.4103 2H11.5897C10.5011 2 9.9569 2 9.49373 2.17733C9.08477 2.33391 8.72273 2.58794 8.44082 2.91614C8.12157 3.2878 7.94946 3.79049 7.60522 4.79587L7.25 5.83333M15.125 10.9444V19.8889M9.875 10.9444V19.8889" stroke="#FF0000" stroke-width="2" stroke-linecap="round" stroke-linejoin="round"/>
</svg>
