<svg width="28" height="27" viewBox="0 0 28 27" fill="none" xmlns="http://www.w3.org/2000/svg">
<path fill-rule="evenodd" clip-rule="evenodd" d="M13.6816 13.5C11.3543 13.5 9.46165 11.6163 9.46165 9.29998C9.46165 6.98368 11.3543 5.09998 13.6816 5.09998C16.009 5.09998 17.9016 6.98368 17.9016 9.29998C17.9016 11.6163 16.009 13.5 13.6816 13.5ZM17.6463 14.2066C19.3206 12.8658 20.2965 10.6975 19.9378 8.32343C19.5211 5.56928 17.2191 3.36538 14.4402 3.04408C10.6053 2.59993 7.35165 5.57143 7.35165 9.29998C7.35165 11.2845 8.27583 13.0527 9.71695 14.2066C6.17638 15.5307 3.59163 18.6397 3.18651 22.8355C3.12743 23.4561 3.61379 24 4.24046 24C4.77745 24 5.23532 23.5968 5.2828 23.0644C5.70585 18.3783 9.31078 15.6 13.6816 15.6C18.0525 15.6 21.6574 18.3783 22.0805 23.0644C22.128 23.5968 22.5858 24 23.1228 24C23.7495 24 24.2359 23.4561 24.1768 22.8355C23.7717 18.6397 21.1869 15.5307 17.6463 14.2066Z" fill="#DF437E"/>
</svg>
