<svg width="38" height="45" viewBox="0 0 38 45" fill="none" xmlns="http://www.w3.org/2000/svg">
<path d="M9.61347 12.884C9.61347 12.884 7.96128 3.33631 15.5633 1C15.5633 1 18.2398 1.67094 18.1033 9.28492C18.1033 9.28492 22.0007 4.94896 26.774 4.83634C31.5472 4.72372 26.7332 14.0821 25.4561 15.2156C24.1789 16.349 21.6053 18.4085 20.3042 18.0814C20.3042 18.0814 21.2291 21.0587 21.1261 22.4246C21.1261 22.4246 26.0863 21.5008 28.389 23.5125C28.389 23.5125 31.3591 17.9808 35.1823 22.179C35.1823 22.179 38.6101 27.8915 31.316 28.6655C31.316 28.6655 31.5892 29.8181 31.2549 30.011C31.2549 30.011 36.2378 31.4044 37.5258 37.2512C37.5258 37.2512 39.5123 47.6519 30.3072 41.2049L28.9593 40.3051C28.9593 40.3051 31.4035 47.8844 23.224 43.4286C23.224 43.4286 20.6217 41.7572 18.8653 38.369C18.8653 38.369 15.5489 37.3626 13.2785 33.9923C13.2785 33.9923 9.32472 36.7324 4.75035 34.7783C4.75035 34.7783 3.10414 33.7719 5.22 31.2331C5.22 31.2331 1.09132 31.1696 0.5354 28.6703C0.5354 28.6703 0.915201 26.2849 3.99554 25.0197C3.99554 25.0197 0.344901 19.7744 4.00153 15.1724C4.00033 15.1676 6.29351 12.8014 9.61347 12.884Z" fill="#FFFCF9"/>
<path d="M6.06015 21.3499L6.08418 21.3987C6.49527 22.2328 7.39701 22.9496 8.39191 22.95C8.9052 22.932 9.40334 22.7817 9.83239 22.5153L9.83367 22.5145L9.83368 22.5146C9.9035 22.4741 9.93666 22.4202 9.94663 22.366C9.95684 22.3105 9.94344 22.2502 9.91146 22.1982C9.87949 22.1463 9.83071 22.1057 9.77431 22.0877C9.71914 22.0701 9.65364 22.0732 9.58362 22.1135C9.40101 22.224 9.20572 22.3144 9.00152 22.383M6.06015 21.3499L8.98561 22.3356M6.06015 21.3499C6.04738 21.3088 6.04658 21.265 6.05822 21.2232C6.07451 21.1647 6.11414 21.1135 6.16989 21.0809C6.22723 21.0503 6.29523 21.042 6.35926 21.0579C6.42279 21.0737 6.47658 21.112 6.51001 21.1637C6.55646 21.2545 6.60886 21.3425 6.6669 21.4271C6.71047 21.4943 6.76307 21.5614 6.81373 21.6258C6.81406 21.6272 6.81441 21.6285 6.81465 21.6293C6.81565 21.6325 6.81677 21.6349 6.81732 21.6361C6.81848 21.6385 6.81959 21.6402 6.81998 21.6409L6.82126 21.6428L6.82345 21.6458L6.82486 21.6476L6.82794 21.6513L6.8359 21.6606L6.84436 21.67L6.85825 21.687L6.85824 21.687L6.85929 21.6883L6.91535 21.7526L6.91526 21.7526L6.91766 21.755C6.93347 21.7709 6.95023 21.7883 6.96732 21.806C6.99054 21.8301 7.01436 21.8549 7.03722 21.8771M6.06015 21.3499L7.75476 22.3647L7.75475 22.3647L7.75502 22.364M9.00152 22.383L8.98561 22.3356M9.00152 22.383C9.00153 22.383 9.00154 22.383 9.00155 22.383L8.98561 22.3356M9.00152 22.383C8.83718 22.4383 8.66567 22.4721 8.49173 22.4836M8.98561 22.3356C8.82529 22.3895 8.65795 22.4225 8.4882 22.4337M8.49173 22.4836C8.49181 22.4836 8.49189 22.4836 8.49197 22.4836L8.4882 22.4337M8.49173 22.4836C8.49165 22.4836 8.49157 22.4836 8.49149 22.4836L8.4882 22.4337M8.49173 22.4836L8.4882 22.4337M7.03722 21.8771C7.03715 21.8771 7.03708 21.877 7.03701 21.8769L7.07232 21.8415L7.03744 21.8773C7.03737 21.8773 7.03729 21.8772 7.03722 21.8771ZM7.03722 21.8771C7.1255 21.9652 7.22019 22.0472 7.32058 22.1226C7.32134 22.1232 7.32192 22.1237 7.32219 22.1239L7.3223 22.124L7.33192 22.1311C7.33287 22.1318 7.33383 22.1325 7.33479 22.1332L7.335 22.1334L7.33553 22.1327L7.34054 22.1361C7.34613 22.14 7.35271 22.1446 7.35927 22.1492C7.3728 22.1586 7.38622 22.1679 7.39064 22.1709L7.39063 22.1709L7.3917 22.1715L7.47997 22.2268L7.47997 22.2268L7.48063 22.2272C7.53837 22.2621 7.59799 22.2942 7.65923 22.3232L7.65922 22.3233L7.66061 22.3239L7.72459 22.3519L7.72502 22.3521L7.73379 22.332M7.73379 22.332C7.73524 22.3395 7.73807 22.3449 7.73961 22.3476C7.74453 22.356 7.75088 22.361 7.75177 22.3616L7.75185 22.3617C7.75308 22.3627 7.75419 22.3635 7.75502 22.364M7.73379 22.332L7.74507 22.3063L7.73354 22.3307M7.73379 22.332C7.7337 22.3316 7.73361 22.3311 7.73354 22.3307M7.75502 22.364C7.75502 22.364 7.75503 22.364 7.75504 22.364C7.7555 22.3643 7.75588 22.3646 7.75614 22.3647C7.75617 22.3648 7.7562 22.3648 7.75623 22.3648L7.77251 22.3187L7.77275 22.3181C7.77274 22.318 7.77273 22.318 7.77273 22.318C7.77251 22.318 7.7723 22.3179 7.77208 22.3178L7.75502 22.364ZM8.04577 22.4521C7.97478 22.4369 7.90482 22.4175 7.8363 22.3942L7.83579 22.394L7.83579 22.394L7.77014 22.3709L7.77047 22.371C7.77063 22.371 7.77463 22.3721 7.77973 22.3724C7.78128 22.3725 7.78409 22.3726 7.78758 22.3723C7.79037 22.372 7.79769 22.3711 7.80592 22.3669C7.81407 22.3626 7.82499 22.3538 7.83009 22.339L8.04577 22.4521ZM8.04577 22.4521C8.04573 22.4521 8.04569 22.4521 8.04565 22.4521L8.0564 22.4033L8.04591 22.4522C8.04586 22.4522 8.04582 22.4521 8.04577 22.4521ZM7.337 22.1307L7.36522 22.0924C7.36518 22.0924 7.36515 22.0923 7.36511 22.0923C7.36511 22.0923 7.36511 22.0923 7.36511 22.0923L7.36456 22.0931L7.33673 22.1306C7.33682 22.1306 7.3369 22.1307 7.33699 22.1307C7.33699 22.1307 7.33699 22.1307 7.337 22.1307ZM7.337 22.1307C7.3389 22.1312 7.34215 22.132 7.3462 22.1324L7.34623 22.1324C7.34919 22.1327 7.36342 22.1339 7.37792 22.1245C7.38397 22.1206 7.38854 22.1159 7.39193 22.111L7.337 22.1307ZM7.73354 22.3307C7.73272 22.3258 7.73253 22.3202 7.73361 22.3139C7.73432 22.3098 7.73547 22.3061 7.73692 22.3027L7.68066 22.2781C7.62093 22.2497 7.5628 22.2185 7.50651 22.1844L7.41824 22.1292L7.73354 22.3307Z" fill="#605F5F" stroke="#3B3341" stroke-width="0.1"/>
<path d="M15.3306 31.832C14.4512 33.4986 12.8445 34.674 11.0737 35.2107C10.6273 35.3414 10.172 35.4399 9.71145 35.5054C9.48262 35.5294 9.25258 35.5629 9.02134 35.5725C8.90153 35.5785 8.79011 35.5893 8.67509 35.5917H8.32884C8.0976 35.5977 7.86637 35.5797 7.63633 35.5737C7.40629 35.5677 7.17626 35.539 6.94622 35.5138C6.48427 35.4692 6.02643 35.3891 5.57678 35.2742C5.34816 35.2139 5.12526 35.1338 4.91063 35.0346C4.68605 34.9287 4.48201 34.7839 4.30799 34.6069C4.22057 34.5134 4.14602 34.4086 4.08634 34.2953C4.03007 34.1816 3.98975 34.0607 3.96653 33.9359C3.92604 33.6893 3.93582 33.437 3.99528 33.1943C4.1157 32.7362 4.30173 32.298 4.54761 31.8931C4.78659 31.4861 5.08004 31.1137 5.41983 30.7861C5.75576 30.4622 6.12072 30.1698 6.51011 29.9127C6.70061 29.7797 6.90189 29.6635 7.09958 29.5437C7.29727 29.4238 7.50334 29.3148 7.71181 29.2166C8.53902 28.8081 9.39664 28.4645 10.277 28.1886L10.3177 28.5384C9.66726 28.4681 9.02523 28.3345 8.40072 28.1395C7.77694 27.9489 7.17212 27.701 6.59398 27.399C5.42029 26.8014 4.40959 25.9272 3.64903 24.8519C3.27607 24.3092 2.97183 23.7225 2.74326 23.105C2.51795 22.49 2.36164 21.8519 2.27719 21.2024L2.21968 20.7232C2.20411 20.5602 2.20171 20.3973 2.19093 20.2355C2.16577 19.9097 2.18254 19.585 2.18494 19.2603C2.19654 18.6014 2.30141 17.9476 2.49645 17.3182C2.69513 16.6826 3.00328 16.0865 3.40701 15.5569C3.81186 15.0326 4.2995 14.5777 4.85073 14.2103C5.9482 13.4746 7.21699 13.0565 8.49418 12.8336C9.77665 12.6186 11.0819 12.5743 12.376 12.7018C13.0229 12.7608 13.664 12.8718 14.293 13.0337C14.6122 13.1161 14.9253 13.2206 15.2299 13.3464C15.5331 13.4842 15.8434 13.6256 16.101 13.9203L15.7667 14.015C15.8199 13.6847 15.894 13.3582 15.9883 13.0373C16.0806 12.7186 16.1836 12.4035 16.3034 12.0956C16.5413 11.4779 16.8311 10.8815 17.1697 10.3128C17.8477 9.17105 18.7264 8.1612 19.7636 7.33192C20.2788 6.91613 20.8311 6.54838 21.4134 6.23326L21.629 6.11345L21.8531 6.00442C22.0016 5.93373 22.149 5.85945 22.3 5.79116L22.7589 5.60186C22.8355 5.5719 22.911 5.53716 22.9889 5.5096L23.2225 5.42933C24.4691 4.9978 25.7655 4.72606 27.0804 4.62061H27.0936C27.2031 4.62405 27.3119 4.6389 27.4183 4.66494C27.5207 4.68916 27.6209 4.72203 27.7178 4.76318C27.9111 4.84796 28.0882 4.9655 28.2414 5.11063C28.3897 5.25835 28.5149 5.42759 28.6128 5.61264C28.6588 5.70337 28.6989 5.79702 28.7326 5.893L28.7853 6.03557L28.8237 6.18174C29.019 6.9653 28.9435 7.75366 28.8081 8.50847C28.5158 10.0205 27.9455 11.4402 27.3272 12.8217L27.0876 13.3368C27.0061 13.507 26.9307 13.6819 26.8312 13.8556C26.7354 14.028 26.6268 14.193 26.5065 14.3492C26.3869 14.5031 26.2589 14.6503 26.1231 14.7901C25.6019 15.3461 25.0439 15.8665 24.453 16.3477C23.8622 16.8388 23.2218 17.2669 22.542 17.6249C21.8555 17.9711 21.1043 18.2335 20.3039 18.2611L20.4681 18.0131C20.6623 18.543 20.8223 19.0849 20.9473 19.6353C21.0767 20.1835 21.1716 20.7393 21.2313 21.2995C21.3511 22.4185 21.3199 23.5759 20.9833 24.6721C20.8201 25.2232 20.5706 25.7449 20.244 26.2177C19.905 26.6825 19.4932 27.0895 19.0243 27.423C18.0659 28.0676 16.9564 28.3983 15.8446 28.5384L15.8122 28.2988C16.8905 28.1371 17.9556 27.78 18.8446 27.1654C19.2784 26.8479 19.6579 26.4623 19.9685 26.0236C20.2715 25.5779 20.502 25.087 20.6514 24.5691C20.9641 23.5327 20.9845 22.4197 20.8742 21.3342C20.817 20.7908 20.7262 20.2514 20.6023 19.7192C20.479 19.1862 20.3221 18.6616 20.1326 18.1484L20.0415 17.9088L20.2967 17.8992C21.0156 17.8741 21.7213 17.6333 22.3767 17.3002C23.0336 16.9542 23.6524 16.5402 24.2229 16.0649C24.801 15.5917 25.3469 15.0806 25.8572 14.535C25.9845 14.4039 26.1045 14.2659 26.2166 14.1216C26.3259 13.9787 26.4248 13.8282 26.5125 13.6711C26.6012 13.5166 26.6755 13.3452 26.7521 13.1739L26.9918 12.6647C27.2985 11.9794 27.5908 11.2869 27.8424 10.5836C28.0967 9.88102 28.297 9.16006 28.4415 8.427C28.5685 7.70214 28.6368 6.94973 28.463 6.26082L28.4283 6.13262L28.384 6.01281C28.3536 5.93093 28.3184 5.85092 28.2785 5.77319C28.2 5.62637 28.1007 5.4916 27.9838 5.37302C27.8626 5.25737 27.7218 5.16408 27.5681 5.09745C27.4905 5.06493 27.4103 5.03888 27.3284 5.01958C27.2499 5.00028 27.1696 4.98904 27.0888 4.98603H27.102C25.8188 5.08974 24.554 5.35543 23.3375 5.77678L23.1099 5.85585C23.0344 5.88221 22.9613 5.91576 22.8871 5.94452L22.4438 6.12902C22.2976 6.19492 22.155 6.26681 22.01 6.3363L21.7932 6.44053L21.5835 6.56034C21.0254 6.86612 20.4965 7.22224 20.0032 7.62426C19.0012 8.42689 18.1528 9.40434 17.4992 10.5093C17.1707 11.0593 16.8901 11.6365 16.6605 12.2346C16.5407 12.5329 16.4448 12.8336 16.355 13.1439C16.2669 13.4474 16.1968 13.7559 16.1453 14.0677L16.0806 14.4858L15.8098 14.1635C15.7165 14.0603 15.6078 13.9722 15.4875 13.9023C15.3566 13.8266 15.2214 13.7586 15.0826 13.6987C14.795 13.5802 14.4995 13.4818 14.1984 13.4039C13.5867 13.2485 12.9638 13.1415 12.3353 13.084C11.0755 12.9604 9.80488 13.0039 8.55648 13.2134C7.31763 13.4303 6.09796 13.8365 5.06279 14.5314C4.54581 14.8768 4.08853 15.3041 3.70893 15.7966C3.33159 16.2886 3.04329 16.8429 2.85708 17.4344C2.67385 18.0299 2.57504 18.6481 2.56354 19.2711C2.56354 19.5862 2.54437 19.9025 2.56354 20.2164C2.57313 20.3733 2.57552 20.5315 2.5911 20.6872L2.64501 21.1557C2.72579 21.7804 2.8765 22.3941 3.0943 22.9852C3.30958 23.5699 3.59652 24.1257 3.94855 24.6398C4.67382 25.6679 5.63853 26.5039 6.75932 27.0755C7.31695 27.3685 7.90053 27.6091 8.50256 27.7944C9.10143 27.9818 9.71688 28.1114 10.3405 28.1814L11.1791 28.2677L10.38 28.5324C9.51696 28.7972 8.67576 29.1284 7.86397 29.5233C7.6591 29.6191 7.465 29.7318 7.26492 29.8372C7.06483 29.9426 6.87673 30.0648 6.69222 30.1906C6.31846 30.4352 5.96758 30.7131 5.64388 31.0209C5.32353 31.3257 5.04622 31.6728 4.81958 32.0525C4.58694 32.4277 4.4094 32.8345 4.29241 33.2602C4.24054 33.4621 4.22995 33.6723 4.26126 33.8784C4.29715 34.076 4.39002 34.2588 4.52844 34.4044C4.81239 34.7015 5.23293 34.8752 5.65586 34.9962C6.08855 35.109 6.5291 35.1891 6.97378 35.2359C7.19782 35.2622 7.42307 35.279 7.64831 35.2982C7.87356 35.3173 8.0988 35.3245 8.32404 35.3209H8.66191C8.77453 35.3209 8.88716 35.309 8.99978 35.3042C9.22502 35.297 9.44787 35.2658 9.67192 35.2431C10.1173 35.1827 10.5578 35.0902 10.9898 34.9663C11.8528 34.7116 12.662 34.3015 13.3777 33.7562C13.7346 33.4834 14.0633 33.1756 14.3589 32.8373C14.5064 32.6687 14.6448 32.4923 14.7735 32.3089C14.9019 32.1283 15.0168 31.9385 15.1173 31.741L15.3306 31.832Z" fill="#3B3341"/>
<path d="M21.0815 22.2496C21.8253 22.1047 22.581 22.0301 23.3388 22.0268C24.0935 22.0185 24.8471 22.088 25.5876 22.2341C26.33 22.3797 27.0472 22.6328 27.7167 22.9853C28.3854 23.3405 28.9816 23.818 29.4743 24.393L29.3617 24.4913C29.1155 24.2191 28.8452 23.9696 28.5541 23.7461C28.2623 23.5239 27.9507 23.329 27.6232 23.1638C26.9655 22.8368 26.2636 22.6075 25.5397 22.4833C24.8147 22.3582 24.0788 22.3076 23.3436 22.3323C22.6113 22.3525 21.8824 22.4412 21.1666 22.5971L21.0815 22.2496Z" fill="#3B3341"/>
<path d="M28.3899 23.5124C28.3899 23.5124 29.7809 20.0714 32.8409 20.6801C34.4188 20.994 35.6085 22.276 35.932 23.8527C36.3034 25.6618 35.8757 28.0724 31.3169 28.6655" stroke="#3B3341" stroke-width="0.35" stroke-miterlimit="10"/>
<path d="M30.9276 26.8192C31.1129 27.3321 31.2634 27.8568 31.3781 28.3899C31.4363 28.6601 31.4764 28.9339 31.4979 29.2094C31.5291 29.5022 31.5022 29.7981 31.4188 30.0805L31.3122 29.8408C31.857 30.0575 32.3831 30.3183 32.8853 30.6208C33.3877 30.9183 33.8682 31.2515 34.323 31.6176C35.2421 32.3498 36.0228 33.2404 36.6282 34.2475C37.23 35.2581 37.6075 36.3862 37.7353 37.5555C37.7688 37.8454 37.7844 38.1413 37.7904 38.4301C37.7964 38.7188 37.7976 39.0088 37.7904 39.2999C37.7821 39.8836 37.7272 40.4658 37.6262 41.0408C37.5725 41.3325 37.4952 41.6194 37.395 41.8986C37.2933 42.1859 37.1474 42.4555 36.9625 42.6977C36.7711 42.9482 36.5203 43.1471 36.2328 43.2764C35.9461 43.3974 35.637 43.4566 35.3259 43.4502C34.7316 43.4244 34.1462 43.2959 33.5958 43.0704C33.0538 42.8606 32.5249 42.6185 32.0119 42.3455C30.9841 41.8139 29.9934 41.2135 29.0466 40.5483C28.5701 40.2158 28.1162 39.852 27.6879 39.4593C27.5801 39.361 27.4771 39.2568 27.3716 39.1549C27.2662 39.0531 27.1679 38.9441 27.0745 38.8302C26.981 38.7164 26.8852 38.6026 26.7977 38.4816C26.7546 38.4205 26.7115 38.3618 26.6779 38.2935C26.6316 38.2257 26.5915 38.154 26.5581 38.079L26.7618 38.1605C26.1745 38.418 25.5638 38.6186 24.9383 38.7596C24.3165 38.9066 23.6838 39.0031 23.0464 39.0483C20.4658 39.251 17.9003 38.5022 15.8338 36.9432C14.8136 36.1735 13.9048 35.2663 13.1333 34.2475L13.4196 34.0294C14.1671 35.0266 15.0489 35.9157 16.0399 36.6713C18.0363 38.1924 20.5207 38.9298 23.0237 38.744C23.6447 38.7024 24.2613 38.6106 24.8676 38.4696C25.4721 38.3338 26.0625 38.1417 26.6312 37.8957L26.7702 37.8334L26.8349 37.9772C26.8618 38.0338 26.8922 38.0886 26.9259 38.1413C26.9595 38.1988 26.999 38.2552 27.0397 38.3115C27.1206 38.4246 27.2074 38.5334 27.2997 38.6374C27.3884 38.7452 27.4902 38.8446 27.5849 38.9477C27.6795 39.0507 27.785 39.1454 27.8904 39.2412C28.3101 39.6241 28.7548 39.9788 29.2215 40.3027C30.1584 40.9573 31.1383 41.5481 32.1545 42.0711C32.6569 42.3364 33.1746 42.5716 33.7048 42.7756C34.2201 42.9876 34.7681 43.1092 35.3247 43.135C35.5907 43.1411 35.8549 43.0904 36.0998 42.9865C36.336 42.8785 36.5417 42.7139 36.6989 42.5072C37.026 42.0855 37.1901 41.5368 37.2979 40.9892C37.3951 40.4316 37.4472 39.8671 37.4537 39.3011C37.4597 39.0172 37.4537 38.732 37.4537 38.4469C37.4537 38.1617 37.4321 37.8825 37.3998 37.6022C37.2758 36.4792 36.9117 35.396 36.3323 34.426C35.7453 33.4585 34.9902 32.6036 34.1026 31.9016C33.6604 31.5497 33.194 31.2294 32.7068 30.9431C32.2227 30.6543 31.7163 30.4047 31.1924 30.1967L31.0294 30.1332L31.087 29.9607C31.1734 29.7278 31.2141 29.4805 31.2068 29.2322C31.2078 28.967 31.1909 28.702 31.1564 28.4391C31.0872 27.906 30.9828 27.378 30.8437 26.8588L30.9276 26.8192Z" fill="#3B3341"/>
<path d="M18.8638 38.3641C18.8638 38.3641 22.016 44.9394 27.7058 44.786C27.7058 44.786 30.1164 45.0136 29.1675 40.4512" stroke="#3B3341" stroke-width="0.35" stroke-miterlimit="10"/>
<path d="M3.994 25.0148C3.994 25.0148 1.37014 26.1278 0.59377 28.2868C0.534658 28.4507 0.517178 28.6267 0.5429 28.799C0.568622 28.9713 0.63674 29.1346 0.741137 29.274C1.28148 29.9833 2.61977 31.2689 5.21607 31.2282" stroke="#3B3341" stroke-width="0.439632" stroke-miterlimit="10"/>
<path d="M9.61321 12.884C9.61321 12.884 7.76093 5.66176 13.6952 1.56304C13.6952 1.56304 15.9584 -0.455776 17.3051 3.15293C18.6517 6.76163 17.8861 9.57359 17.8861 9.57359" stroke="#3B3341" stroke-width="0.439632" stroke-miterlimit="10"/>
<path d="M7.74656 16.7718C7.7394 16.6786 7.71239 16.588 7.66733 16.5061C7.62227 16.4242 7.56021 16.3529 7.48531 16.2969C7.41042 16.241 7.32442 16.2017 7.23309 16.1817C7.14176 16.1618 7.04722 16.1616 6.95581 16.1812C6.53647 16.2746 6.04405 16.5981 5.89428 17.5614C5.64747 19.1513 7.86877 18.4037 7.74656 16.7718Z" fill="#605F5F" stroke="#3B3341" stroke-width="0.146544" stroke-miterlimit="10"/>
<path d="M12.7953 18.3881C12.6762 18.2393 12.5183 18.1262 12.3391 18.0611C12.1599 17.996 11.9662 17.9815 11.7793 18.0191C11.3744 18.1006 10.8592 18.4013 10.6663 19.3658C10.3296 21.0491 12.1807 20.9796 12.6096 20.1338C12.9343 19.5012 13.1739 18.871 12.7953 18.3881Z" fill="#605F5F" stroke="#3B3341" stroke-width="0.146544" stroke-miterlimit="10"/>
</svg>
