<svg width="50" height="44" viewBox="0 0 50 44" fill="none" xmlns="http://www.w3.org/2000/svg">
<path d="M19.1352 37.4703V43.0369H1.47649C0.659584 42.7711 0.232346 41.1902 0.232346 41.1902C-0.342409 39.1027 0.371512 34.2388 6.15106 33.7504C5.9952 34.1539 4.82899 37.5245 8.22741 39.3949C11.9724 41.456 15.7563 41.5242 18.1569 36.8705C18.7873 37.2281 19.1352 37.4703 19.1352 37.4703Z" fill="#FAF9F8" stroke="#3A3A3A" stroke-width="0.139166" stroke-miterlimit="10"/>
<path d="M18.157 36.8649C15.7564 41.5186 11.9683 41.4504 8.22749 39.3838C4.82907 37.5134 6.00084 34.1428 6.15114 33.7392C6.43968 33.7142 6.74074 33.7007 7.05432 33.6989C11.9933 33.678 16.2977 35.7947 18.157 36.8649Z" fill="#EC9A6E" stroke="#3A3A3A" stroke-width="0.139166" stroke-miterlimit="10"/>
<path d="M6.16673 33.7046L6.15112 33.7457" stroke="#3A3A3A" stroke-width="0.139166" stroke-miterlimit="10"/>
<path d="M22.7605 27.3795C22.7605 27.3795 17.6113 30.9978 16.6135 38.0744C16.6135 38.0744 16.2934 42.4456 18.4964 43.9013H37.8613C37.8613 43.9013 40.9884 43.6536 41.0232 38.6436C41.058 33.6336 37.2573 27.0594 37.2573 27.0594L22.7605 27.3795Z" fill="#FAF9F8"/>
<path d="M22.716 27.3044C22.4027 27.5324 22.1043 27.7801 21.8225 28.0461C21.0942 28.7151 20.4264 29.4472 19.8269 30.2338C18.9685 31.3538 18.2528 32.5762 17.6963 33.873C17.3688 34.6363 17.0999 35.4235 16.8919 36.2277C16.7109 36.8496 16.5874 37.4869 16.5231 38.1314C16.4745 38.9859 16.5273 39.8431 16.6804 40.6851C16.8891 41.8667 17.3275 43.1511 18.3309 43.8929C18.3731 43.931 18.4231 43.9595 18.4774 43.9763C18.5317 43.9931 18.589 43.9979 18.6454 43.9903H37.661C38.496 43.9903 39.2753 43.4991 39.8125 42.8937C40.6405 41.9613 40.9703 40.6963 41.0733 39.48C41.2125 37.8517 40.9425 36.2193 40.5167 34.6495C39.8417 32.1348 38.7882 29.7008 37.5483 27.4129C37.4759 27.2737 37.4091 27.1471 37.3284 27.0163C37.3208 27.0031 37.3098 26.9922 37.2966 26.9846C37.2834 26.977 37.2684 26.9731 37.2532 26.9731L35.8156 27.0052L32.3462 27.0817L28.1643 27.1735L24.5349 27.2529L23.345 27.2793C23.1585 27.2793 22.9651 27.2793 22.78 27.2918H22.7563C22.7352 27.2945 22.7157 27.3048 22.7016 27.3208C22.6875 27.3369 22.6797 27.3575 22.6797 27.3788C22.6797 27.4002 22.6875 27.4208 22.7016 27.4368C22.7157 27.4528 22.7352 27.4631 22.7563 27.4658L24.1925 27.4338L27.6633 27.3572L31.8452 27.264L35.4733 27.1847L36.6632 27.1582L37.0347 27.1499C37.0989 27.1583 37.164 27.1583 37.2282 27.1499C37.2365 27.1485 37.2449 27.1485 37.2532 27.1499L37.1781 27.1067C38.1391 28.7967 38.9535 30.5659 39.6121 32.395C40.1687 33.8994 40.6224 35.4567 40.8284 37.0501C41.0218 38.542 41.0051 40.1619 40.422 41.5702C40.0852 42.3885 39.5174 43.1191 38.7256 43.5339C38.5121 43.6462 38.2853 43.7312 38.0506 43.7871C37.9922 43.7997 37.9324 43.8136 37.8739 43.8205C37.9031 43.8205 37.8642 43.8205 37.8502 43.8205C36.897 43.8567 35.9339 43.8205 34.9793 43.8205H18.6885C18.6248 43.8289 18.5602 43.8289 18.4965 43.8205C18.4965 43.8205 18.3768 43.7162 18.3476 43.6925C18.291 43.6461 18.2353 43.5974 18.1806 43.5464C18.0636 43.4366 17.9552 43.3179 17.8563 43.1915C17.6691 42.9488 17.5095 42.686 17.3804 42.408C16.8849 41.3629 16.7221 40.1647 16.6845 39.0193C16.6762 38.7229 16.672 38.4237 16.6929 38.1273C16.7624 37.4672 16.8928 36.815 17.0826 36.179C17.4879 34.6615 18.1089 33.2101 18.9265 31.869C19.8896 30.2462 21.132 28.8064 22.5963 27.6161C22.6673 27.5604 22.7355 27.5089 22.8092 27.4547C22.883 27.4004 22.8078 27.2403 22.716 27.3044Z" fill="#3A3A3A"/>
<path d="M22.2275 6.59366C22.2275 6.59366 22.9025 1.33459 26.3134 0.162816C29.7244 -1.00896 30.3646 9.32409 30.3646 9.32409L22.2275 6.59366Z" fill="#FAF9F8" stroke="#3A3A3A" stroke-width="0.139166" stroke-miterlimit="10"/>
<path d="M19.5626 27.9487C19.5626 27.9487 19.2842 32.8195 28.3384 32.9935C36.9054 33.1619 37.0794 28.4456 37.0794 28.4456L19.5626 27.9487Z" fill="#DF437E"/>
<path d="M19.4748 27.9487C19.4428 28.5053 19.6529 29.1093 19.902 29.5964C20.5867 30.931 21.9199 31.7785 23.2935 32.2781C24.5269 32.7016 25.8129 32.9531 27.115 33.0254C28.6326 33.1537 30.1602 33.0976 31.6643 32.8584C33.3816 32.562 35.1866 31.8954 36.2971 30.4829C36.6009 30.1007 36.8384 29.6702 36.9999 29.2095C37.0925 28.9761 37.1479 28.7295 37.1641 28.4789C37.1634 28.4678 37.1634 28.4566 37.1641 28.4455C37.1638 28.4225 37.1544 28.4005 37.138 28.3844C37.1216 28.3682 37.0995 28.3592 37.0765 28.3592L35.3258 28.3091L31.1508 28.1908L26.0754 28.0517L21.7168 27.9278L20.2694 27.8874C20.044 27.8874 19.8088 27.854 19.5833 27.868H19.5541C19.5329 27.8706 19.5135 27.881 19.4994 27.897C19.4853 27.913 19.4775 27.9336 19.4775 27.9549C19.4775 27.9763 19.4853 27.9969 19.4994 28.0129C19.5135 28.0289 19.5329 28.0392 19.5541 28.0419L21.3048 28.092L25.4798 28.2103L30.5552 28.3495L34.9138 28.4733L36.3611 28.5151L36.812 28.5276C36.8899 28.5396 36.9689 28.542 37.0472 28.5346C37.0569 28.5325 37.0668 28.5325 37.0765 28.5346L36.9902 28.4469C36.9788 28.6068 36.9498 28.765 36.9039 28.9187C36.7938 29.3226 36.62 29.7064 36.389 30.0556C35.5122 31.4028 33.9731 32.1431 32.4562 32.5161C31.0923 32.8543 29.6728 32.9336 28.2742 32.9071C26.8704 32.8982 25.473 32.7145 24.1146 32.3602C22.6116 31.9427 21.0738 31.1801 20.2179 29.8149C19.8789 29.2572 19.6833 28.6241 19.6487 27.9723C19.6481 27.9626 19.6481 27.9528 19.6487 27.9431C19.6557 27.8332 19.4831 27.8332 19.4748 27.9487Z" fill="#3A3A3A"/>
<path d="M43.936 21.2687C43.5017 23.28 42.6034 25.1619 41.3127 26.7644C30.8753 31.6922 26.3817 27.2473 24.7854 25.4618C23.0612 23.5343 22.0133 14.1949 30.0445 10.3609C38.0758 6.52691 43.1901 14.1629 43.1901 14.1629C46.2114 10.4667 45.439 4.40186 45.439 4.40186C45.5955 4.47955 45.7275 4.59899 45.8203 4.74699C49.3913 15.1928 43.936 21.2687 43.936 21.2687Z" fill="#EC9A6E" stroke="#3A3A3A" stroke-width="0.139166" stroke-miterlimit="10"/>
<path d="M43.19 14.1629C43.19 14.1629 38.0743 6.52272 30.0444 10.3609C22.0146 14.1991 23.0611 23.5343 24.7854 25.4673C26.3816 27.2528 30.8725 31.6978 41.3127 26.7699C40.4362 27.8525 39.3443 28.7411 38.1062 29.3793C36.8681 30.0176 35.5108 30.3915 34.1206 30.4773C28.9715 30.8099 18.772 30.8002 15.0145 25.999C10.8688 20.7023 13.4392 17.3707 14.565 16.288C14.8568 16.0088 15.0552 15.6461 15.1328 15.2498C15.6978 12.3663 16.4702 11.5021 16.4702 11.5021C18.3893 7.65414 22.4056 4.63981 29.5462 4.88892C33.0824 5.01138 36.2164 6.90264 38.4806 8.78555C42.7948 3.97321 44.7111 4.01774 45.4389 4.4074C45.4389 4.40184 46.2113 10.4667 43.19 14.1629Z" fill="#FAF9F8" stroke="#3A3A3A" stroke-width="0.139166" stroke-miterlimit="10"/>
<path d="M15.8273 17.2176L15.8357 17.1299C15.8468 17.0228 15.8468 17.027 15.8635 16.9226C15.9053 16.6577 15.9667 16.3963 16.0472 16.1405C16.2462 15.5059 16.5913 14.856 17.1911 14.5192C17.5441 14.3326 17.9457 14.2583 18.342 14.3063C18.4242 14.3063 18.5063 14.3285 18.5884 14.3369C18.619 14.3369 18.6218 14.3369 18.5884 14.3369L18.6482 14.348L18.7136 14.3661C18.7331 14.3731 18.811 14.4051 18.7637 14.3842C18.8305 14.4144 18.8943 14.4507 18.9544 14.4927C18.9933 14.5206 18.9544 14.4927 18.9822 14.5136L19.0337 14.5595C19.0715 14.5931 19.1073 14.6289 19.1409 14.6667C19.2144 14.7525 19.2788 14.8458 19.3329 14.945C19.5177 15.3008 19.637 15.6868 19.685 16.0848C19.7734 16.7773 19.7837 17.4775 19.7156 18.1723C19.6975 18.3963 20.0454 18.395 20.0635 18.1723C20.1442 17.1118 20.1749 15.9262 19.7212 14.9353C19.5403 14.5401 19.2397 14.1671 18.8152 14.0265C18.7368 14.0052 18.6567 13.9908 18.5758 13.9834C18.1572 13.9109 17.7272 13.9419 17.3234 14.0739C16.5746 14.3522 16.1015 15.0174 15.819 15.7438C15.6319 16.2156 15.5174 16.713 15.4794 17.219C15.4655 17.4431 15.8134 17.4417 15.8273 17.219V17.2176Z" fill="#3A3A3A"/>
<path d="M26.1965 20.2124C26.3259 19.8502 26.4914 19.502 26.6905 19.1729C27.069 18.5285 27.5659 17.9204 28.2325 17.5572C29.0953 17.0924 30.1028 17.2482 30.9239 17.7325C31.745 18.2168 32.1277 19.049 32.1764 19.9759C32.2251 20.9027 32.008 21.849 31.9315 22.7787C31.9134 23.0013 32.2613 22.9999 32.2794 22.7787C32.3476 21.9019 32.5577 21.0405 32.5327 20.1554C32.5132 19.1812 32.2042 18.2516 31.4124 17.6434C30.5955 17.0172 29.4321 16.718 28.444 17.0868C27.6452 17.3818 27.0315 18.015 26.5708 18.7122C26.2751 19.151 26.0366 19.6257 25.8611 20.1248C25.7887 20.3377 26.1255 20.4282 26.1965 20.2166V20.2124Z" fill="#3A3A3A"/>
<path d="M23.2685 17.2705C23.1733 17.1918 23.0633 17.133 22.945 17.0974C22.8267 17.0618 22.7025 17.0501 22.5797 17.0631C22.2512 17.0924 21.7572 17.3067 22.1747 17.8508C22.762 18.6148 23.9644 17.8773 23.2685 17.2705Z" fill="#EE98BB" stroke="#3A3A3A" stroke-width="0.139166" stroke-miterlimit="10"/>
<path d="M20.1582 19.145C20.6787 19.6543 21.394 19.98 22.0898 19.6223C22.2133 19.5731 22.3228 19.4943 22.4085 19.3927C22.4325 19.3357 22.4489 19.2758 22.4572 19.2146L22.5519 18.836L22.7272 18.1402C22.7537 18.0316 22.588 17.9843 22.5588 18.0929L22.364 18.8778C22.325 19.0322 22.2318 19.2354 22.2527 19.3969C22.3028 19.7851 22.6896 20.0816 23.0278 20.2082C23.5246 20.3933 24.0841 20.3474 24.5948 20.2569C24.7061 20.2388 24.6588 20.0704 24.5489 20.0899C23.9199 20.1985 23.0181 20.2639 22.5755 19.6835C22.5057 19.5848 22.4539 19.4746 22.4224 19.3579C22.4155 19.3398 22.4224 19.3273 22.4224 19.3579C22.4224 19.3885 22.4224 19.337 22.4336 19.3203C22.467 19.1937 22.4976 19.067 22.5282 18.9418L22.7286 18.1416C22.755 18.033 22.5894 17.9857 22.5602 18.0943L22.3807 18.8138L22.2777 19.2313C22.2694 19.2633 22.2624 19.2939 22.2541 19.3259C22.2541 19.3259 22.2972 19.2939 22.2541 19.3148C22.1859 19.3482 22.1246 19.4136 22.0564 19.4539C21.931 19.5235 21.7945 19.5706 21.6529 19.5931C21.1212 19.6849 20.6453 19.3829 20.2807 19.0267C20.2014 18.9487 20.0775 19.0712 20.1582 19.1505V19.145Z" fill="#3A3A3A"/>
<path d="M21.5011 37.3645C21.5793 38.7975 21.7457 40.2243 21.9993 41.6369C22.0765 42.0813 22.1811 42.5205 22.3124 42.952C22.3911 43.2563 22.524 43.5439 22.7049 43.8009C22.7359 43.8529 22.7786 43.8969 22.8295 43.9295C22.8805 43.9621 22.9383 43.9824 22.9985 43.9888C23.1293 43.9888 23.2602 43.9888 23.391 43.9888H33.1326C34.1944 43.9888 35.2604 44.0124 36.3222 43.9888H36.3682C36.3873 43.9884 36.4058 43.982 36.421 43.9705C36.4363 43.959 36.4475 43.943 36.4531 43.9248C36.5753 43.5204 36.6734 43.1091 36.7467 42.6931C36.9437 41.6519 37.055 40.5963 37.0793 39.5369C37.0986 38.7166 37.0684 37.8959 36.9888 37.0792C36.9777 36.9693 36.8038 36.9679 36.8149 37.0792C37.0438 39.2212 36.9025 41.3867 36.3974 43.4808C36.364 43.62 36.3292 43.748 36.2874 43.8802L36.3709 43.8162H23.2142C23.1262 43.8225 23.0378 43.8225 22.9498 43.8162C22.9206 43.8162 22.993 43.8371 22.9623 43.8162C22.9203 43.7845 22.882 43.748 22.8482 43.7077C22.7683 43.6037 22.7019 43.4901 22.6506 43.3695C22.4992 43.0107 22.3835 42.6377 22.3055 42.2562C21.9409 40.6905 21.7892 39.0637 21.6806 37.4619C21.6806 37.4285 21.6806 37.3951 21.6806 37.3631C21.6737 37.2518 21.4997 37.2504 21.5067 37.3631L21.5011 37.3645Z" fill="#3A3A3A"/>
<path d="M24.4847 42.1671V43.9081C24.4874 43.9292 24.4977 43.9487 24.5138 43.9628C24.5298 43.9769 24.5504 43.9847 24.5717 43.9847C24.5931 43.9847 24.6137 43.9769 24.6297 43.9628C24.6457 43.9487 24.656 43.9292 24.6587 43.9081V42.1671C24.656 42.1459 24.6457 42.1265 24.6297 42.1124C24.6137 42.0982 24.5931 42.0905 24.5717 42.0905C24.5504 42.0905 24.5298 42.0982 24.5138 42.1124C24.4977 42.1265 24.4874 42.1459 24.4847 42.1671Z" fill="#3A3A3A"/>
<path d="M27.3279 42.1671V43.9081C27.3306 43.9292 27.3409 43.9487 27.3569 43.9628C27.3729 43.9769 27.3935 43.9847 27.4149 43.9847C27.4362 43.9847 27.4568 43.9769 27.4728 43.9628C27.4888 43.9487 27.4992 43.9292 27.5018 43.9081V42.1671C27.4992 42.1459 27.4888 42.1265 27.4728 42.1124C27.4568 42.0982 27.4362 42.0905 27.4149 42.0905C27.3935 42.0905 27.3729 42.0982 27.3569 42.1124C27.3409 42.1265 27.3306 42.1459 27.3279 42.1671Z" fill="#3A3A3A"/>
<path d="M31.983 42.1671V43.9081C31.9857 43.9292 31.996 43.9487 32.012 43.9628C32.0281 43.9769 32.0487 43.9847 32.07 43.9847C32.0914 43.9847 32.112 43.9769 32.128 43.9628C32.144 43.9487 32.1543 43.9292 32.157 43.9081V42.1671C32.1543 42.1459 32.144 42.1265 32.128 42.1124C32.112 42.0982 32.0914 42.0905 32.07 42.0905C32.0487 42.0905 32.0281 42.0982 32.012 42.1124C31.996 42.1265 31.9857 42.1459 31.983 42.1671Z" fill="#3A3A3A"/>
<path d="M34.328 42.5166V43.9013C34.3307 43.9225 34.341 43.9419 34.357 43.956C34.373 43.9702 34.3936 43.9779 34.415 43.9779C34.4363 43.9779 34.4569 43.9702 34.4729 43.956C34.489 43.9419 34.4993 43.9225 34.502 43.9013V42.5166C34.4993 42.4954 34.489 42.4759 34.4729 42.4618C34.4569 42.4477 34.4363 42.4399 34.415 42.4399C34.3936 42.4399 34.373 42.4477 34.357 42.4618C34.341 42.4759 34.3307 42.4954 34.328 42.5166Z" fill="#3A3A3A"/>
<path d="M29.9735 43.9011L30.0487 39.1458L30.0598 38.4653C30.0571 38.4441 30.0468 38.4247 30.0308 38.4106C30.0148 38.3965 29.9942 38.3887 29.9728 38.3887C29.9515 38.3887 29.9309 38.3965 29.9149 38.4106C29.8988 38.4247 29.8885 38.4441 29.8858 38.4653L29.8107 43.2206L29.7996 43.9011C29.8022 43.9223 29.8126 43.9418 29.8286 43.9559C29.8446 43.97 29.8652 43.9778 29.8865 43.9778C29.9079 43.9778 29.9285 43.97 29.9445 43.9559C29.9605 43.9418 29.9708 43.9223 29.9735 43.9011Z" fill="#3A3A3A"/>
<path d="M26.5681 0.979736L26.6377 4.98631H26.4985L26.5681 0.979736Z" fill="#3A3A3A"/>
<path d="M14.4732 18.1584C13.9165 17.6672 13.3599 17.1843 12.7879 16.7111C12.2138 16.2397 11.615 15.7994 10.9941 15.3918C10.3798 14.9812 9.73599 14.6166 9.068 14.3008C8.40117 13.9873 7.69678 13.7609 6.97217 13.6272L6.99026 13.488C7.73376 13.6041 8.45833 13.8194 9.14454 14.1282L9.65389 14.3676C9.82228 14.4511 9.98371 14.5443 10.1493 14.632C10.3149 14.7197 10.4764 14.8157 10.6364 14.9103C10.7964 15.0049 10.9579 15.101 11.1123 15.2081C11.7382 15.6177 12.3421 16.06 12.9215 16.533C13.508 17.0002 14.0575 17.512 14.565 18.0638L14.4732 18.1584Z" fill="#3A3A3A"/>
<path d="M13.9332 20.0051C13.1773 19.8688 12.4128 19.7846 11.6453 19.7532C10.8774 19.7202 10.1081 19.736 9.34214 19.8005C8.95805 19.8255 8.57813 19.8826 8.19681 19.9397C8.00755 19.9689 7.81967 20.0092 7.63041 20.0426L7.35208 20.0955L7.07375 20.1651L6.51708 20.3043L5.96042 20.4768C5.86857 20.5061 5.77533 20.5325 5.68209 20.5631L5.4135 20.6675L4.8805 20.8749L4.82483 20.7482L5.36479 20.5325L5.64312 20.424C5.73358 20.3919 5.82682 20.3641 5.92145 20.3335L6.47812 20.1554L7.04313 20.0162L7.32146 19.9452L7.59979 19.8896C7.79045 19.8548 7.98111 19.8144 8.17176 19.7838C8.55725 19.7309 8.93996 19.6711 9.32823 19.6446C10.1008 19.5741 10.8774 19.5579 11.6523 19.5959C12.4289 19.6282 13.2018 19.7213 13.9638 19.8743L13.9332 20.0051Z" fill="#3A3A3A"/>
<path d="M38.6045 23.5787C39.484 23.5398 40.3635 23.53 41.2486 23.537C42.1337 23.5439 43.0077 23.576 43.8858 23.6358C44.764 23.6956 45.6407 23.775 46.5119 23.9141C47.3831 24.0533 48.2542 24.2175 49.0586 24.5766C48.8513 24.5056 48.6411 24.4263 48.4365 24.3636C48.232 24.301 48.0107 24.2565 47.7978 24.2078L47.1507 24.0895C46.9349 24.0533 46.7165 24.0282 46.4994 23.9962C45.63 23.8886 44.7561 23.8172 43.8775 23.7819C43.0021 23.7471 42.124 23.7179 41.2473 23.7137C40.3705 23.7095 39.4924 23.7068 38.6156 23.7221L38.6045 23.5787Z" fill="#3A3A3A"/>
<path d="M37.6499 26.646C38.9691 27.4726 40.2801 28.316 41.5966 29.151C42.9131 29.986 44.2213 30.8307 45.528 31.6796C44.1948 30.8725 42.8713 30.05 41.5437 29.2359C40.2161 28.4217 38.8996 27.5951 37.5747 26.7643L37.6499 26.646Z" fill="#3A3A3A"/>
<path d="M26.0379 34.0065C27.3676 34.0065 28.4455 32.9286 28.4455 31.599C28.4455 30.2693 27.3676 29.1914 26.0379 29.1914C24.7083 29.1914 23.6304 30.2693 23.6304 31.599C23.6304 32.9286 24.7083 34.0065 26.0379 34.0065Z" fill="#F4EA60"/>
<path d="M28.3578 31.5989C28.3576 32.077 28.2096 32.5434 27.9342 32.9342C27.6588 33.3251 27.2693 33.6212 26.8191 33.7822C26.3689 33.9432 25.8799 33.9612 25.4191 33.8337C24.9583 33.7061 24.5482 33.4393 24.2448 33.0698C23.9414 32.7002 23.7597 32.246 23.7244 31.7691C23.6891 31.2923 23.8019 30.8162 24.0476 30.406C24.2932 29.9958 24.6596 29.6715 25.0965 29.4775C25.5335 29.2835 26.0198 29.2292 26.4888 29.3222C27.0136 29.4309 27.4853 29.7162 27.8254 30.1305C28.1655 30.5447 28.3534 31.063 28.3578 31.5989C28.3605 31.6201 28.3708 31.6396 28.3868 31.6537C28.4028 31.6678 28.4234 31.6756 28.4448 31.6756C28.4661 31.6756 28.4867 31.6678 28.5028 31.6537C28.5188 31.6396 28.5291 31.6201 28.5318 31.5989C28.5316 31.0854 28.3729 30.5845 28.0774 30.1645C27.7819 29.7446 27.364 29.4261 26.8807 29.2526C26.3975 29.079 25.8724 29.0589 25.3772 29.1949C24.8821 29.331 24.441 29.6165 24.1142 30.0126C23.7875 30.4087 23.5909 30.896 23.5514 31.408C23.512 31.92 23.6315 32.4317 23.8937 32.8732C24.156 33.3147 24.5481 33.6645 25.0165 33.8748C25.485 34.0851 26.0069 34.1457 26.5111 34.0482C27.077 33.9326 27.5861 33.6263 27.9533 33.1806C28.3206 32.7348 28.5238 32.1765 28.529 31.5989C28.5247 31.5794 28.5138 31.562 28.4983 31.5495C28.4827 31.5371 28.4633 31.5303 28.4434 31.5303C28.4234 31.5303 28.4041 31.5371 28.3885 31.5495C28.373 31.562 28.3621 31.5794 28.3578 31.5989Z" fill="#3A3A3A"/>
<path d="M27.4156 37.9309C27.4156 37.9309 29.7954 39.1291 32.0707 37.9309" stroke="#3A3A3A" stroke-width="0.139166" stroke-miterlimit="10"/>
<path d="M26.3398 31.9358C26.3124 31.8307 26.2481 31.739 26.1587 31.6774C26.0693 31.6158 25.9607 31.5885 25.8528 31.6004C25.637 31.6171 25.278 31.72 25.3281 32.0986C25.4046 32.6817 26.454 32.5091 26.3398 31.9358Z" fill="#3A3A3A" stroke="#3A3A3A" stroke-width="0.172565" stroke-miterlimit="10"/>
<path d="M25.7261 32.4562C25.7261 32.4562 25.4478 33.3051 25.6009 33.9995" stroke="#3A3A3A" stroke-width="0.172565" stroke-miterlimit="10"/>
</svg>
