<svg width="40" height="50" viewBox="0 0 40 50" fill="none" xmlns="http://www.w3.org/2000/svg">
<path d="M30.3592 43.7719C29.6781 43.6219 28.8301 43.554 27.7744 43.6191C27.7112 43.2776 27.631 42.9097 27.5358 42.5238C27.6993 42.4176 27.8505 42.2936 27.9867 42.154C28.3971 41.8559 29.0008 41.5135 29.4215 41.7059C29.9989 41.9691 30.5253 42.7578 30.3592 43.7719Z" fill="#209838" stroke="#3A3A3A" stroke-width="0.157541" stroke-miterlimit="10"/>
<path d="M27.9867 42.154C27.8505 42.2936 27.6992 42.4176 27.5357 42.5238C27.2414 41.3507 26.8728 40.1975 26.432 39.0711C26.4811 39.0711 28.3574 39.0258 28.7734 40.0051C29.0932 40.7531 28.5093 41.6361 27.9867 42.154Z" fill="#209838" stroke="#3A3A3A" stroke-width="0.157541" stroke-miterlimit="10"/>
<path d="M26.432 39.0702C26.0268 38.0132 25.5375 36.9905 24.9689 36.0118C25.8085 35.8288 27.3046 35.592 27.7716 36.0882C28.4895 36.8476 28.0518 37.724 26.432 39.0702Z" fill="#209838" stroke="#3A3A3A" stroke-width="0.157541" stroke-miterlimit="10"/>
<path d="M32.8685 45.4349C32.5525 44.8387 31.8837 44.1359 30.4686 43.7973C30.8233 43.2011 31.495 42.4445 32.4497 42.9407C33.4713 43.4727 33.1591 44.7152 32.8685 45.4349Z" fill="#209838" stroke="#3A3A3A" stroke-width="0.157541" stroke-miterlimit="10"/>
<path d="M32.8685 45.4349C32.796 45.6182 32.7115 45.7966 32.6157 45.9689L27.5989 46.2358L26.981 46.2689L26.6084 44.7208L24.6603 36.6287L24.3773 36.157C24.3773 36.157 24.6141 36.09 24.9641 36.0145C25.5327 36.9932 26.022 38.016 26.4272 39.0729C26.868 40.1992 27.2367 41.3525 27.531 42.5256C27.6253 42.9114 27.7064 43.2803 27.7696 43.6208C28.8253 43.5558 29.6733 43.6208 30.3545 43.7737C30.3269 43.9433 30.2826 44.1098 30.2224 44.2708C30.2929 44.1087 30.3735 43.9511 30.4639 43.7991C31.8855 44.1359 32.5525 44.8387 32.8685 45.4349Z" stroke="#3A3A3A" stroke-width="0.157541" stroke-miterlimit="10"/>
<path d="M32.5167 47.3349C30.5092 48.9216 24.6604 49.2037 24.6604 49.2037L24.9594 48.515L26.6084 44.7208L27.0613 43.6831C27.3094 43.6567 27.5471 43.636 27.7744 43.6228C28.8301 43.5577 29.6781 43.6228 30.3592 43.7756C30.396 43.7841 30.4328 43.7916 30.4687 43.8011C31.8837 44.1397 32.5526 44.8388 32.8686 45.4387C32.8988 45.4953 32.9252 45.5501 32.9488 45.6038C33.0785 45.8995 33.1065 46.2299 33.0283 46.5431C32.9501 46.8564 32.7702 47.1349 32.5167 47.3349Z" fill="#90C475" stroke="#3A3A3A" stroke-width="0.188672" stroke-miterlimit="10"/>
<path d="M27.865 45.7284C27.7939 45.9062 27.7048 46.0763 27.5989 46.2359C27.1914 46.8727 26.365 47.7727 24.9575 48.5151C22.902 49.6018 19.6059 50.3537 14.5655 49.4641C5.00358 47.7774 11.9137 34.8807 11.9137 34.8807C11.9137 34.8807 20.27 31.9487 23.0821 33.7968C23.7425 34.2269 24.3774 35.0231 24.9689 36.0118C25.5375 36.9905 26.0268 38.0132 26.432 39.0701C26.8728 40.1965 27.2414 41.3497 27.5357 42.5228C27.6301 42.9087 27.7112 43.2775 27.7744 43.6181C27.9565 44.6039 27.9999 45.3756 27.865 45.7284Z" fill="#90C475" stroke="#3A3A3A" stroke-width="0.188672" stroke-miterlimit="10"/>
<path d="M8.9073 44.6351C8.86391 44.7893 8.86391 44.9525 8.9073 45.1068C9.1205 45.9313 10.2007 49.4462 13.1647 49.5849C16.524 49.7387 16.0976 43.038 14.4911 43.1172C14.4835 43.1172 13.7364 42.8484 13.277 43.7134C13.2642 43.7374 13.2456 43.7578 13.2229 43.7728C13.2002 43.7878 13.1741 43.7968 13.147 43.7992C13.1199 43.8015 13.0927 43.7971 13.0678 43.7862C13.0429 43.7753 13.021 43.7584 13.0043 43.737C12.6855 43.3238 11.9393 42.6757 11.4383 43.0767C10.9667 43.4493 10.9516 43.9889 10.9553 44.303C10.9556 44.3366 10.9474 44.3697 10.9314 44.3993C10.9154 44.4288 10.8922 44.4538 10.864 44.472C10.8357 44.4902 10.8034 44.5009 10.7698 44.5032C10.7363 44.5055 10.7028 44.4993 10.6723 44.4851C10.1422 44.2436 9.13371 43.9059 8.9073 44.6351Z" fill="#90C475" stroke="#3A3A3A" stroke-width="0.188672" stroke-miterlimit="10"/>
<path d="M20.7331 43.2209C20.6208 43.3352 20.5422 43.4781 20.5057 43.6341C20.301 44.4614 19.5803 48.0679 22.1246 49.598C25.0075 51.3281 27.8158 45.2293 26.364 44.536C26.3584 44.5293 25.8282 43.9416 25.0122 44.4841C24.9895 44.499 24.9635 44.5082 24.9365 44.5105C24.9095 44.5129 24.8822 44.5086 24.8573 44.4978C24.8324 44.487 24.8106 44.4702 24.7938 44.4489C24.777 44.4275 24.7658 44.4023 24.7612 44.3756C24.6763 43.8596 24.3273 42.9351 23.6962 43.0492C23.1085 43.1558 22.834 43.6218 22.6896 43.8982C22.6738 43.9276 22.6508 43.9526 22.6228 43.9708C22.5948 43.989 22.5627 44 22.5294 44.0026C22.4961 44.0052 22.4626 43.9995 22.4321 43.9859C22.4016 43.9722 22.375 43.9512 22.3547 43.9247C22.0038 43.4662 21.2784 42.687 20.7331 43.2209Z" fill="#90C475" stroke="#3A3A3A" stroke-width="0.188672" stroke-miterlimit="10"/>
<path d="M11.2524 40.455C11.2524 40.455 15.3202 42.0521 15.8626 40.9975C16.4051 39.9428 15.2023 38.9787 14.5372 38.3759" stroke="#3A3A3A" stroke-width="0.188672" stroke-miterlimit="10"/>
<path d="M21.618 38.3759C21.618 38.3759 19.4181 39.8852 19.9304 41.2059C20.4426 42.5266 24.6613 40.3314 24.6613 40.3314" stroke="#3A3A3A" stroke-width="0.188672" stroke-miterlimit="10"/>
<path d="M15.7891 5.07703C15.7891 5.07703 23.0869 -6.70743 24.8529 5.91191L15.7891 5.07703Z" fill="#209838"/>
<path d="M15.7891 5.07703C15.7891 5.07703 23.0869 -6.70743 24.8529 5.91191" stroke="#3A3A3A" stroke-width="0.157541" stroke-miterlimit="10"/>
<path d="M34.3685 13.2353C32.9902 10.9948 31.0299 9.08452 28.6715 7.66948C28.747 7.64118 39.4475 3.87623 34.3685 13.2353Z" fill="#209838" stroke="#3A3A3A" stroke-width="0.157541" stroke-miterlimit="10"/>
<path d="M36.2581 23.9131C36.7343 21.6458 36.6606 19.2973 36.043 17.0643C36.043 17.0643 44.4474 20.4585 36.2581 23.9131Z" fill="#209838" stroke="#3A3A3A" stroke-width="0.157541" stroke-miterlimit="10"/>
<path d="M31.3196 32.3204C33.033 30.7814 34.4013 28.8971 35.3345 26.7914C35.4336 26.9018 42.688 35.4033 31.3196 32.3204Z" fill="#209838" stroke="#3A3A3A" stroke-width="0.157541" stroke-miterlimit="10"/>
<path d="M36.2581 23.9132C36.0499 24.9018 35.7405 25.8662 35.3345 26.7914C34.4013 28.897 33.033 30.7813 31.3196 32.3204C28.1584 35.191 23.8104 37.0447 18.954 37.2306C8.88551 37.6174 0.448092 30.6969 0.104708 21.7727C-0.215091 13.4249 6.66106 6.28081 15.79 5.07519C16.4189 4.99218 17.0588 4.93809 17.7097 4.91294C20.1312 4.81409 22.5508 5.15153 24.8528 5.90913C26.1869 6.35045 27.4677 6.93896 28.6716 7.66378C31.03 9.08636 32.9903 10.9929 34.3685 13.2296C35.1041 14.4208 35.6678 15.7099 36.043 17.0587C36.6606 19.2917 36.7343 21.6402 36.2581 23.9075V23.9132Z" fill="#90C475" stroke="#3A3A3A" stroke-width="0.188672" stroke-miterlimit="10"/>
<path d="M26.6651 26.163C27.9712 26.163 29.0301 25.3715 29.0301 24.3952C29.0301 23.4188 27.9712 22.6273 26.6651 22.6273C25.3589 22.6273 24.3 23.4188 24.3 24.3952C24.3 25.3715 25.3589 26.163 26.6651 26.163Z" fill="#EE98BB"/>
<path d="M4.24696 26.163C5.55312 26.163 6.61197 25.3715 6.61197 24.3952C6.61197 23.4188 5.55312 22.6273 4.24696 22.6273C2.94081 22.6273 1.88196 23.4188 1.88196 24.3952C1.88196 25.3715 2.94081 26.163 4.24696 26.163Z" fill="#EE98BB"/>
<path d="M11.3741 24.015C11.8534 24.2546 12.356 24.4443 12.874 24.581C13.9674 24.8876 15.1249 25.0065 16.2503 24.8225C17.0122 24.6995 17.7417 24.4249 18.3955 24.015C18.5229 23.9348 18.405 23.732 18.2757 23.8112C17.1871 24.4971 15.9098 24.7461 14.6362 24.6603C13.7215 24.5894 12.8233 24.3765 11.9741 24.0292C11.8133 23.9663 11.6558 23.8951 11.5024 23.816C11.3684 23.7462 11.2486 23.9499 11.3835 24.0197L11.3741 24.015Z" fill="#3A3A3A"/>
<path d="M36.2593 23.9132H36.2572" stroke="#3A3A3A" stroke-width="0.157541" stroke-miterlimit="10"/>
<path d="M6.20636 24.7877C7.78188 24.7877 9.05908 23.5105 9.05908 21.935C9.05908 20.3595 7.78188 19.0823 6.20636 19.0823C4.63085 19.0823 3.35364 20.3595 3.35364 21.935C3.35364 23.5105 4.63085 24.7877 6.20636 24.7877Z" fill="#010101"/>
<path d="M24.301 24.7877C25.8765 24.7877 27.1537 23.5105 27.1537 21.935C27.1537 20.3595 25.8765 19.0823 24.301 19.0823C22.7254 19.0823 21.4482 20.3595 21.4482 21.935C21.4482 23.5105 22.7254 24.7877 24.301 24.7877Z" fill="#010101"/>
</svg>
