<svg width="51" height="47" viewBox="0 0 51 47" fill="none" xmlns="http://www.w3.org/2000/svg">
<path d="M37.4119 41.5637C37.4119 41.5637 40.9927 38.5435 41.8155 36.5308C42.6384 34.5181 45.7712 33.0997 46.741 36.5308C47.7107 39.962 43.0096 47.2631 37.4119 44.8773V41.5637Z" fill="#CFB38B" stroke="#3A3A3A" stroke-width="0.120504" stroke-miterlimit="10"/>
<path d="M16.7104 26.3125C16.7104 26.3125 14.7227 39.7328 15.2489 42.4916C15.2489 42.4916 13.5323 43.8706 14.2418 45.4365H38.4942C38.4942 45.4365 41.8711 42.3054 36.3296 34.8123C30.7881 27.3192 27.0385 25.6416 27.0385 25.6416L16.7104 26.3125Z" fill="#FAF9F8"/>
<mask id="mask0_1136_111" style="mask-type:luminance" maskUnits="userSpaceOnUse" x="14" y="25" width="26" height="21">
<path d="M16.7104 26.3125C16.7104 26.3125 14.7227 39.7328 15.2489 42.4916C15.2489 42.4916 13.5323 43.8706 14.2418 45.4365H38.4942C38.4942 45.4365 41.8711 42.3054 36.3296 34.8123C30.7881 27.3192 27.0385 25.6416 27.0385 25.6416L16.7104 26.3125Z" fill="white"/>
</mask>
<g mask="url(#mask0_1136_111)">
<path d="M29.7066 29.9715C29.5144 30.2636 29.3931 30.6045 29.2864 30.9352C29.2754 30.9718 29.2668 31.0091 29.2608 31.0469L29.2024 31.4849C29.1805 31.6382 29.1593 31.7923 29.1403 31.9463C29.1403 31.9677 29.1388 31.9889 29.1359 32.0098C29.1286 32.3668 29.2024 32.7318 29.2718 33.0771C29.2892 33.1575 29.3136 33.2361 29.3449 33.3122C29.4603 33.5998 29.5765 33.8962 29.7103 34.1751C29.7271 34.2094 29.7453 34.2437 29.7643 34.278C29.8087 34.3557 29.8575 34.4308 29.9105 34.5029C30.1626 34.8665 30.4369 35.2141 30.7319 35.5439C31.2639 36.1279 31.7864 36.7171 32.2907 37.3237C32.5737 37.6644 32.8507 38.0092 33.1215 38.3582L32.61 37.6931C32.9023 38.0698 33.1854 38.4529 33.4592 38.8422C33.693 39.1736 33.9298 39.4992 34.0913 39.8774L33.7595 39.0926C33.8378 39.2718 33.8931 39.4602 33.9239 39.6533L33.8063 38.7772C33.8233 38.8933 33.8251 39.0111 33.8114 39.1277L33.9291 38.2516C33.9172 38.3323 33.8956 38.4112 33.8647 38.4867L34.1965 37.7019C34.1691 37.7627 34.1351 37.8202 34.0949 37.8735L34.6065 37.2084C34.5614 37.2648 34.5097 37.3156 34.4523 37.3595L35.118 36.8485C35.057 36.892 34.9913 36.9287 34.9222 36.958L35.7078 36.6266C35.611 36.6637 35.5102 36.6894 35.4074 36.7032L36.2844 36.5857C36.0657 36.6067 35.8456 36.6082 35.6267 36.59L34.8338 36.5492L34.0803 36.509C33.9524 36.5024 33.8253 36.4944 33.6974 36.4893C33.3057 36.4732 32.9016 36.5462 32.5282 36.6207C32.1603 36.6938 31.8118 36.843 31.5051 37.0587C30.9131 37.477 30.5339 37.8005 30.159 38.44C30.1105 38.5259 30.0666 38.6144 30.0274 38.705C29.8706 39.0495 29.7229 39.3987 29.5846 39.7526C29.5066 39.9489 29.4469 40.152 29.4063 40.3592C29.3357 40.7302 29.2854 41.1048 29.2557 41.4813C29.2462 41.5847 29.2462 41.6888 29.2557 41.7923C29.2923 42.1449 29.3142 42.553 29.4209 42.9107C29.5267 43.2682 29.6723 43.6128 29.855 43.9379C30.2569 44.6467 30.7728 45.0716 31.4261 45.5308C31.6097 45.6517 31.8005 45.7612 31.9976 45.8586L32.7021 46.236C33.6277 46.731 34.5514 47.2257 35.4732 47.7202C36.1119 48.0611 36.7155 48.2772 37.4463 48.2655L37.8848 48.2071C38.0417 48.1942 38.1978 48.1727 38.3525 48.1429C38.6531 48.0602 38.9411 47.9374 39.2089 47.7779L39.2294 47.764L39.8951 47.253C39.9213 47.2305 39.9457 47.2061 39.9682 47.18C40.2547 46.8478 40.4695 46.6003 40.6259 46.2309C40.7823 45.8615 40.9599 45.4877 41.0841 45.1059C41.167 44.8533 41.2274 44.5939 41.2646 44.3306C41.3421 43.7758 41.4407 43.2275 41.4144 42.6669C41.3782 41.8032 41.037 40.9802 40.4513 40.3439C40.1639 40.0308 39.8004 39.7972 39.396 39.6657C39.0064 39.4604 38.5689 39.3628 38.1288 39.3832L37.2519 39.5C36.7029 39.6512 36.2027 39.9425 35.8006 40.3454L35.289 41.0097C34.994 41.5127 34.8391 42.0854 34.8403 42.6683C34.8528 42.9323 34.8418 43.1969 34.8075 43.459L34.9251 42.5829C34.8728 42.9653 34.7711 43.3393 34.6226 43.6955L34.9543 42.9107C34.9164 43.0103 34.8674 43.1053 34.8082 43.194L35.3197 42.5296C35.2978 42.5563 35.2733 42.5807 35.2467 42.6026L35.9124 42.0916C35.8915 42.1061 35.8692 42.1186 35.8459 42.1288L36.6315 41.7974C36.6137 41.8045 36.595 41.8092 36.5759 41.8113L37.4529 41.6937C37.4325 41.6963 37.4119 41.6963 37.3915 41.6937L38.2684 41.8113C38.2267 41.8048 38.1857 41.7938 38.1464 41.7784L38.9261 42.1099C38.6389 41.9857 38.3649 41.8178 38.0894 41.6674L37.2241 41.2039L35.5265 40.295C35.2393 40.1409 34.9353 40.003 34.6752 39.8022L35.3409 40.3132C35.2558 40.2468 35.1788 40.1706 35.1115 40.0862L35.623 40.7513C35.5646 40.6728 35.5155 40.5878 35.4768 40.4979L35.8079 41.2827C35.7652 41.177 35.7358 41.0664 35.7202 40.9535L35.8379 41.8295C35.8195 41.6671 35.8219 41.5029 35.8452 41.3411L35.7275 42.2172C35.7749 41.9239 35.8594 41.6379 35.9789 41.3659L35.6508 42.1478C35.7167 41.9718 35.8035 41.8044 35.9095 41.6492L35.3979 42.3135C35.4271 42.2779 35.4593 42.2449 35.4944 42.215L34.8286 42.726C34.8667 42.6967 34.9081 42.6722 34.9521 42.653L34.1666 42.9844C34.2216 42.9643 34.2787 42.9504 34.3368 42.9428L33.4599 43.0604C33.6675 43.0492 33.8757 43.0541 34.0825 43.075L34.7643 43.1115C35.1809 43.1334 35.6011 43.175 36.0184 43.1706C36.1058 43.1691 36.1931 43.1633 36.28 43.1531C36.5255 43.1239 37.0699 43.0939 37.4024 42.9793C37.6964 42.8724 37.9847 42.7505 38.2662 42.6143C38.3089 42.5951 38.3502 42.5729 38.3897 42.5479C38.6456 42.3749 38.8909 42.1867 39.1242 41.9843C39.1579 41.9567 39.1897 41.9266 39.2192 41.8945C39.2316 41.8806 39.244 41.8653 39.2557 41.8507C39.4172 41.6565 39.6386 41.3732 39.7841 41.1681C39.8031 41.1404 39.8213 41.1126 39.8381 41.0834C40.0078 40.7827 40.1431 40.4638 40.2415 40.1329C40.338 39.7942 40.3592 39.4292 40.3877 39.0839C40.395 39.0064 40.395 38.9284 40.3877 38.851C40.3482 38.4297 40.3146 37.9552 40.1684 37.5369C40.0288 37.1228 39.8578 36.7198 39.6569 36.3316C39.4711 36.0014 39.2628 35.6843 39.0335 35.3826C38.3846 34.4715 37.6948 33.5867 36.9808 32.7252C36.6802 32.3631 36.374 32.0057 36.0622 31.6528C35.7575 31.3068 35.4242 30.9783 35.1421 30.614L35.6537 31.2783C35.5325 31.1238 35.4307 30.9552 35.3504 30.776L35.688 31.5623C35.6493 31.4702 35.6213 31.3739 35.6047 31.2754L35.7224 32.1514C35.7125 32.0748 35.7125 31.9973 35.7224 31.9207L35.6047 32.7968C35.6149 32.7375 35.6313 32.6795 35.6537 32.6238L35.3227 33.4086C35.341 33.3674 35.3628 33.3278 35.3877 33.2903C35.6244 32.9252 35.7591 32.5035 35.7779 32.0689C35.8552 31.6409 35.8369 31.2011 35.7242 30.7809C35.6115 30.3608 35.4073 29.9707 35.1261 29.6386C34.8953 29.2829 34.5777 28.9917 34.2031 28.7925L33.4175 28.4618C32.8452 28.3049 32.2411 28.3049 31.6688 28.4618L30.8876 28.7925C30.4001 29.0786 29.9941 29.4844 29.7081 29.9715H29.7066Z" fill="#CFB38C"/>
<path d="M11.3341 30.5023L11.0732 31.3856C10.9364 31.8092 10.916 32.2618 11.014 32.696C11.0336 33.1305 11.1683 33.5519 11.4042 33.9174C11.6038 34.2917 11.8959 34.6088 12.2527 34.8387C12.5683 35.1282 12.9539 35.331 13.3715 35.4271L14.2484 35.5446C14.8313 35.5449 15.4036 35.3899 15.9066 35.0956L16.5723 34.5846C16.975 34.1826 17.2664 33.683 17.4178 33.1348L17.6794 32.2507C17.8156 31.8272 17.8358 31.375 17.7379 30.941C17.7191 30.5064 17.5843 30.0848 17.3477 29.7197C17.1485 29.3453 16.857 29.0279 16.5007 28.7976C16.1852 28.5084 15.7999 28.3059 15.3826 28.2099L14.5057 28.0924C13.922 28.0914 13.3488 28.2464 12.8453 28.5414L12.1803 29.0524C11.7773 29.4543 11.4857 29.9539 11.3341 30.5023Z" fill="#CFB38C"/>
<path d="M30.3029 45.3797H31.2734C31.3219 45.3797 31.3683 45.3604 31.4026 45.3262C31.4369 45.292 31.4561 45.2456 31.4561 45.1972C31.4561 45.1488 31.4369 45.1023 31.4026 45.0681C31.3683 45.0339 31.3219 45.0146 31.2734 45.0146H30.3029C30.2545 45.0146 30.208 45.0339 30.1737 45.0681C30.1395 45.1023 30.1202 45.1488 30.1202 45.1972C30.1202 45.2456 30.1395 45.292 30.1737 45.3262C30.208 45.3604 30.2545 45.3797 30.3029 45.3797Z" fill="#CFB38C"/>
<path d="M30.8217 45.2023C30.8241 45.2322 30.8191 45.2622 30.8071 45.2897C30.7951 45.3172 30.7765 45.3413 30.753 45.36C30.6799 45.4374 30.6003 45.506 30.5235 45.579L30.0383 46.036L29.0693 46.9514C28.8983 47.1128 29.157 47.3705 29.328 47.2092L30.3759 46.2207L30.8875 45.7389C31.0336 45.598 31.217 45.4286 31.1885 45.2023C31.1871 45.1543 31.1674 45.1088 31.1334 45.0749C31.0995 45.0409 31.0538 45.0212 31.0058 45.0198C30.9574 45.02 30.9111 45.0393 30.8769 45.0734C30.8426 45.1076 30.8233 45.1539 30.8231 45.2023H30.8217Z" fill="#CFB38C"/>
<path d="M33.4248 45.0525C33.8582 45.4511 34.3127 45.8358 34.7205 46.2622C35.045 46.6024 35.3475 47.0119 35.3358 47.5032C35.33 47.7383 35.6954 47.7383 35.7012 47.5032C35.7144 46.9448 35.4038 46.4644 35.0384 46.068C34.8447 45.8577 34.6313 45.6665 34.4216 45.4737L33.6828 44.7941C33.5103 44.6357 33.2516 44.8926 33.4248 45.0525Z" fill="#CFB38C"/>
</g>
<path d="M16.7104 26.3125C16.7104 26.3125 14.7227 39.7328 15.2489 42.4916C15.2489 42.4916 13.5323 43.8706 14.2418 45.4365H38.4942C38.4942 45.4365 41.8711 42.3054 36.3296 34.8123C30.7881 27.3192 27.0385 25.6416 27.0385 25.6416L16.7104 26.3125Z" stroke="#3A3A3A" stroke-width="0.120504" stroke-miterlimit="10"/>
<path d="M7.13715 18.9713C6.21125 12.4148 10.5791 6.85266 10.5791 6.85266" stroke="#AE3D8F" stroke-width="0.120504" stroke-miterlimit="10"/>
<path d="M15.7312 27.0958C15.7312 27.0958 15.3585 29.4816 16.4401 30.3014C17.5216 31.1212 24.9485 35.2226 33.3072 29.556C33.3072 29.556 33.7552 27.658 32.9345 26.8717L15.7312 27.0958Z" fill="#DF437E" stroke="#3A3A3A" stroke-width="0.120504" stroke-miterlimit="10"/>
<path d="M29.5135 29.0232C26.8681 29.2874 24.2746 29.1655 22.3365 29.1086C20.3832 29.0509 18.1711 28.7516 16.0518 28.104C15.8903 27.9989 15.5118 20.692 20.3737 13.6121C21.2564 12.3265 23.2084 12.4397 24.0641 13.7435C25.343 15.6942 26.5612 20.1138 29.5135 29.0232Z" fill="#FAF9F8" stroke="#3A3A3A" stroke-width="0.120504" stroke-miterlimit="10"/>
<path d="M44.3338 21.1679C43.1555 21.0024 42.0442 20.5208 41.1184 19.7742C40.009 26.5329 34.6641 28.5084 29.5172 29.0231C26.5649 20.1166 25.3467 15.6941 24.0656 13.7434C23.2099 12.4396 21.258 12.3264 20.3752 13.612C15.5133 20.6934 15.8919 27.9988 16.0534 28.104C11.9734 26.8629 8.22527 24.3311 7.28402 19.7699C7.22508 19.5036 7.17611 19.2374 7.13714 18.9712C7.11668 19.0267 6.43413 20.8321 3.86179 20.7963C1.25291 20.7576 1.02856 17.8134 1.32745 16.3219C1.62634 14.8304 1.06583 11.5876 1.06583 11.5876C0.84221 9.20186 1.92449 7.12344 1.92449 7.12344C4.42449 3.77769 12.2606 5.10124 12.2606 5.10124C12.2606 5.10124 16.8134 1.03786 23.8661 0.664814C30.9189 0.291766 37.4162 5.31514 37.4162 5.31514C39.3645 4.31719 43.69 4.33179 44.9403 4.36026C45.3117 4.36524 45.6811 4.41575 46.0401 4.51064C52.6954 6.32478 50.1968 22.0045 44.3338 21.1679Z" fill="#CFB38B" stroke="#3A3A3A" stroke-width="0.120504" stroke-miterlimit="10"/>
<path d="M8.81001 8.74922C8.29116 9.45955 7.94111 10.2772 7.68972 11.1211C7.56376 11.5418 7.46057 11.969 7.38061 12.4009C7.29876 12.8323 7.23445 13.2674 7.18622 13.704C7.09162 14.5783 7.04551 15.4571 7.0481 16.3365C7.0481 17.2125 7.08172 18.0951 7.15772 18.9712V18.9792L7.15187 18.9851L7.15699 18.9726H7.12264V18.9661L7.12776 18.961L7.12337 18.9748C7.06929 18.5368 7.03495 18.0988 7.01083 17.6608C6.98672 17.2227 6.97722 16.7796 6.97575 16.3394C6.974 15.4574 7.0228 14.576 7.12191 13.6996C7.17014 13.2616 7.2381 12.8236 7.32141 12.3928C7.40326 11.9592 7.5084 11.5303 7.63638 11.108C7.69703 10.8955 7.77303 10.6882 7.84684 10.4801L7.97034 10.1728C8.01127 10.0706 8.06096 9.97203 8.10627 9.87129C8.29324 9.47076 8.51994 9.08996 8.78297 8.73462L8.81001 8.74922Z" fill="#3A3A3A"/>
<path d="M37.1138 11.6621C37.1138 11.6621 37.7466 17.0899 41.1148 19.7743" stroke="#3A3A3A" stroke-width="0.120504" stroke-miterlimit="10"/>
<path d="M10.3073 18.6208C10.4659 18.39 10.6524 18.1796 10.8626 17.9944C11.0738 17.8061 11.304 17.6402 11.5496 17.4995C12.0564 17.2009 12.634 17.0433 13.2223 17.0432C13.3718 17.0465 13.5208 17.0611 13.6681 17.087C13.7054 17.0936 13.7412 17.0994 13.7785 17.1067L13.8866 17.1359C13.9592 17.1529 14.0307 17.1744 14.1007 17.2002C14.3787 17.2982 14.64 17.4383 14.8753 17.6156C15.3281 17.959 15.6909 18.4069 15.9328 18.9209L15.9028 18.9428C15.4892 18.5777 15.0749 18.2434 14.6276 18.0003C14.1942 17.7588 13.7089 17.6253 13.2128 17.6112C12.7095 17.6118 12.2112 17.711 11.7462 17.9032C11.2519 18.1026 10.7787 18.3506 10.3336 18.6435L10.3073 18.6208Z" fill="#3A3A3A"/>
<path d="M28.1106 18.7595C28.2473 18.5137 28.4145 18.2861 28.6083 18.0821C28.8027 17.8736 29.019 17.6866 29.2535 17.5243C29.7382 17.1782 30.3077 16.9696 30.9014 16.9206C31.0536 16.9111 31.2063 16.9133 31.3582 16.9271C31.3962 16.9308 31.4313 16.933 31.4722 16.9381L31.5847 16.9578C31.6588 16.9692 31.7321 16.9855 31.804 17.0067C32.0942 17.0835 32.3701 17.2068 32.621 17.3717L32.8015 17.498C32.8607 17.5418 32.9133 17.5922 32.9688 17.6389C33.0778 17.7333 33.1796 17.8355 33.2735 17.9448C33.3215 17.9975 33.3662 18.0531 33.4073 18.1113C33.4504 18.1682 33.4913 18.2259 33.5322 18.2828C33.6074 18.4026 33.6764 18.5262 33.7391 18.653L33.7113 18.677C33.5892 18.604 33.4752 18.5274 33.3634 18.4515C33.2516 18.3755 33.1369 18.3055 33.0229 18.239C32.9089 18.1726 32.7993 18.1032 32.6831 18.0485C32.6261 18.0193 32.5698 17.9879 32.5128 17.9609L32.3411 17.8842C31.9001 17.6846 31.4198 17.587 30.9358 17.5988C30.4401 17.6287 29.9549 17.7544 29.5071 17.9689C29.0258 18.1973 28.5675 18.4711 28.1384 18.7865L28.1106 18.7595Z" fill="#3A3A3A"/>
<path d="M19.4552 17.7746C20.0625 17.3315 21.5474 16.5336 23.1887 17.7746C23.3099 17.8661 23.3906 18.001 23.414 18.1509C23.4373 18.3008 23.4013 18.4538 23.3137 18.5777C22.6662 19.4683 21.0315 21.1416 19.3426 18.3265C19.2891 18.2371 19.2709 18.1309 19.2917 18.0288C19.3126 17.9267 19.3709 17.836 19.4552 17.7746Z" fill="#3A3A3A"/>
<path d="M24.7154 22.8367C24.6036 25.5575 24.5897 26.5197 21.6089 26.508C18.4088 26.4956 19.0899 22.8578 19.0899 22.8578C19.6234 22.8578 20.2555 22.7425 20.9936 22.4366C20.9936 22.4366 22.1409 21.9986 23.1479 22.4366C23.6455 22.6532 24.1748 22.7883 24.7154 22.8367Z" fill="#EE98BB"/>
<path d="M24.6694 22.8368C24.6489 23.3347 24.6343 23.8347 24.5831 24.3304C24.5459 24.6955 24.491 25.0648 24.3463 25.4014C24.2309 25.6798 24.032 25.9157 23.7771 26.0767C23.4482 26.2804 23.0543 26.3643 22.6751 26.4103C22.412 26.4406 22.1476 26.4574 21.8829 26.4607C21.6057 26.4721 21.3281 26.4581 21.0535 26.4191C20.6384 26.3604 20.2475 26.1886 19.9237 25.9226C19.4004 25.4737 19.1673 24.7904 19.0986 24.1224C19.0721 23.8533 19.0674 23.5826 19.0847 23.3128C19.0906 23.2179 19.0986 23.1237 19.1096 23.0302C19.1217 22.9825 19.1285 22.9335 19.1301 22.8842C19.1294 22.8779 19.1294 22.8716 19.1301 22.8653L19.0862 22.8988C19.4704 22.895 19.8526 22.842 20.2233 22.7411C20.4536 22.6797 20.6801 22.6047 20.9015 22.5163C20.9694 22.4893 21.0345 22.463 21.1039 22.4433C21.3836 22.3569 21.6731 22.3057 21.9655 22.2907C22.1745 22.2783 22.3842 22.2886 22.591 22.3214C22.8055 22.3596 23.0147 22.4228 23.2144 22.5097C23.6923 22.7111 24.1987 22.8367 24.7154 22.882C24.7739 22.8864 24.7731 22.7952 24.7154 22.7908C24.2414 22.7484 23.7761 22.6373 23.3342 22.4608C23.1314 22.3711 22.9211 22.2992 22.7058 22.2462C22.5076 22.2064 22.3057 22.1881 22.1036 22.1914C21.7887 22.196 21.4757 22.2416 21.1726 22.3272C20.9197 22.4002 20.6822 22.5105 20.4316 22.5878C19.9978 22.7275 19.5455 22.8013 19.0899 22.8068C19.0799 22.8069 19.0702 22.8101 19.0622 22.816C19.0542 22.8219 19.0482 22.8302 19.0453 22.8397C18.9832 23.2029 18.9656 23.5724 18.9927 23.9399C19.035 24.6159 19.2214 25.3174 19.6927 25.8248C20.3753 26.5607 21.4108 26.595 22.3462 26.53C23.0697 26.4804 23.9006 26.3329 24.3113 25.6649C24.494 25.3678 24.5773 25.0196 24.6299 24.6794C24.6936 24.2092 24.7314 23.736 24.7432 23.2617L24.7607 22.8346C24.7629 22.7784 24.6715 22.7784 24.6694 22.8368Z" fill="#3A3A3A"/>
<path d="M24.7154 22.8828C25.0808 22.909 25.4681 22.8864 25.8115 22.7433C26.1386 22.6098 26.4008 22.3542 26.5423 22.0308C26.5657 21.9775 26.4868 21.9308 26.4634 21.9841C26.3955 22.1413 26.2966 22.2833 26.1727 22.4017C26.0488 22.5201 25.9024 22.6124 25.7421 22.6732C25.4115 22.7878 25.0597 22.8282 24.7117 22.7915C24.6525 22.7871 24.6533 22.8784 24.7117 22.8828H24.7154Z" fill="#3A3A3A"/>
<path d="M19.0898 22.8104C18.2976 22.806 17.5245 22.4644 17.0436 21.8249C17.0092 21.7814 16.9779 21.7355 16.9501 21.6876C16.9432 21.6806 16.9341 21.6761 16.9244 21.6749C16.9146 21.6737 16.9047 21.6757 16.8963 21.6808C16.8879 21.6859 16.8814 21.6936 16.8779 21.7028C16.8744 21.7119 16.8741 21.722 16.877 21.7314C16.9669 21.8794 17.076 22.0149 17.2015 22.1344C17.4821 22.4139 17.8227 22.6258 18.1975 22.7542C18.4862 22.8504 18.7884 22.8997 19.0927 22.9002C19.1043 22.9002 19.1155 22.8956 19.1237 22.8874C19.1319 22.8792 19.1366 22.868 19.1366 22.8564C19.1366 22.8448 19.1319 22.8336 19.1237 22.8254C19.1155 22.8172 19.1043 22.8126 19.0927 22.8126L19.0898 22.8104Z" fill="#3A3A3A"/>
<path d="M21.7461 22.244C21.5301 22.7958 21.5316 23.4089 21.7505 23.9596C21.7739 24.0129 21.8528 23.9669 21.8294 23.9136C21.6138 23.4091 21.6343 22.7777 21.8345 22.2688C21.8557 22.2141 21.7673 22.19 21.7461 22.244Z" fill="#3A3A3A"/>
<path d="M38.4808 45.3993L38.4578 45.3802L38.4219 45.4235L38.445 45.4426L38.4808 45.3993Z" fill="#FAF9F8" stroke="#3A3A3A" stroke-width="0.120504" stroke-miterlimit="10"/>
<path d="M22.7343 35.5394C22.7343 35.5394 21.6644 42.1565 21.6067 43.0135C21.6067 43.0135 19.5356 44.0203 20.0581 45.7723L28.4913 46.2943L30.3914 36.9002" fill="#FAF9F8"/>
<path d="M22.7343 35.5394C22.7343 35.5394 21.6644 42.1565 21.6067 43.0135C21.6067 43.0135 19.5356 44.0203 20.0581 45.7723L28.4913 46.2943L30.3914 36.9002" stroke="#3A3A3A" stroke-width="0.120504" stroke-miterlimit="10"/>
<path d="M19.6124 36.4899C19.6124 36.4899 20.7985 39.2589 22.0715 39.7378Z" fill="#FAF9F8"/>
<path d="M19.6124 36.4899C19.6124 36.4899 20.7985 39.2589 22.0715 39.7378" stroke="#3A3A3A" stroke-width="0.120504" stroke-miterlimit="10"/>
<path d="M35.2386 38.4749C33.1193 37.1491 31.2792 38.6289 30.3321 39.6846C29.8727 40.1955 29.5792 40.8337 29.4903 41.5148C29.3675 42.4594 29.3068 43.8509 29.8703 44.4626" fill="#CFB38C"/>
<path d="M35.2386 38.4749C33.1193 37.1491 31.2792 38.6289 30.3321 39.6846C29.8727 40.1955 29.5792 40.8337 29.4903 41.5148C29.3675 42.4594 29.3068 43.8509 29.8703 44.4626" stroke="#3A3A3A" stroke-width="0.120504" stroke-miterlimit="10"/>
<path d="M33.2516 44.1787C30.5083 42.7244 28.5929 45.803 28.5929 45.803Z" fill="#CFB38C"/>
<mask id="mask1_1136_111" style="mask-type:luminance" maskUnits="userSpaceOnUse" x="28" y="43" width="6" height="3">
<path d="M33.2516 44.1787C30.5083 42.7244 28.5929 45.803 28.5929 45.803Z" fill="white"/>
</mask>
<g mask="url(#mask1_1136_111)">
<path d="M29.4092 44.9633C29.882 44.9421 30.3592 44.9239 30.8108 45.0933C31.0301 45.1757 31.2384 45.2772 31.4612 45.3473C31.6956 45.4192 31.9361 45.4695 32.1796 45.4977C32.228 45.4975 32.2743 45.4782 32.3086 45.444C32.3428 45.4098 32.3621 45.3635 32.3623 45.3152C32.3614 45.2671 32.3418 45.2212 32.3077 45.1872C32.2737 45.1531 32.2278 45.1336 32.1796 45.1327C31.9523 45.1034 31.7284 45.0523 31.5109 44.9801C31.2829 44.9071 31.0725 44.7961 30.843 44.718C30.3841 44.5596 29.8879 44.5771 29.4092 44.5983C29.1754 44.6085 29.1739 44.9735 29.4092 44.9633Z" fill="#FBFAF9"/>
<path d="M29.597 44.8955C29.341 44.931 29.0985 45.0315 28.8926 45.1875C28.8553 45.2105 28.8275 45.2461 28.8142 45.2877C28.8009 45.3294 28.8029 45.3744 28.82 45.4147C28.837 45.455 28.8679 45.4879 28.9071 45.5074C28.9463 45.5269 28.9911 45.5318 29.0336 45.5212C29.2825 45.4819 29.5234 45.4025 29.7468 45.2861C29.7741 45.2697 29.7966 45.2466 29.8123 45.219C29.8279 45.1914 29.8361 45.1602 29.8361 45.1284C29.8361 45.0967 29.8279 45.0655 29.8123 45.0378C29.7966 45.0102 29.7741 44.9871 29.7468 44.9707C29.4976 44.8495 29.2901 45.0474 29.1111 45.2021C28.9395 45.3513 28.7806 45.5144 28.6361 45.6898C28.5082 45.8438 28.6667 46.0833 28.8553 45.9767C29.0553 45.8639 29.2431 45.7308 29.4158 45.5796C29.4984 45.5066 29.5736 45.4285 29.6518 45.3511C29.6869 45.3112 29.7264 45.2755 29.7695 45.2445C29.7739 45.2445 29.8119 45.2131 29.8133 45.224H29.7914C29.7198 45.1871 29.7549 45.1328 29.8966 45.0612L29.9873 45.2189V45.1992L29.9624 45.2912L29.9727 45.2752L29.9076 45.3401C29.9588 45.3007 30.0764 45.2978 30.1473 45.2912C30.25 45.2812 30.3534 45.2793 30.4564 45.2854C30.6571 45.2982 30.8544 45.3428 31.041 45.4175V45.0678C30.9305 45.1009 30.8143 45.1106 30.6998 45.0963C30.6532 45.085 30.6041 45.0919 30.5625 45.1155C30.5208 45.1391 30.4897 45.1776 30.4754 45.2233C30.4626 45.27 30.4688 45.3198 30.4926 45.3619C30.5164 45.404 30.556 45.4351 30.6026 45.4482C30.7811 45.4766 30.9636 45.4672 31.1382 45.4204C31.3246 45.3686 31.2983 45.1284 31.1382 45.0678C30.8077 44.9403 30.4512 44.8945 30.0991 44.9342C29.9398 44.9525 29.6803 44.9634 29.6285 45.1532C29.562 45.3941 29.8696 45.4898 30.0245 45.3489C30.0566 45.318 30.0807 45.2798 30.0948 45.2375C30.1088 45.1953 30.1124 45.1503 30.1052 45.1064C30.098 45.0624 30.0803 45.0209 30.0535 44.9853C30.0267 44.9497 29.9917 44.9212 29.9515 44.9021C29.7739 44.8094 29.5978 44.9021 29.4633 45.0233C29.3288 45.1445 29.217 45.273 29.0804 45.3883C28.9508 45.4926 28.8124 45.5854 28.6667 45.6657L28.886 45.9526C28.9963 45.819 29.115 45.6925 29.2411 45.5737C29.304 45.5139 29.369 45.4569 29.4363 45.4014C29.4648 45.3781 29.494 45.3533 29.5247 45.3284C29.5413 45.3166 29.5586 45.3059 29.5766 45.2963C29.5992 45.2919 29.5919 45.289 29.5539 45.2876V44.9722C29.3576 45.0719 29.1463 45.139 28.9284 45.1708L29.0694 45.5044C29.2485 45.3663 29.4611 45.2781 29.6855 45.2489C29.7834 45.2357 29.8367 45.1102 29.8133 45.0247C29.7995 44.9787 29.7685 44.9398 29.7268 44.916C29.685 44.8922 29.6357 44.8854 29.589 44.897L29.597 44.8955Z" fill="#FBFAF9"/>
</g>
<path d="M33.2516 44.1787C30.5083 42.7244 28.5929 45.803 28.5929 45.803" stroke="#3A3A3A" stroke-width="0.120504" stroke-miterlimit="10"/>
<path d="M28.4934 46.2943C28.4934 46.2943 32.3052 47.3894 36.8689 46.7002C37.2538 46.6467 37.6101 46.4669 37.8817 46.1892C38.1066 45.9551 38.3115 45.7026 38.4941 45.4343" fill="#FAF9F8"/>
<mask id="mask2_1136_111" style="mask-type:luminance" maskUnits="userSpaceOnUse" x="28" y="45" width="11" height="2">
<path d="M28.4934 46.2943C28.4934 46.2943 32.3052 47.3894 36.8689 46.7002C37.2538 46.6467 37.6101 46.4669 37.8817 46.1892C38.1066 45.9551 38.3115 45.7026 38.4941 45.4343" fill="white"/>
</mask>
<g mask="url(#mask2_1136_111)">
<path d="M35.7611 46.6972C36.0111 46.7513 36.2556 46.8278 36.4919 46.9257L36.0994 46.7607C36.4353 46.9023 36.7516 47.0863 37.0407 47.3082L36.7075 47.0512C36.9348 47.2235 37.1415 47.4215 37.3235 47.6411L37.0663 47.3089C37.1206 47.3785 37.1665 47.4542 37.2029 47.5345L37.037 47.1425C37.0544 47.1855 37.0672 47.2303 37.075 47.2761L37.0158 46.8381C37.0195 46.8735 37.0195 46.9092 37.0158 46.9447L37.0743 46.5066C37.0696 46.5333 37.0622 46.5595 37.0524 46.5847L37.2183 46.192L37.2066 46.2175C37.0879 46.4 37.0205 46.6111 37.0115 46.8286C36.9726 47.1476 37.0259 47.4712 37.1649 47.761C37.304 48.0508 37.523 48.295 37.7963 48.4646C38.1778 48.6661 38.6404 48.7676 39.0635 48.6303L39.4559 48.4646C39.6997 48.3218 39.9027 48.119 40.0457 47.8755C40.2108 47.525 40.3073 47.2914 40.308 46.8899C40.3102 46.6874 40.2801 46.4858 40.2188 46.2927C40.0793 45.87 39.8856 45.5831 39.5933 45.2488C39.301 44.9144 38.9634 44.6604 38.6177 44.407C38.3795 44.2322 38.1236 44.0829 37.854 43.9617C37.4642 43.7734 37.0557 43.6266 36.6351 43.5237C36.4226 43.4548 36.1953 43.4445 35.9774 43.4938C35.7598 43.5035 35.5487 43.5707 35.3657 43.6887C35.0086 43.9213 34.7432 44.2704 34.6145 44.6764L34.556 45.1145C34.5548 45.4058 34.6318 45.6922 34.7789 45.9438C35.0033 46.292 35.3431 46.6081 35.7611 46.6986V46.6972Z" fill="#CFB38C"/>
</g>
<path d="M28.4934 46.2943C28.4934 46.2943 32.3052 47.3894 36.8689 46.7002C37.2538 46.6467 37.6101 46.4669 37.8817 46.1892C38.1066 45.9551 38.3115 45.7026 38.4941 45.4343" stroke="#3A3A3A" stroke-width="0.120504" stroke-miterlimit="10"/>
<path d="M38.4942 45.1714L29.3317 45.1999C29.3317 45.1999 28.799 45.4598 28.6265 45.8197L28.5286 46.2942L38.4416 45.4466" fill="#FAF9F8"/>
<mask id="mask3_1136_111" style="mask-type:luminance" maskUnits="userSpaceOnUse" x="28" y="45" width="11" height="2">
<path d="M38.4942 45.1714L29.3317 45.1999C29.3317 45.1999 28.799 45.4598 28.6265 45.8197L28.5286 46.2942L38.4416 45.4466" fill="white"/>
</mask>
<g mask="url(#mask3_1136_111)">
<path d="M34.1964 44.5355C34.1234 44.8757 34.3207 45.1925 34.4887 45.4729C34.6571 45.7486 34.849 46.0092 35.0624 46.2518C35.0794 46.2688 35.0996 46.2823 35.1218 46.2914C35.1439 46.3006 35.1677 46.3053 35.1918 46.3053C35.2158 46.3053 35.2396 46.3006 35.2618 46.2914C35.284 46.2823 35.3041 46.2688 35.3211 46.2518C35.3381 46.2348 35.3516 46.2147 35.3608 46.1925C35.37 46.1704 35.3747 46.1466 35.3747 46.1226C35.3747 46.0986 35.37 46.0748 35.3608 46.0527C35.3516 46.0305 35.3381 46.0104 35.3211 45.9934C35.1407 45.7881 34.9774 45.5683 34.8329 45.3364C34.7599 45.2203 34.6919 45.1006 34.6298 44.9779C34.5772 44.8742 34.5224 44.7516 34.5472 44.6333C34.559 44.5867 34.5523 44.5373 34.5284 44.4956C34.5046 44.4538 34.4655 44.4228 34.4193 44.4092C34.3726 44.3969 34.3229 44.4033 34.281 44.4272C34.239 44.4511 34.2081 44.4905 34.195 44.537L34.1964 44.5355Z" fill="#CFB38C"/>
<path d="M34.6648 44.8992C34.6548 45.0847 34.6876 45.2701 34.7606 45.4409C34.8336 45.6118 34.9448 45.7636 35.0858 45.8848C35.1118 45.909 35.1443 45.9253 35.1793 45.9316C35.2144 45.9379 35.2505 45.934 35.2834 45.9204C35.3163 45.9068 35.3446 45.884 35.3648 45.8548C35.3851 45.8256 35.3966 45.7911 35.3978 45.7556C35.4275 45.4714 35.3915 45.1841 35.2926 44.916C35.2804 44.8739 35.2535 44.8376 35.2167 44.8136C35.18 44.7896 35.1359 44.7796 35.0923 44.7854C35.0485 44.7904 35.008 44.8114 34.9788 44.8445C34.9495 44.8775 34.9335 44.9201 34.9338 44.9642C34.9671 45.2735 35.0612 45.5732 35.2107 45.8461C35.2314 45.8806 35.2628 45.9075 35.3001 45.9226C35.3374 45.9377 35.3786 45.9404 35.4175 45.9301C35.4554 45.9182 35.4886 45.895 35.5125 45.8634C35.5365 45.8319 35.55 45.7937 35.5513 45.7541L35.6192 45.1701L35.2597 45.2183C35.2992 45.4651 35.3824 45.7029 35.5052 45.9206C35.5216 45.9476 35.5448 45.97 35.5723 45.9855C35.5999 46.001 35.6311 46.0092 35.6627 46.0092C35.6944 46.0092 35.7255 46.001 35.7531 45.9855C35.7807 45.97 35.8038 45.9476 35.8202 45.9206C35.9253 45.7385 35.9954 45.5385 36.027 45.3307H35.6748L35.8509 45.9395C35.8624 45.9772 35.8858 46.0102 35.9175 46.0337C35.9492 46.0571 35.9876 46.0697 36.027 46.0697C36.0665 46.0697 36.1049 46.0571 36.1366 46.0337C36.1683 46.0102 36.1916 45.9772 36.2031 45.9395C36.2906 45.6973 36.3597 45.4489 36.4099 45.1964H36.0577L36.2324 45.6943C36.2638 45.7819 36.2901 45.8753 36.3727 45.9293C36.4091 45.9525 36.451 45.9655 36.4942 45.9672C36.5373 45.9689 36.5801 45.9591 36.6182 45.9388C36.6819 45.8982 36.734 45.8419 36.7695 45.7753L36.92 45.5336L37.2028 45.0796H36.8871C37.0421 45.3584 37.2357 45.649 37.5646 45.7322C37.607 45.7425 37.6516 45.7374 37.6906 45.7178C37.7295 45.6982 37.7602 45.6653 37.7771 45.6252C37.794 45.585 37.796 45.5401 37.7828 45.4986C37.7695 45.4571 37.7419 45.4216 37.7049 45.3986C37.0317 44.9636 36.2692 44.6854 35.4738 44.5846C35.4296 44.5844 35.3869 44.6005 35.3538 44.6297C35.3207 44.6589 35.2994 44.6992 35.294 44.743C35.2883 44.7865 35.2983 44.8306 35.3223 44.8673C35.3463 44.904 35.3827 44.9308 35.4249 44.943C36.0957 45.1363 36.7824 45.2695 37.4769 45.3409L37.4286 44.9825C37.0376 45.0731 36.6315 45.0766 36.2389 44.9927L36.19 45.3511L36.4224 45.3592C36.6255 45.365 36.673 45.046 36.4706 45C36.177 44.9339 35.8777 44.896 35.5769 44.8868C35.5286 44.8874 35.4824 44.9068 35.4483 44.9409C35.4142 44.975 35.3947 45.0211 35.3942 45.0693C35.3883 45.4665 35.8253 45.6139 36.1498 45.649C36.5291 45.6853 36.9095 45.593 37.2299 45.3869L36.9617 45.181C36.9373 45.2753 36.8881 45.3612 36.8192 45.43L37.1056 45.649C37.1386 45.5729 37.1888 45.5054 37.2522 45.4519C37.3155 45.3983 37.3904 45.3601 37.471 45.3402L37.2452 45.1183L37.1181 45.5563C37.1078 45.5951 37.1104 45.6361 37.1256 45.6733C37.1408 45.7104 37.1676 45.7416 37.2021 45.7621C37.2371 45.7806 37.277 45.7878 37.3163 45.7827C37.3555 45.7776 37.3922 45.7605 37.4213 45.7337C37.6199 45.5813 37.836 45.4534 38.0652 45.3526L37.7904 45.1956C37.7923 45.3381 37.7453 45.4769 37.6574 45.5891L37.976 45.7176C37.9663 45.6453 37.975 45.5718 38.0014 45.5038C38.0277 45.4358 38.0707 45.3755 38.1265 45.3285L37.8518 45.1715L37.8657 45.5869C37.8666 45.6226 37.8778 45.6573 37.8981 45.6867C37.9183 45.7161 37.9467 45.7391 37.9797 45.7528C38.0127 45.7664 38.049 45.7702 38.0841 45.7637C38.1193 45.7572 38.1518 45.7407 38.1777 45.7162L38.6023 45.2781L38.3151 45.2409C38.3181 45.2458 38.3194 45.2517 38.3186 45.2574C38.3178 45.2631 38.315 45.2684 38.3107 45.2723L38.6162 45.4497C38.633 45.3901 38.6359 45.3274 38.6249 45.2665C38.6138 45.2056 38.589 45.148 38.5522 45.0981C38.5155 45.0482 38.4679 45.0073 38.413 44.9785C38.3581 44.9498 38.2974 44.9339 38.2354 44.9321L38.4123 45.1628H38.4145L38.3487 45.2278V45.2212C38.3947 45.2072 38.4335 45.1763 38.4573 45.1346C38.4811 45.0929 38.488 45.0437 38.4766 44.9971C38.4636 44.9505 38.4327 44.911 38.3907 44.8871C38.3487 44.8631 38.2989 44.8568 38.2522 44.8693C38.2066 44.8848 38.1652 44.9106 38.1311 44.9447C38.097 44.9787 38.0712 45.0201 38.0557 45.0657C38.0111 45.181 38.1236 45.2942 38.2318 45.2971C38.2595 45.2971 38.2676 45.3292 38.2603 45.3526C38.2062 45.5234 38.4437 45.6658 38.5657 45.53C38.6245 45.4677 38.6621 45.3883 38.6732 45.3034C38.6842 45.2184 38.6681 45.1322 38.6271 45.0569C38.6128 45.0331 38.5932 45.0128 38.5699 44.9976C38.5466 44.9824 38.5201 44.9726 38.4925 44.969C38.4649 44.9655 38.4368 44.9682 38.4104 44.9769C38.384 44.9857 38.3599 45.0003 38.3399 45.0197L37.9161 45.4577L38.2274 45.5862L38.2135 45.1708C38.2091 45.0467 38.0557 44.9241 37.938 45.0131C37.8277 45.0928 37.7396 45.1994 37.6823 45.3227C37.625 45.4461 37.6003 45.582 37.6106 45.7176C37.6113 45.7532 37.6222 45.7879 37.642 45.8176C37.6618 45.8472 37.6897 45.8705 37.7224 45.8848C37.7556 45.8992 37.7924 45.9033 37.828 45.8965C37.8636 45.8897 37.8963 45.8724 37.9219 45.8468C38.0757 45.6644 38.1607 45.4341 38.1623 45.1956C38.1623 45.0452 38.0096 44.9832 37.8876 45.0379C37.6311 45.1542 37.3899 45.3013 37.1692 45.476L37.4747 45.6541L37.6018 45.2161C37.6099 45.1851 37.6096 45.1525 37.6012 45.1217C37.5928 45.0908 37.5764 45.0626 37.5538 45.04C37.5311 45.0174 37.5029 45.001 37.472 44.9926C37.4411 44.9842 37.4085 44.984 37.3775 44.992C37.2508 45.0233 37.1327 45.0823 37.0316 45.1647C36.9305 45.2471 36.8489 45.351 36.7929 45.4687C36.7723 45.5069 36.766 45.5511 36.7752 45.5935C36.7843 45.6359 36.8083 45.6737 36.8427 45.7C36.8772 45.7264 36.92 45.7396 36.9633 45.7374C37.0067 45.7351 37.0478 45.7175 37.0793 45.6877C37.1934 45.5747 37.2752 45.4333 37.3161 45.2781C37.3556 45.1321 37.1846 44.9861 37.0479 45.0723C36.8172 45.2218 36.5467 45.2981 36.2718 45.2913C36.1257 45.2876 35.7603 45.2475 35.7603 45.0723L35.5776 45.2548C35.8457 45.2624 36.1125 45.2961 36.3741 45.3555L36.4231 44.9971L36.1907 44.989C35.9876 44.9825 35.9386 45.3044 36.1425 45.3475C36.5989 45.4463 37.0716 45.4428 37.5266 45.3373C37.569 45.3255 37.6056 45.2987 37.6297 45.2619C37.6538 45.2251 37.6636 45.1808 37.6574 45.1372C37.651 45.0939 37.6294 45.0541 37.5965 45.0251C37.5636 44.9961 37.5215 44.9797 37.4776 44.9788C36.8158 44.9091 36.1616 44.7804 35.5228 44.5941L35.4745 44.9525C36.2051 45.0517 36.9043 45.3128 37.5207 45.7169L37.661 45.3833C37.4323 45.3256 37.3088 45.0912 37.2028 44.8985C37.1863 44.8715 37.1631 44.8491 37.1355 44.8336C37.1079 44.8181 37.0767 44.81 37.045 44.81C37.0133 44.81 36.9821 44.8181 36.9545 44.8336C36.9268 44.8491 36.9036 44.8715 36.8871 44.8985L36.6423 45.292L36.5291 45.473L36.4728 45.5643L36.4348 45.6242C36.4304 45.6344 36.4377 45.6307 36.4567 45.6132H36.5539C36.5897 45.6183 36.6124 45.7089 36.5963 45.6337C36.5885 45.6053 36.579 45.5775 36.5678 45.5504L36.5152 45.4008L36.4099 45.1022C36.3551 44.9467 36.095 44.9116 36.0577 45.1022C36.0075 45.3547 35.9384 45.6032 35.8509 45.8454H36.2031L36.027 45.2365C35.981 45.0774 35.7025 45.0489 35.6748 45.2365C35.6503 45.4131 35.5928 45.5835 35.5052 45.7388H35.8202C35.7148 45.5479 35.6445 45.3397 35.6127 45.1241C35.6008 45.0816 35.5739 45.0449 35.5369 45.0208C35.4999 44.9967 35.4554 44.987 35.4117 44.9934C35.3684 44.9999 35.3288 45.0216 35.2999 45.0544C35.2711 45.0873 35.2547 45.1293 35.2538 45.173L35.1859 45.757L35.5264 45.665C35.4057 45.4495 35.3285 45.2124 35.2992 44.9671L34.9403 45.016C35.0287 45.2529 35.0603 45.5072 35.0324 45.7585L35.3437 45.6293C35.2372 45.5412 35.1532 45.4291 35.0986 45.3021C35.0441 45.1752 35.0207 45.0371 35.0302 44.8992C35.0448 44.6642 34.6795 44.6649 34.6648 44.8992Z" fill="#CFB38C"/>
<path d="M35.3065 45.8591C35.7655 45.8321 36.2229 45.8021 36.6775 45.7371C37.1159 45.6736 37.5705 45.7277 38.0082 45.6357C38.0313 45.6293 38.053 45.6184 38.0719 45.6037C38.0908 45.589 38.1067 45.5707 38.1185 45.5498C38.1304 45.529 38.138 45.506 38.1409 45.4822C38.1439 45.4584 38.1421 45.4343 38.1357 45.4112C38.1293 45.3881 38.1185 45.3665 38.1037 45.3476C38.089 45.3286 38.0707 45.3128 38.0498 45.301C38.0289 45.2892 38.0059 45.2816 37.9821 45.2786C37.9583 45.2757 37.9341 45.2774 37.911 45.2838C37.7069 45.3191 37.4999 45.3347 37.2928 45.3305C37.0664 45.3322 36.8404 45.3485 36.6161 45.3794C36.182 45.4415 35.7443 45.4685 35.3065 45.494C35.0734 45.5072 35.0712 45.8729 35.3065 45.8591Z" fill="#CFB38C"/>
<path d="M35.3694 45.5401C35.3181 45.6895 35.2972 45.8476 35.308 46.0052L35.6668 45.957L35.4987 45.4503C35.4864 45.4082 35.4593 45.3718 35.4224 45.3478C35.3856 45.3239 35.3413 45.3139 35.2977 45.3197C35.254 45.325 35.2137 45.3463 35.1846 45.3794C35.1555 45.4125 35.1396 45.4552 35.1399 45.4992C35.1555 45.6239 35.1785 45.7474 35.2086 45.8694C35.2546 46.0497 35.5082 46.0358 35.5608 45.8694C35.5844 45.8168 35.6018 45.7617 35.6127 45.7051C35.6127 45.6839 35.6171 45.6774 35.62 45.6854C35.6383 45.7307 35.5915 45.7394 35.4804 45.7131C35.4918 45.7267 35.5051 45.7385 35.5199 45.7482C35.6039 45.8219 35.704 45.8749 35.8122 45.903C35.9185 45.9288 36.0301 45.9217 36.1322 45.8826C36.2343 45.8434 36.322 45.7742 36.3837 45.6839L36.0497 45.5438C36.0563 45.5518 36.0621 45.5496 36.0694 45.5365C36.0877 45.5263 36.0884 45.5226 36.0694 45.5263C36.0457 45.5184 36.0212 45.5128 35.9964 45.5095C35.9389 45.4917 35.8837 45.4672 35.8319 45.4365L35.7399 45.7767C35.9495 45.7624 36.1601 45.7695 36.3683 45.7978C36.5876 45.8205 36.8068 45.8373 37.026 45.8446C37.1327 45.8482 37.2402 45.8504 37.3476 45.8504C37.4508 45.8593 37.5547 45.8547 37.6567 45.8365C37.7118 45.8202 37.7593 45.785 37.7912 45.7372C37.8017 45.7175 37.8152 45.6995 37.8314 45.6839C37.8957 45.6365 38.0133 45.665 38.0842 45.6737C38.1325 45.6733 38.1788 45.654 38.213 45.6199C38.2471 45.5857 38.2665 45.5395 38.2669 45.4912C38.266 45.4431 38.2464 45.3972 38.2124 45.3632C38.1783 45.3292 38.1324 45.3096 38.0842 45.3087C37.9647 45.2871 37.8418 45.2952 37.7261 45.3321C37.6724 45.352 37.6229 45.3817 37.58 45.4197C37.5456 45.4496 37.5113 45.5117 37.4894 45.5292L37.5697 45.4825H37.4923H37.3673H37.1525C36.9917 45.4788 36.8302 45.4715 36.6694 45.4591C36.361 45.4365 36.0519 45.3861 35.7421 45.4146C35.7024 45.4158 35.664 45.4295 35.6325 45.4536C35.6009 45.4776 35.5776 45.511 35.5659 45.5489C35.5555 45.5877 35.5581 45.6288 35.5733 45.6659C35.5885 45.7031 35.6154 45.7343 35.65 45.7548C35.778 45.8343 35.9235 45.8814 36.0738 45.892C36.22 45.892 36.3822 45.7993 36.4041 45.6416C36.4326 45.4387 36.1959 45.324 36.0702 45.5007C36.0487 45.5238 36.0211 45.5403 35.9905 45.5483C35.96 45.5563 35.9278 45.5555 35.8977 45.546C35.8034 45.5255 35.7516 45.4503 35.6726 45.4C35.6218 45.3681 35.5614 45.3548 35.5019 45.3624C35.4423 45.3699 35.3872 45.3979 35.346 45.4416C35.2656 45.5263 35.2415 45.6606 35.2079 45.7664H35.5645C35.5405 45.6766 35.522 45.5854 35.5089 45.4934L35.1494 45.5416L35.3182 46.0482C35.3803 46.2329 35.6924 46.2154 35.677 45.9993C35.6681 45.8756 35.6845 45.7514 35.7253 45.6343C35.7983 45.4153 35.4483 45.316 35.373 45.5372L35.3694 45.5401Z" fill="#CFB38C"/>
<path d="M35.6989 45.5146C35.6134 45.5067 35.5275 45.5035 35.4416 45.5051L35.4906 45.8643C35.5193 45.8532 35.5489 45.8444 35.579 45.838C35.6212 45.8259 35.6577 45.799 35.6817 45.7623C35.7058 45.7256 35.7157 45.6814 35.7098 45.6379C35.7033 45.5946 35.6817 45.555 35.6488 45.526C35.6159 45.497 35.5739 45.4806 35.5301 45.4795C35.4427 45.4686 35.3543 45.4686 35.267 45.4795L35.4248 45.754L35.2721 45.8431L35.1142 45.7526V45.7577L35.1427 45.5387L35.1369 45.546L35.2173 45.4985C35.2037 45.5025 35.1897 45.5055 35.1756 45.5073H35.1603C35.1252 45.5116 35.0872 45.5153 35.055 45.5175C34.9879 45.5211 34.9205 45.5211 34.8533 45.5175C34.8049 45.5175 34.7584 45.5367 34.7242 45.5709C34.6899 45.6052 34.6707 45.6516 34.6707 45.7C34.6707 45.7484 34.6899 45.7948 34.7242 45.829C34.7584 45.8633 34.8049 45.8825 34.8533 45.8825C34.934 45.8855 35.0148 45.8838 35.0952 45.8774C35.1442 45.873 35.1924 45.8664 35.2414 45.8599C35.3018 45.859 35.3595 45.8347 35.4022 45.792C35.429 45.7629 35.4462 45.7262 35.4513 45.687C35.4564 45.6478 35.4492 45.6079 35.4307 45.573C35.413 45.5445 35.3885 45.5209 35.3594 45.5042C35.3303 45.4875 35.2976 45.4783 35.264 45.4773C35.232 45.4765 35.2002 45.4845 35.1724 45.5004C35.1445 45.5164 35.1216 45.5397 35.1062 45.5679C35.0902 45.5959 35.0819 45.6276 35.0819 45.6598C35.0819 45.6921 35.0902 45.7238 35.1062 45.7518C35.1218 45.7797 35.1446 45.8028 35.1723 45.8187C35.1999 45.8347 35.2314 45.8428 35.2633 45.8424C35.3507 45.8314 35.439 45.8314 35.5264 45.8424L35.4782 45.4839C35.4482 45.4904 35.4186 45.499 35.3897 45.5095C35.3476 45.5219 35.3113 45.549 35.2873 45.5858C35.2634 45.6226 35.2533 45.6667 35.2589 45.7102C35.2646 45.7537 35.2859 45.7937 35.3188 45.8227C35.3517 45.8517 35.3941 45.8677 35.438 45.8679C35.5238 45.8663 35.6097 45.8695 35.6952 45.8774C35.7436 45.8772 35.79 45.8579 35.8242 45.8237C35.8584 45.7895 35.8777 45.7432 35.8779 45.6949C35.877 45.6468 35.8574 45.6009 35.8234 45.5669C35.7893 45.5328 35.7434 45.5133 35.6952 45.5124L35.6989 45.5146Z" fill="#CFB38C"/>
<path d="M35.9232 45.0152C35.7127 45.0108 35.5023 45.0152 35.2918 45.0189C35.2436 45.0198 35.1977 45.0393 35.1636 45.0734C35.1296 45.1074 35.11 45.1533 35.1091 45.2014C35.1097 45.2496 35.1291 45.2957 35.1632 45.3298C35.1974 45.3639 35.2435 45.3833 35.2918 45.3839C35.4116 45.3802 35.5315 45.3839 35.6521 45.3897V45.0247C35.4502 45.0322 35.2483 45.0115 35.0521 44.9634L34.9549 45.3153L35.2216 45.3627L35.2699 45.0043C35.1561 45.0172 35.0415 45.0213 34.9271 45.0167V45.3817H35.0002C35.2355 45.3817 35.2355 45.0211 35.0002 45.0167H34.9045L34.9527 45.3751H34.9454V45.0101C34.8844 45.0119 34.8233 45.009 34.7627 45.0013C34.7371 44.9977 34.7108 44.9919 34.6852 44.986L34.6356 44.9736C34.6504 44.9812 34.6631 44.9922 34.6728 45.0057L34.6984 45.0977V45.0809L34.6451 45.2094L34.6611 45.197L34.58 45.2437H34.5705C34.6187 45.2428 34.6646 45.2233 34.6987 45.1892C34.7327 45.1552 34.7523 45.1093 34.7532 45.0612C34.7528 45.0129 34.7335 44.9667 34.6993 44.9326C34.6651 44.8984 34.6189 44.8791 34.5705 44.8787C34.5168 44.876 34.4638 44.8925 34.421 44.9251C34.3782 44.9577 34.3483 45.0043 34.3367 45.0568C34.3307 45.1058 34.3403 45.1553 34.364 45.1985C34.3878 45.2417 34.4245 45.2764 34.4689 45.2977C34.62 45.3605 34.7836 45.3872 34.9469 45.3759C35.1814 45.3722 35.1822 45.0108 34.9469 45.0108C34.9165 45.0107 34.8863 45.0146 34.857 45.0225C34.6553 45.0758 34.7006 45.3766 34.9059 45.381H35.0017V45.0159H34.9286C34.8801 45.0159 34.8337 45.0352 34.7994 45.0694C34.7651 45.1036 34.7459 45.15 34.7459 45.1985C34.7459 45.2469 34.7651 45.2933 34.7994 45.3275C34.8337 45.3617 34.8801 45.381 34.9286 45.381C35.043 45.3856 35.1576 45.3814 35.2713 45.3686C35.3152 45.3676 35.3573 45.3512 35.3903 45.3222C35.4232 45.2932 35.4447 45.2535 35.4511 45.2101C35.4573 45.1666 35.4475 45.1223 35.4234 45.0855C35.3993 45.0487 35.3627 45.0219 35.3203 45.0101L35.0536 44.9627C35.0069 44.951 34.9575 44.9577 34.9157 44.9813C34.8738 45.005 34.8426 45.0437 34.8285 45.0897C34.8163 45.1364 34.8228 45.1861 34.8467 45.2281C34.8706 45.27 34.9099 45.3011 34.9564 45.3145C35.1843 45.3709 35.4189 45.3955 35.6535 45.3875C35.702 45.3875 35.7485 45.3683 35.7827 45.3341C35.817 45.2999 35.8362 45.2534 35.8362 45.205C35.8362 45.1566 35.817 45.1102 35.7827 45.076C35.7485 45.0417 35.702 45.0225 35.6535 45.0225C35.533 45.0145 35.4131 45.013 35.2933 45.0167V45.3817C35.5037 45.3744 35.7142 45.3737 35.9246 45.378C36.16 45.3832 36.1592 45.0181 35.9246 45.013L35.9232 45.0152Z" fill="#CFB38C"/>
<path d="M35.8516 45.4131C36.2093 45.3815 36.5683 45.3681 36.9273 45.3729L38.014 45.3664C38.2493 45.3664 38.2501 45.0013 38.014 45.0013L36.9273 45.0079C36.5683 45.003 36.2093 45.0164 35.8516 45.0481C35.8037 45.0495 35.758 45.0692 35.7241 45.1031C35.6901 45.1371 35.6704 45.1826 35.6689 45.2306C35.6691 45.2789 35.6884 45.3252 35.7227 45.3594C35.7569 45.3936 35.8032 45.4129 35.8516 45.4131Z" fill="#CFB38C"/>
<path d="M37.5098 45.4715C37.5104 45.5143 37.525 45.5557 37.5514 45.5895C37.5778 45.6232 37.6145 45.6474 37.6559 45.6584C37.7018 45.6679 37.7487 45.6716 37.7955 45.6693C37.8686 45.6693 37.9417 45.6752 38.0103 45.6759C38.0524 45.6781 38.0946 45.6724 38.1346 45.6591C38.1596 45.6498 38.184 45.6388 38.2077 45.6263L38.2259 45.616C38.2479 45.6036 38.2194 45.6211 38.212 45.6211C38.2265 45.6186 38.2407 45.6147 38.2544 45.6095C38.2866 45.6014 38.2215 45.6095 38.2442 45.6095H38.2669C38.2983 45.6095 38.3304 45.6095 38.3619 45.6095C38.4103 45.6095 38.4568 45.5902 38.491 45.556C38.5253 45.5218 38.5446 45.4754 38.5446 45.427C38.5446 45.3785 38.5253 45.3321 38.491 45.2979C38.4568 45.2637 38.4103 45.2444 38.3619 45.2444C38.297 45.2422 38.2321 45.2467 38.1682 45.2576C38.1313 45.2653 38.0954 45.2776 38.0615 45.2941C38.05 45.299 38.0387 45.3046 38.0279 45.3109C37.9804 45.3284 38.0133 45.3189 38.0279 45.3109C37.9928 45.3226 38.0674 45.3109 38.033 45.3109H37.9862H37.8942H37.8021H37.7626H37.737C37.6873 45.3072 37.7166 45.3226 37.824 45.3561L37.8773 45.4854V45.4802C37.8773 45.4318 37.8581 45.3854 37.8238 45.3512C37.7896 45.317 37.7431 45.2977 37.6947 45.2977C37.6462 45.2977 37.5997 45.317 37.5655 45.3512C37.5312 45.3854 37.512 45.4318 37.512 45.4802L37.5098 45.4715Z" fill="#CFB38C"/>
<path d="M37.9578 45.2584C37.9492 45.2918 37.9493 45.3269 37.9581 45.3603C37.9669 45.3936 37.9842 45.4242 38.0082 45.449C38.048 45.4862 38.0999 45.5077 38.1544 45.5096C38.184 45.5096 38.2134 45.5059 38.2421 45.4986L38.2984 45.4891L38.5227 45.449C38.5687 45.436 38.6079 45.406 38.6323 45.365C38.6564 45.3222 38.663 45.2717 38.6506 45.2241C38.6376 45.1784 38.6075 45.1395 38.5666 45.1153L38.5227 45.0964C38.4908 45.0883 38.4574 45.0883 38.4255 45.0964L38.1222 45.1511L38.1705 45.1445H38.1544L38.2034 45.1511H38.1917L38.2348 45.1694L38.2289 45.1657L38.2662 45.1942L38.2947 45.2314L38.3137 45.2745L38.3203 45.3234L38.3137 45.3716V45.3679C38.3258 45.3206 38.3192 45.2704 38.2954 45.2278C38.2708 45.1869 38.2317 45.1569 38.1858 45.1438C38.1627 45.1374 38.1385 45.1356 38.1147 45.1386C38.0909 45.1415 38.0679 45.1492 38.047 45.161C38.0262 45.1729 38.0079 45.1888 37.9932 45.2078C37.9785 45.2267 37.9677 45.2484 37.9615 45.2716L37.9578 45.2584Z" fill="#CFB38C"/>
<path d="M38.1499 45.0766C38.0293 45.1256 37.9023 45.1573 37.7728 45.1707C37.635 45.1757 37.497 45.1679 37.3607 45.1474C37.0874 45.1109 36.812 45.0919 36.5363 45.0904L36.6657 45.4022C36.7213 45.364 36.7868 45.3426 36.8542 45.3408C36.9463 45.3248 37.0384 45.3131 37.1312 45.3043C37.327 45.2861 37.5229 45.2795 37.7195 45.2729C37.7679 45.2729 37.8144 45.2537 37.8487 45.2195C37.8829 45.1853 37.9022 45.1388 37.9022 45.0904C37.9022 45.042 37.8829 44.9956 37.8487 44.9614C37.8144 44.9271 37.7679 44.9079 37.7195 44.9079L35.9693 44.859C35.9253 44.8594 35.8829 44.8756 35.85 44.9047C35.8171 44.9338 35.7959 44.9739 35.7902 45.0174C35.7837 45.061 35.7934 45.1054 35.8175 45.1423C35.8416 45.1792 35.8785 45.2059 35.921 45.2175C36.2869 45.2699 36.6564 45.2931 37.026 45.2868C37.2642 45.281 37.2576 44.9422 37.026 44.9218C36.7943 44.9013 36.5663 44.8875 36.3361 44.8824C36.1169 44.8773 35.8816 44.859 35.6711 44.9291C35.6371 44.9395 35.6069 44.9595 35.584 44.9866C35.5611 45.0137 35.5465 45.0468 35.5419 45.082C35.5374 45.1172 35.5431 45.153 35.5583 45.185C35.5736 45.2171 35.5978 45.244 35.628 45.2627C35.7741 45.3569 35.9722 45.3452 36.1395 45.3569C36.3273 45.3708 36.5151 45.381 36.703 45.3897C36.9383 45.4 36.9375 45.0349 36.703 45.0247C36.5393 45.0174 36.3763 45.0087 36.2126 44.997L35.9766 44.9802C35.9204 44.9831 35.8644 44.972 35.8136 44.9481L35.7697 45.2817C35.959 45.2182 36.1768 45.243 36.3726 45.2481C36.5919 45.254 36.8111 45.2671 37.0303 45.2868V44.9218C36.6945 44.9309 36.3585 44.9134 36.0255 44.8692L35.9766 45.2277L37.7268 45.2766V44.9116C37.4958 44.9196 37.2649 44.9269 37.0355 44.9539C36.8257 44.978 36.5729 44.9904 36.4143 45.1474C36.3897 45.1733 36.3732 45.2058 36.3667 45.2409C36.3601 45.276 36.364 45.3122 36.3777 45.3452C36.3913 45.3782 36.4143 45.4065 36.4438 45.4267C36.4732 45.4469 36.5079 45.4582 36.5436 45.4591C36.8309 45.4616 37.1176 45.4821 37.4023 45.5204C37.5387 45.5402 37.6769 45.5459 37.8145 45.5372C37.9645 45.5207 38.1118 45.4854 38.2529 45.4321C38.2989 45.4182 38.3378 45.3872 38.3616 45.3455C38.3853 45.3038 38.3922 45.2546 38.3808 45.208C38.3675 45.1615 38.3365 45.1221 38.2944 45.0982C38.2523 45.0743 38.2025 45.0678 38.1557 45.0802L38.1499 45.0766Z" fill="#CFB38C"/>
<path d="M37.7363 45.1744C37.2365 45.2182 36.7373 45.1627 36.2404 45.1116L34.7321 44.9568C34.5289 44.9357 34.4792 45.2861 34.6831 45.3153L34.7496 45.3248L34.7978 44.9663C34.7149 44.9703 34.6319 44.9631 34.5508 44.9451C34.5124 44.9359 34.4719 44.9393 34.4355 44.9549C34.3991 44.9704 34.3687 44.9973 34.3488 45.0314C34.3288 45.0656 34.3205 45.1052 34.3249 45.1445C34.3293 45.1838 34.3463 45.2207 34.3733 45.2496L34.3813 45.2576C34.4102 45.2847 34.447 45.302 34.4863 45.3071C34.5257 45.3122 34.5656 45.3049 34.6005 45.2861L34.6108 45.2817C34.6455 45.2614 34.6726 45.2302 34.6878 45.193C34.703 45.1558 34.7055 45.1146 34.6948 45.0758L34.6904 45.0656C34.6787 45.0278 34.6554 44.9945 34.6238 44.9706C34.5922 44.9466 34.5539 44.9331 34.5143 44.932H34.5033C34.2688 44.94 34.268 45.3051 34.5033 45.297H34.5143L34.3382 45.1627L34.3426 45.1729L34.4259 44.9663L34.4164 44.9707L34.6356 44.9992L34.6283 44.9919L34.45 45.297C34.5627 45.3234 34.6785 45.3349 34.7942 45.3313C34.8382 45.3307 34.8804 45.3144 34.9134 45.2853C34.9464 45.2563 34.9679 45.2164 34.974 45.1729C34.9803 45.1292 34.9705 45.0846 34.9463 45.0476C34.922 45.0107 34.8851 44.9838 34.8424 44.9722L34.7767 44.9634L34.7284 45.3218L36.2367 45.4766C36.7337 45.5277 37.2328 45.5832 37.7327 45.5394C37.7807 45.5381 37.8264 45.5185 37.8604 45.4845C37.8944 45.4506 37.9141 45.4049 37.9153 45.3569C37.915 45.3086 37.8956 45.2624 37.8614 45.2283C37.8272 45.1941 37.781 45.1748 37.7327 45.1744H37.7363Z" fill="#CFB38C"/>
<path d="M35.4045 45.4453L34.9704 45.4365C34.9305 45.4366 34.8917 45.4497 34.8599 45.4738C34.8282 45.4979 34.8051 45.5317 34.7943 45.5701C34.7846 45.6089 34.7876 45.6498 34.8027 45.6868C34.8178 45.7238 34.8443 45.755 34.8783 45.776L34.928 45.8096L34.9719 45.4759C34.9034 45.4813 34.8381 45.5067 34.7841 45.549C34.759 45.5732 34.741 45.6038 34.7319 45.6375C34.7227 45.6711 34.7228 45.7066 34.7322 45.7402C34.7407 45.7662 34.7542 45.7903 34.772 45.8111C34.7898 45.8319 34.8115 45.849 34.836 45.8614L34.7994 45.8329H34.8031L34.7746 45.7957V45.8001L34.7563 45.7563V45.7614L34.7497 45.7125C34.7501 45.7159 34.7501 45.7193 34.7497 45.7227L34.7556 45.6745V45.6796L34.7738 45.6358V45.6409L34.8023 45.6037H34.7987L34.836 45.5752L34.8323 45.5789L34.8754 45.5599H34.871C34.8243 45.5761 34.785 45.6088 34.7607 45.6519C34.7364 45.6937 34.7298 45.7435 34.7421 45.7903C34.7544 45.837 34.7847 45.877 34.8265 45.9016C34.8475 45.914 34.8709 45.922 34.8951 45.9251C34.9193 45.9283 34.944 45.9265 34.9675 45.9198C34.9855 45.9138 35.0029 45.906 35.0194 45.8964C35.0407 45.883 35.0593 45.8656 35.0742 45.8453C35.1012 45.809 35.1163 45.7651 35.1173 45.7198C35.117 45.6825 35.1066 45.6459 35.0873 45.6139C35.0658 45.5812 35.0364 45.5544 35.0018 45.5358L35.0384 45.565V45.5606L35.0859 45.6417V45.6366V45.7336V45.7285L35.0391 45.8088H35.0435L35.0062 45.8373H35.0113L34.9682 45.8556C35.0011 45.8468 35.0362 45.8417 35.0698 45.8344C35.1003 45.8262 35.128 45.81 35.1502 45.7877C35.1782 45.7592 35.1959 45.7222 35.2006 45.6825C35.2053 45.6471 35.1996 45.611 35.1841 45.5788C35.1687 45.5465 35.1442 45.5194 35.1136 45.5008L35.0632 45.4679L34.9711 45.8081L35.4052 45.8169C35.4536 45.8165 35.4998 45.7971 35.534 45.763C35.5682 45.7288 35.5875 45.6827 35.5879 45.6344C35.587 45.5863 35.5674 45.5404 35.5334 45.5063C35.4993 45.4723 35.4534 45.4528 35.4052 45.4519L35.4045 45.4453Z" fill="#CFB38C"/>
<path d="M33.9172 45.1502C33.9976 45.1648 34.0795 45.1743 34.1599 45.1933C34.1781 45.1933 34.1971 45.202 34.2154 45.2071L34.2432 45.2159L34.2629 45.2232C34.2731 45.2232 34.2724 45.2232 34.2629 45.2232C34.2534 45.2232 34.2665 45.2232 34.2739 45.229L34.2987 45.2414C34.317 45.2517 34.3352 45.2619 34.3535 45.2736C34.3849 45.294 34.4156 45.3159 34.4456 45.3385L34.4734 45.3604C34.4946 45.3765 34.4492 45.3407 34.4682 45.3561C34.4872 45.3714 34.4953 45.3772 34.5077 45.3882C34.5356 45.4104 34.5618 45.4348 34.5859 45.4612C34.6049 45.4809 34.5859 45.4539 34.5808 45.4531C34.5757 45.4524 34.5954 45.4743 34.5976 45.4787C34.5998 45.4831 34.6049 45.4933 34.6093 45.5006C34.621 45.5203 34.5939 45.459 34.6093 45.5006C34.6222 45.5473 34.6531 45.5869 34.6952 45.6108C34.7161 45.6226 34.7391 45.6302 34.7629 45.6332C34.7867 45.6361 34.8109 45.6344 34.834 45.628C34.8571 45.6216 34.8788 45.6108 34.8977 45.596C34.9166 45.5813 34.9325 45.563 34.9443 45.5421C34.9561 45.5213 34.9638 45.4983 34.9667 45.4745C34.9697 45.4507 34.9679 45.4266 34.9615 45.4035C34.8987 45.2108 34.7247 45.0845 34.5632 44.9757C34.4816 44.9199 34.3912 44.8782 34.2958 44.8523C34.2044 44.8282 34.1102 44.818 34.0181 44.8012C33.9713 44.7894 33.9218 44.7961 33.8799 44.8199C33.8379 44.8437 33.8068 44.8828 33.793 44.929C33.7806 44.9756 33.7871 45.0253 33.811 45.0672C33.835 45.1091 33.8744 45.14 33.9209 45.1531L33.9172 45.1502Z" fill="#CFB38C"/>
</g>
<path d="M29.8243 45.0108C30.0983 44.9677 30.3774 44.9677 30.6515 45.0108C30.9396 45.0654 31.2217 45.1476 31.4941 45.2561C31.7689 45.3534 32.0446 45.4508 32.3213 45.5481C32.6056 45.6459 32.8957 45.7496 33.1983 45.7277C33.2463 45.7264 33.292 45.7068 33.326 45.6728C33.36 45.6389 33.3797 45.5932 33.381 45.5452C33.3806 45.4969 33.3612 45.4507 33.327 45.4166C33.2929 45.3824 33.2466 45.3631 33.1983 45.3627C32.906 45.3839 32.6231 45.2678 32.3491 45.1729C32.0619 45.0736 31.7754 44.9714 31.4897 44.8685C31.2068 44.7599 30.9127 44.6833 30.6128 44.64C30.3168 44.605 30.0174 44.6121 29.7234 44.6611C29.6768 44.6741 29.6373 44.7049 29.6133 44.7469C29.5894 44.7889 29.583 44.8386 29.5955 44.8852C29.6093 44.9314 29.6404 44.9705 29.6824 44.9943C29.7243 45.0181 29.7738 45.0248 29.8206 45.013L29.8243 45.0108Z" fill="#FBFAF9"/>
<path d="M30.5031 45.3912C30.5316 45.3819 30.5607 45.3743 30.5901 45.3686C30.6018 45.3686 30.6171 45.3686 30.6281 45.362C30.6011 45.362 30.5974 45.3657 30.6179 45.362H30.631C30.6891 45.3573 30.7476 45.3573 30.8057 45.362C30.8342 45.362 30.862 45.3671 30.8905 45.3701C30.9358 45.3744 30.8488 45.3635 30.8905 45.3701L30.9358 45.3774C30.9942 45.3869 31.052 45.3985 31.1104 45.4095C31.1338 45.4167 31.1584 45.4191 31.1828 45.4166C31.2071 45.4142 31.2307 45.4068 31.2522 45.3951C31.2736 45.3833 31.2925 45.3673 31.3077 45.3481C31.3228 45.3289 31.334 45.3069 31.3405 45.2833C31.3469 45.2597 31.3486 45.2351 31.3453 45.2108C31.3421 45.1866 31.334 45.1632 31.3215 45.1422C31.309 45.1211 31.2925 45.1028 31.2728 45.0883C31.2531 45.0737 31.2307 45.0633 31.2069 45.0576C30.9431 45.005 30.6654 44.9554 30.403 45.0401C30.3799 45.0465 30.3583 45.0573 30.3393 45.0721C30.3204 45.0868 30.3046 45.1051 30.2927 45.1259C30.2809 45.1468 30.2733 45.1698 30.2703 45.1936C30.2674 45.2173 30.2691 45.2415 30.2755 45.2646C30.2819 45.2877 30.2928 45.3093 30.3075 45.3282C30.3223 45.3471 30.3406 45.3629 30.3614 45.3748C30.3823 45.3866 30.4053 45.3942 30.4291 45.3972C30.4529 45.4001 30.4771 45.3983 30.5002 45.392L30.5031 45.3912Z" fill="#FBFAF9"/>
<path d="M32.007 45.4328C32.3088 45.5211 32.6355 45.5175 32.9468 45.5364L33.9165 45.5956C34.1511 45.6102 34.1504 45.2451 33.9165 45.2305L32.9826 45.1736C32.6903 45.1561 32.3856 45.1634 32.1057 45.0809C31.8791 45.0152 31.7827 45.3671 32.0085 45.4328H32.007Z" fill="#FBFAF9"/>
</svg>
