<svg width="30" height="44" viewBox="0 0 30 44" fill="none" xmlns="http://www.w3.org/2000/svg">
<path d="M8.77626 26.5582C8.77626 26.5582 5.55662 27.9592 7.27979 35.4033C7.27979 35.4033 13.9789 39.0445 19.994 34.8824C19.994 34.8824 22.3999 31.175 18.6937 26.5582H8.77626Z" fill="#F7AC61" stroke="#5F4639" stroke-width="0.254718" stroke-miterlimit="10"/>
<path d="M27.6025 23.997C20.1558 24.6873 18.8886 23.7933 17.75 23.0457C16.6114 22.2981 15.702 21.1276 14.0718 21.0296C12.4417 20.9315 11.247 22.7209 9.29716 23.7614C7.34729 24.8019 0.483914 23.9639 0.483914 23.9639C-0.0560883 23.7283 -0.118494 22.3388 1.26335 21.6804C2.69359 20.999 1.78298 19.6643 1.78298 19.6643C1.65562 16.9515 2.29241 14.8539 3.03746 13.3689C2.7016 13.0721 2.40805 12.7305 2.16505 12.3539C0.964057 10.5263 -0.266231 7.29771 0.775566 2.41986C0.775566 2.41986 1.23151 -0.919491 3.69336 0.462355C3.69336 0.462355 6.19597 1.81236 10.2778 5.56818L11.4151 6.6087C11.4151 6.6087 14.6679 5.87639 16.684 6.64054C16.684 6.64054 21.4345 1.84675 25.2234 0.234382C25.4231 0.144956 25.6439 0.113304 25.8607 0.14302C26.0775 0.172736 26.2816 0.262629 26.4499 0.402496C26.8498 0.75146 27.2624 1.48377 27.4382 2.99935C27.4382 2.99935 28.8149 12.2966 25.0706 13.5956C27.0306 17.1311 26.4792 19.8362 26.1786 20.3304C25.8042 20.9481 26.2601 21.2219 26.2601 21.2219C28.4163 22.4598 28.2125 23.8506 27.6025 23.997Z" fill="#F7AC62" stroke="#604639" stroke-width="0.254718" stroke-miterlimit="10"/>
<path d="M25.0642 13.5956C24.5195 12.6245 23.8745 11.7131 23.1398 10.8765" stroke="#604639" stroke-width="0.254718" stroke-miterlimit="10"/>
<path d="M27.1644 24.9484C27.4509 26.0487 25.4858 25.7405 25.4106 25.7291C25.3877 25.7635 25.105 26.1494 23.8021 26.8002C22.4368 27.4828 14.7048 27.898 11.3884 27.7757C8.19425 27.6586 3.47941 26.4588 3.2922 26.2143C3.10498 25.9698 2.71526 25.6781 2.46309 25.7354C2.21092 25.7927 0.454638 25.8233 1.01884 25.0044C1.64544 24.0849 1.12837 24.225 0.534874 23.9855C0.528506 23.9855 0.534874 23.9715 0.534874 23.9728C1.14238 24.0441 7.4441 24.7548 9.29972 23.7639C11.2509 22.7234 12.4468 20.934 14.0757 21.0321C15.7046 21.1301 16.6152 22.3057 17.7538 23.0482C18.8924 23.7907 20.1596 24.6898 27.6063 23.9995C27.0001 24.1434 26.8727 23.8263 27.1644 24.9484Z" fill="white" stroke="#5F4739" stroke-width="0.254718" stroke-miterlimit="10"/>
<path d="M5.00391 10.6561C5.00391 10.6561 3.9481 11.5591 3.03876 13.3727" stroke="#604639" stroke-width="0.254718" stroke-miterlimit="10"/>
<path d="M25.6514 39.694C24.6006 39.0852 24.0797 38.9642 22.5005 39.6762C21.9745 39.7182 21.9388 39.2457 22.0178 39.0814C22.1499 38.8014 22.1994 38.4894 22.1604 38.1822C22.0955 37.8409 21.0295 37.6805 21.4116 37.2907C21.977 36.7163 21.1123 36.3559 20.9327 36.305C20.799 36.268 20.5506 35.6809 20.9263 35.4135C21.302 35.146 21.1518 34.6748 20.9403 34.6187C20.8735 34.5954 20.8156 34.5518 20.7746 34.4941C20.7336 34.4364 20.7116 34.3673 20.7116 34.2965C20.7116 34.2257 20.7336 34.1567 20.7746 34.0989C20.8156 34.0412 20.8735 33.9977 20.9403 33.9743C21.3224 33.8075 21.0435 33.1554 21.032 33.1312C25.5329 31.9977 27.8177 34.9142 28.7118 38.1313C29.6835 41.6464 27.2777 40.6377 25.6514 39.694Z" fill="white" stroke="#604639" stroke-width="0.254718" stroke-miterlimit="10"/>
<path d="M22.5629 39.6686L22.5005 39.6762" stroke="#43B7A7" stroke-width="0.137548" stroke-miterlimit="10"/>
<path d="M2.7586 1.95626C2.66231 1.92922 2.56153 1.92199 2.46237 1.93499C2.3632 1.948 2.2677 1.98097 2.18164 2.03192C2.09558 2.08287 2.02073 2.15073 1.96163 2.23142C1.90253 2.3121 1.86041 2.40393 1.83779 2.50135C1.56652 3.60301 1.20736 6.08778 2.56501 8.61459C2.56501 8.61459 2.85794 9.29723 3.44251 8.61459C4.02712 7.96355 4.70375 7.40147 5.45097 6.94618C5.61566 6.84954 5.74034 6.69717 5.80247 6.51661C5.86461 6.33605 5.86009 6.13922 5.78974 5.9617C5.31724 4.76325 4.21686 2.39564 2.7586 1.95626Z" fill="white"/>
<path d="M25.3063 1.95626C25.4026 1.92922 25.5033 1.92199 25.6025 1.93499C25.7017 1.948 25.7972 1.98097 25.8832 2.03192C25.9693 2.08287 26.0441 2.15073 26.1032 2.23142C26.1623 2.3121 26.2045 2.40393 26.2271 2.50135C26.4983 3.60301 26.8562 6.08778 25.4998 8.61459C25.4998 8.61459 25.2069 9.29723 24.6211 8.61459C24.0368 7.96552 23.3605 7.40556 22.6139 6.95255C22.4494 6.85573 22.3247 6.70343 22.2624 6.52298C22.2001 6.34254 22.2041 6.14579 22.2738 5.96807C22.7476 4.76325 23.848 2.39564 25.3063 1.95626Z" fill="white"/>
<path d="M7.71665 18.1946C6.91684 18.6772 5.72221 19.8859 6.37429 22.6521C6.43476 22.9017 6.5913 23.1172 6.80985 23.252C7.40462 23.6213 8.67694 24.2097 9.84355 23.4265C10.0584 23.2786 10.2381 23.0854 10.3701 22.8605C10.5022 22.6356 10.5833 22.3845 10.6077 22.1249C10.7274 20.9786 10.7351 18.7295 9.05774 18.0723C8.83971 17.9889 8.60547 17.9566 8.373 17.9777C8.14053 17.9989 7.91601 18.0731 7.71665 18.1946Z" fill="#604639"/>
<path d="M9.06413 18.1296C8.75204 17.9108 8.38166 17.7904 8.0006 17.7839C7.61954 17.7773 7.24522 17.8848 6.92577 18.0927C6.55421 18.3512 6.24203 18.6859 6.01006 19.0746C5.89926 19.2478 6.17435 19.407 6.28516 19.2351C6.61629 18.7154 7.08497 18.2162 7.72304 18.1143C8.06215 18.0701 8.40667 18.131 8.71007 18.2888C8.77825 18.321 8.8431 18.3598 8.90366 18.4047C9.06795 18.532 9.22715 18.2506 9.06413 18.1296Z" fill="#604639"/>
<path d="M20.4513 18.1296C21.2511 18.6123 22.4458 19.8209 21.7937 22.5871C21.7336 22.8368 21.577 23.0526 21.3581 23.187C20.7633 23.5563 19.491 24.1447 18.3244 23.3615C18.1096 23.2136 17.9299 23.0204 17.7978 22.7955C17.6658 22.5706 17.5847 22.3195 17.5603 22.0599C17.4405 20.9136 17.4329 18.6645 19.1102 18.0086C19.328 17.9243 19.5623 17.8914 19.7949 17.9124C20.0275 17.9334 20.2521 18.0077 20.4513 18.1296Z" fill="#604639"/>
<path d="M19.2643 18.3397C19.521 18.1558 19.8261 18.0516 20.1416 18.0401C20.4571 18.0285 20.769 18.1101 21.0384 18.2747C21.3831 18.505 21.6716 18.8096 21.8828 19.1663C21.9936 19.3382 22.2649 19.179 22.1579 19.0058C21.7873 18.4263 21.2664 17.8723 20.557 17.7437C20.1385 17.6719 19.7081 17.7367 19.3293 17.9283C19.2504 17.9639 19.175 18.0065 19.1038 18.0557C18.9408 18.1767 19.1038 18.453 19.2643 18.3308V18.3397Z" fill="#604639"/>
<path d="M14.0731 21.632C14.0731 21.632 12.2417 21.6243 13.0759 22.8024C13.8643 23.9155 15.4741 22.8852 15.2665 22.2165C15.0844 21.6307 14.0731 21.632 14.0731 21.632Z" fill="#604639"/>
<path d="M15.3913 24.784C14.0426 26.8829 12.8047 24.8171 12.8047 24.8171C13.5255 24.6732 14.0706 24.0046 14.0706 24.0046V23.2914L14.0846 24.0122C14.0846 24.0122 14.682 24.6223 15.3913 24.784Z" fill="#EF7E89"/>
<path d="M15.2538 24.7077C14.9723 25.1408 14.5151 25.6846 13.9292 25.5509C13.5803 25.4706 13.3001 25.2095 13.081 24.9383C13.0556 24.9064 13.0607 24.9128 13.0314 24.872C13.0148 24.8504 12.9995 24.8275 12.983 24.8045C12.9664 24.7816 12.9549 24.7625 12.9422 24.7408L12.8467 24.9752C13.3596 24.8465 13.8184 24.5585 14.1572 24.1525C14.2502 24.0455 14.2298 23.9245 14.2311 23.7895V23.2953H13.9127L13.9216 23.7704C13.9216 23.8977 13.8987 24.0506 13.9942 24.1525C14.365 24.5354 14.8337 24.8094 15.3493 24.9446C15.548 24.993 15.6333 24.6899 15.4334 24.6377C14.9629 24.5115 14.536 24.2586 14.1992 23.9066L14.2451 24.0187L14.2311 23.2979C14.2311 23.2556 14.2143 23.2152 14.1845 23.1853C14.1546 23.1554 14.1141 23.1387 14.0719 23.1387C14.0297 23.1387 13.9892 23.1554 13.9593 23.1853C13.9295 23.2152 13.9127 23.2556 13.9127 23.2979V24.0111L13.9598 23.899C13.6568 24.2807 13.2365 24.5519 12.7639 24.6708C12.7406 24.6777 12.7191 24.6897 12.701 24.706C12.683 24.7223 12.6688 24.7424 12.6597 24.765C12.6505 24.7875 12.6465 24.8118 12.648 24.836C12.6495 24.8603 12.6565 24.8839 12.6684 24.9051C13.0607 25.5547 13.8363 26.1303 14.6081 25.7763C15.0067 25.5942 15.2971 25.2299 15.5301 24.872C15.6409 24.6925 15.3659 24.5333 15.2538 24.7077Z" fill="#604639"/>
<path d="M15.3493 24.9382C15.6371 25.0097 15.9398 24.9929 16.2179 24.8898C16.5616 24.736 16.8475 24.4769 17.0342 24.1499C17.1438 23.9754 16.8674 23.8149 16.7591 23.9881C16.6133 24.2489 16.3911 24.4587 16.1224 24.5893C15.9046 24.6732 15.6662 24.6879 15.4397 24.6313C15.241 24.5867 15.1557 24.8937 15.3557 24.9382H15.3493Z" fill="#604639"/>
<path d="M11.1999 24.2645C11.4157 24.5503 11.7036 24.7736 12.0341 24.9115C12.2938 25.0081 12.5756 25.0288 12.8467 24.9713C12.8874 24.96 12.9221 24.933 12.9431 24.8963C12.964 24.8596 12.9697 24.816 12.9587 24.7752C12.9466 24.735 12.9194 24.7011 12.8829 24.6805C12.8464 24.6598 12.8033 24.6541 12.7626 24.6644C12.5464 24.7056 12.323 24.6849 12.1182 24.6045C11.8426 24.4784 11.6041 24.2837 11.4253 24.039C11.3953 24.0094 11.3548 23.9928 11.3126 23.9928C11.2704 23.9928 11.2299 24.0094 11.1999 24.039C11.1712 24.0695 11.1552 24.1099 11.1552 24.1518C11.1552 24.1937 11.1712 24.234 11.1999 24.2645Z" fill="#604639"/>
<path d="M10.2218 16.3389C9.79525 16.0093 9.30183 15.7769 8.77606 15.6579C8.25029 15.5388 7.70487 15.5361 7.17794 15.6499C7.16196 15.6525 7.14722 15.6601 7.13584 15.6716C7.12446 15.6831 7.11703 15.6979 7.11462 15.7139C7.11221 15.7299 7.11495 15.7463 7.12244 15.7607C7.12993 15.775 7.14178 15.7866 7.15629 15.7938C7.65426 16.0485 9.05776 16.6777 10.1874 16.4701C10.2017 16.4679 10.215 16.4616 10.2257 16.4519C10.2364 16.4423 10.2441 16.4297 10.2477 16.4158C10.2514 16.4018 10.2509 16.3871 10.2463 16.3735C10.2417 16.3598 10.2332 16.3478 10.2218 16.3389Z" fill="white"/>
<path d="M21.1085 15.5645C20.5755 15.4816 20.0309 15.5161 19.5126 15.6655C18.9944 15.8148 18.515 16.0755 18.1079 16.4293C18.0952 16.4393 18.086 16.4531 18.0817 16.4687C18.0773 16.4843 18.078 16.5008 18.0837 16.516C18.0894 16.5311 18.0997 16.5441 18.1132 16.553C18.1267 16.5619 18.1427 16.5663 18.1588 16.5656C18.7217 16.5426 20.2501 16.4293 21.1416 15.697C21.1528 15.688 21.1612 15.676 21.1658 15.6623C21.1703 15.6487 21.1709 15.6341 21.1674 15.6201C21.164 15.6062 21.1566 15.5935 21.1461 15.5837C21.1356 15.5738 21.1226 15.5672 21.1085 15.5645Z" fill="white"/>
<path d="M18.8593 20.4501C19.2012 20.4501 19.4783 20.1171 19.4783 19.7063C19.4783 19.2955 19.2012 18.9625 18.8593 18.9625C18.5175 18.9625 18.2404 19.2955 18.2404 19.7063C18.2404 20.1171 18.5175 20.4501 18.8593 20.4501Z" fill="white"/>
<path d="M9.14692 20.4501C9.48876 20.4501 9.76588 20.1171 9.76588 19.7063C9.76588 19.2955 9.48876 18.9625 9.14692 18.9625C8.80507 18.9625 8.52795 19.2955 8.52795 19.7063C8.52795 20.1171 8.80507 20.4501 9.14692 20.4501Z" fill="white"/>
<path d="M11.0165 32.0536C11.0165 32.0536 10.9707 31.25 11.7629 31.2984C11.7629 31.2984 12.3474 31.3404 12.6034 31.0118C12.8289 30.7215 13.1944 30.5024 13.5752 30.7941C13.6474 30.8485 13.7099 30.9148 13.7599 30.9902C13.8274 31.0921 14.0286 31.3035 14.5062 31.2296C15.05 31.1456 15.0717 30.533 15.6206 30.8654C15.7519 30.9453 15.8623 31.0553 15.9428 31.1863C16.0574 31.3697 16.2701 31.6334 16.4522 31.4232L16.051 35.3255C16.051 35.3255 12.0061 36.552 11.3731 35.9228C10.7402 35.2937 11.0165 32.0536 11.0165 32.0536Z" fill="white" stroke="#604639" stroke-width="0.254718" stroke-miterlimit="10"/>
<path d="M22.5005 39.6762C21.6358 40.0647 20.4526 40.7027 18.6925 41.6452C13.7179 44.3121 10.7262 43.8243 9.81557 43.8561C8.90495 43.888 3.1496 43.0767 2.59686 38.4918C2.17912 35.0238 4.83965 33.7668 6.16928 33.3605C6.35542 33.3035 6.55524 33.3101 6.7372 33.3793C6.91915 33.4485 7.07289 33.5763 7.17415 33.7426C9.31505 37.2717 14.6183 35.5332 19.7407 33.549C20.163 33.3839 20.5951 33.2453 21.0346 33.1338C21.0461 33.158 21.3263 33.8101 20.9429 33.9769C20.8761 34.0003 20.8182 34.0438 20.7772 34.1015C20.7362 34.1593 20.7142 34.2283 20.7142 34.2991C20.7142 34.3699 20.7362 34.439 20.7772 34.4967C20.8182 34.5544 20.8761 34.598 20.9429 34.6213C21.1543 34.6774 21.3034 35.1512 20.9289 35.4161C20.5545 35.681 20.8016 36.2694 20.9353 36.3076C21.1149 36.3585 21.9796 36.7189 21.4142 37.2933C21.0321 37.6818 22.0981 37.8423 22.163 38.1848C22.2032 38.4917 22.155 38.8036 22.0242 39.084C21.9389 39.2457 21.9745 39.7183 22.5005 39.6762Z" fill="#F7AC61" stroke="#5F4639" stroke-width="0.254718" stroke-miterlimit="10"/>
<path d="M7.80072 31.7125C7.80072 31.7125 9.04247 36.6387 11.475 36.2159C11.475 36.2159 12.7104 36.1509 11.475 33.2866C10.2396 30.4223 10.9223 29.4824 10.9223 29.4824" fill="#F7AC61"/>
<path d="M7.80072 31.7125C7.80072 31.7125 9.04247 36.6387 11.475 36.2159C11.475 36.2159 12.7104 36.1509 11.475 33.2866C10.2396 30.4223 10.9223 29.4824 10.9223 29.4824" stroke="#5F4639" stroke-width="0.254718" stroke-miterlimit="10"/>
<path d="M19.4859 31.8117C19.4859 31.8117 18.2505 36.7316 15.8116 36.3088C15.8116 36.3088 14.5762 36.2438 15.8116 33.3795C17.047 30.5152 16.3643 29.5753 16.3643 29.5753" fill="#F7AC61"/>
<path d="M19.4859 31.8117C19.4859 31.8117 18.2505 36.7316 15.8116 36.3088C15.8116 36.3088 14.5762 36.2438 15.8116 33.3795C17.047 30.5152 16.3643 29.5753 16.3643 29.5753" stroke="#5F4639" stroke-width="0.254718" stroke-miterlimit="10"/>
</svg>
