<svg width="39" height="46" viewBox="0 0 39 46" fill="none" xmlns="http://www.w3.org/2000/svg">
<path d="M8.34748 12.2507C8.34748 12.2507 2.5031 9.83359 0.526138 15.4973C-1.45082 21.161 5.54876 22.9245 5.54876 22.9245" fill="#383837"/>
<path d="M8.34748 12.2507C8.34748 12.2507 2.5031 9.83359 0.526138 15.4973C-1.45082 21.161 5.54876 22.9245 5.54876 22.9245" stroke="#1E1E1E" stroke-width="0.348794" stroke-miterlimit="10"/>
<path d="M21.0212 5.27346C21.0212 5.27346 21.9525 -0.852754 28.8991 0.857032C35.8457 2.56682 32.6472 9.99054 32.6472 9.99054" fill="#383837"/>
<path d="M21.0212 5.27346C21.0212 5.27346 21.9525 -0.852754 28.8991 0.857032C35.8457 2.56682 32.6472 9.99054 32.6472 9.99054" stroke="#1E1E1E" stroke-width="0.348794" stroke-miterlimit="10"/>
<path d="M29.8247 28.891C29.8247 28.891 35.3106 32.222 34.2956 38.5268L11.5305 38.3126C11.5305 38.3126 14.5434 30.2087 15.716 29.8885C16.8887 29.5683 29.8247 28.891 29.8247 28.891Z" fill="#383837" stroke="#1E1E1E" stroke-width="0.348794" stroke-miterlimit="10"/>
<path d="M12.9404 43.6798C12.9404 43.6798 12.014 45.8772 17.322 45.7921C22.6299 45.707 34.2036 45.3638 34.2036 45.3638C34.2036 45.3638 37.1453 38.0782 22.7632 37.322C22.7646 37.322 12.7981 38.4221 12.9404 43.6798Z" fill="#F4F4F4" stroke="#1E1E1E" stroke-width="0.348794" stroke-miterlimit="10"/>
<path d="M29.568 32.2038C29.568 32.2038 24.0668 31.3883 22.431 34.3768C20.7951 37.3653 31.1822 39.7559 31.1822 39.7559" fill="#383837"/>
<path d="M29.6148 32.0358C29.266 31.9849 28.9172 31.9591 28.5684 31.943C27.7963 31.9042 27.0222 31.9365 26.2559 32.0393C25.3749 32.1607 24.4883 32.3978 23.716 32.8506C23.3322 33.0714 22.9876 33.3542 22.6962 33.6877C22.4583 33.9667 22.2288 34.2904 22.1318 34.6483C21.9923 35.1589 22.1716 35.666 22.4841 36.0734C22.8789 36.5882 23.4265 36.9747 23.9783 37.3047C24.6534 37.6988 25.3571 38.0416 26.0836 38.3301C26.8105 38.6273 27.5486 38.8882 28.2985 39.1296C28.9031 39.3235 29.5127 39.503 30.1276 39.6681C30.4471 39.7546 30.7672 39.8376 31.0895 39.9136L31.1321 39.9241C31.3504 39.9743 31.4439 39.6381 31.2249 39.5872C31.0058 39.5363 30.7903 39.4818 30.574 39.4253C30.0299 39.2858 29.489 39.1333 28.9514 38.9677C28.2357 38.7501 27.5263 38.5136 26.8266 38.2492C26.6424 38.1794 26.4589 38.1097 26.2769 38.0343C26.0781 37.9541 25.9476 37.8997 25.7593 37.8174C25.4105 37.6639 25.0617 37.5014 24.7233 37.3235C24.4075 37.1604 24.1006 36.9807 23.8039 36.785C23.7342 36.7389 23.6644 36.6908 23.5947 36.642L23.5012 36.5722L23.4523 36.5359L23.4244 36.5143C23.3079 36.4222 23.1942 36.326 23.0861 36.2234C22.9837 36.127 22.8875 36.0243 22.798 35.9158L22.7701 35.8809L22.7771 35.89L22.7603 35.8683C22.7415 35.8425 22.722 35.816 22.7038 35.7895C22.6683 35.7379 22.6341 35.6849 22.6041 35.6305C22.5741 35.576 22.5497 35.5265 22.5253 35.4735C22.5008 35.4205 22.535 35.5035 22.5218 35.4658C22.5169 35.4519 22.5113 35.4386 22.5064 35.4247C22.496 35.3982 22.4869 35.371 22.4785 35.3431C22.4622 35.2891 22.4494 35.2341 22.4401 35.1784C22.4401 35.1659 22.436 35.1533 22.4346 35.1415C22.4346 35.1561 22.4436 35.1994 22.4346 35.1415C22.4346 35.1122 22.4297 35.0829 22.429 35.0536C22.4279 34.9988 22.43 34.9441 22.4353 34.8896C22.4388 34.8408 22.4283 34.9231 22.4353 34.884C22.4353 34.8701 22.4394 34.8561 22.4422 34.8415C22.4478 34.8129 22.4541 34.785 22.4611 34.7564C22.477 34.6982 22.4961 34.6409 22.5183 34.5848C22.528 34.5604 22.5022 34.6183 22.5183 34.5785C22.5253 34.5645 22.5315 34.5499 22.5385 34.5359C22.5546 34.5025 22.5713 34.4704 22.5894 34.4383C22.799 34.0646 23.0802 33.7358 23.4168 33.4707C23.4789 33.4205 23.564 33.3584 23.6498 33.3005C23.7356 33.2426 23.8263 33.1854 23.9176 33.1324C24.009 33.0794 24.1088 33.0271 24.2071 32.9789C24.2532 32.9559 24.2999 32.9336 24.3467 32.9127L24.4813 32.8534C24.8887 32.6901 25.3105 32.5651 25.7411 32.4802C26.1468 32.3961 26.5577 32.3397 26.971 32.3113C27.3491 32.2834 27.7279 32.273 28.1073 32.2779C28.5737 32.2824 29.0395 32.3129 29.5025 32.3692L29.5311 32.3727C29.5576 32.3727 29.4704 32.3644 29.5081 32.3727H29.5255C29.5701 32.3836 29.6171 32.377 29.6569 32.3543C29.6968 32.3316 29.7264 32.2945 29.7397 32.2507C29.7517 32.2062 29.7457 32.1587 29.723 32.1186C29.7003 32.0786 29.6627 32.049 29.6183 32.0365L29.6148 32.0358Z" fill="#1E1E1E"/>
<path d="M14.1876 32.0614C14.1876 32.0614 11.2906 36.948 11.3973 39.1921C11.3973 39.1921 17.2424 42.1757 22.0181 36.2553C22.1759 36.06 22.2925 35.8348 22.3609 35.5932C22.4293 35.3517 22.4481 35.0988 22.4161 34.8497C22.384 34.6007 22.3019 34.3608 22.1747 34.1443C22.0474 33.9279 21.8776 33.7395 21.6755 33.5905C20.6703 32.8546 18.325 32.1765 14.1876 32.0614Z" fill="#383837" stroke="#1E1E1E" stroke-width="0.348794" stroke-miterlimit="10"/>
<path d="M16.0753 42.9614C16.0753 42.9614 16.1276 36.2597 10.9299 36.2437C10.2532 36.2449 9.59411 36.4587 9.0456 36.8549C8.49709 37.2511 8.08692 37.8096 7.87303 38.4515C7.27241 40.2443 7.14614 42.9565 10.4827 45.0277C10.4827 45.027 16.5733 47.735 16.0753 42.9614Z" fill="#383837" stroke="#1E1E1E" stroke-width="0.348794" stroke-miterlimit="10"/>
<path d="M30.7847 45.3192C30.281 45.1797 29.6581 44.3126 29.6623 43.8054C29.679 41.8062 30.1708 37.1016 33.6608 36.2436C38.0668 35.1602 39.4982 38.6154 38.5439 41.7148C37.6322 44.6781 36.47 46.8574 30.7847 45.3192Z" fill="#383837" stroke="#1E1E1E" stroke-width="0.348794" stroke-miterlimit="10"/>
<path d="M13.7077 7.24061C13.6184 7.28945 13.5277 7.33688 13.4363 7.38013C12.4681 7.85589 6.29165 11.2734 5.60243 21.2656C4.85392 32.1145 12.602 32.7025 15.3268 32.54C18.0516 32.3775 29.0588 32.5937 33.1732 27.1435C36.0263 23.3639 36.8494 20.7954 36.3556 17.6647C35.5973 12.8597 32.5132 8.70973 28.0968 6.67069C27.3545 6.32853 26.5864 6.04537 25.7997 5.82382C19.7955 4.13147 14.6243 6.73696 13.7077 7.24061Z" fill="#F4F4F4" stroke="#1E1E1E" stroke-width="0.348794" stroke-miterlimit="10"/>
<path d="M25.0518 28.8555C23.123 30.0295 21.6769 28.7906 20.7672 27.1589C20.7672 27.1589 22.5147 23.685 26.5976 25.807C26.6883 26.9441 26.3388 28.0756 25.0518 28.8555Z" fill="#D2597A"/>
<path d="M24.9639 28.7033C24.3835 29.0521 23.7082 29.2516 23.0441 29.073C22.4498 28.9126 21.9601 28.4989 21.5687 28.0329C21.3219 27.7331 21.104 27.4105 20.9179 27.0696V27.2454C20.9763 27.1335 21.0428 27.026 21.1167 26.9238C21.1537 26.8701 21.192 26.8177 21.2311 26.7661C21.2506 26.7403 21.2081 26.7947 21.2423 26.7522L21.273 26.7131C21.2988 26.681 21.326 26.6489 21.3525 26.6168C21.4648 26.4855 21.5848 26.3609 21.7117 26.2436C21.7815 26.1781 21.8554 26.1153 21.9308 26.0553L21.9629 26.0295C21.9992 26.0009 21.9343 26.0511 21.9712 26.0232L22.0271 25.9813C22.0724 25.9478 22.1191 25.9151 22.1666 25.8837C22.3507 25.7603 22.5454 25.6533 22.7484 25.5642C22.7538 25.5614 22.7594 25.5591 22.7651 25.5572L22.7951 25.5453C22.8244 25.5328 22.8551 25.5216 22.8851 25.5105C22.9416 25.4895 22.9988 25.47 23.056 25.4519C23.1784 25.4133 23.3027 25.3814 23.4285 25.3563C23.5521 25.3306 23.6772 25.3133 23.8031 25.3047C23.9447 25.2935 24.0867 25.29 24.2286 25.2942C25.0218 25.3186 25.801 25.5886 26.5097 25.9555L26.4232 25.8048C26.4621 26.2231 26.4236 26.645 26.3095 27.0493C26.1837 27.4663 25.9593 27.8467 25.6552 28.1585C25.4484 28.3681 25.2162 28.5509 24.9639 28.7026C24.7728 28.8198 24.9479 29.1212 25.1397 29.004C25.7752 28.614 26.2942 28.0699 26.5676 27.3695C26.6838 27.0665 26.7543 26.748 26.7769 26.4243C26.7885 26.2641 26.7904 26.1034 26.7825 25.943C26.7776 25.839 26.7874 25.7176 26.6876 25.6542C26.5989 25.6033 26.5071 25.5578 26.4128 25.5181C25.3225 25.0061 24.0668 24.7459 22.9004 25.138C22.1654 25.393 21.5178 25.8514 21.033 26.4599C20.8952 26.6271 20.7707 26.8049 20.6605 26.9914C20.6451 27.0172 20.6298 27.0438 20.6165 27.071C20.5607 27.1861 20.6361 27.2802 20.6926 27.3807C20.7379 27.4581 20.784 27.5342 20.8321 27.6095C20.9242 27.7546 21.0218 27.8969 21.1258 28.0336C21.5269 28.5638 22.0194 29.0416 22.6402 29.3018C22.9509 29.4281 23.2835 29.4914 23.6188 29.4881C23.9541 29.4847 24.2854 29.4148 24.5935 29.2823C24.7829 29.2034 24.9659 29.1101 25.1411 29.0033C25.3315 28.8903 25.1564 28.5882 24.9639 28.7033Z" fill="#1E1E1E"/>
<path d="M26.5977 25.8069C22.5148 23.6849 20.7673 27.1589 20.7673 27.1589C19.9372 25.6709 19.5535 23.8565 19.6554 23.2454C19.6554 23.2454 23.1279 24.1523 24.731 21.5349C24.731 21.5349 26.4289 23.6863 26.5977 25.8069Z" fill="#383837"/>
<path d="M26.6856 25.6564C25.4997 25.0439 24.1045 24.6965 22.8077 25.168C22.0347 25.4629 21.3657 25.9787 20.8837 26.6511C20.783 26.7829 20.6937 26.9229 20.6165 27.0697H20.9179C20.6104 26.511 20.3601 25.9228 20.1708 25.3138C20.0089 24.8244 19.8956 24.3201 19.8325 23.8084C19.822 23.7073 19.815 23.6054 19.8136 23.5036C19.8136 23.4608 19.8136 23.4183 19.8136 23.3759C19.8136 23.3543 19.8171 23.3334 19.8185 23.3125C19.8227 23.2629 19.8136 23.3376 19.8185 23.2901L19.6037 23.4122C20.0402 23.5176 20.4877 23.5705 20.9367 23.5699C21.8436 23.5838 22.7742 23.4073 23.5583 22.9372C24.097 22.6108 24.5492 22.1595 24.8767 21.6215L24.6026 21.6571C24.6144 21.6717 24.6186 21.6913 24.5879 21.6383C24.5994 21.6549 24.6117 21.671 24.6249 21.6864C24.6674 21.7436 24.71 21.8015 24.7518 21.8601C24.8914 22.0603 25.0309 22.2647 25.1578 22.4733C25.5553 23.0994 25.8797 23.769 26.1247 24.4691C26.2766 24.901 26.3752 25.3498 26.4184 25.8056C26.4194 25.8516 26.4382 25.8953 26.4706 25.9278C26.5031 25.9603 26.5469 25.979 26.5928 25.98C26.6389 25.9795 26.6829 25.9609 26.7155 25.9284C26.7481 25.8958 26.7666 25.8517 26.7672 25.8056C26.6974 24.956 26.4184 24.1412 26.0508 23.3759C25.7765 22.8033 25.4549 22.2545 25.0895 21.7352C25.012 21.625 24.9325 21.5162 24.8488 21.4101C24.779 21.3188 24.6284 21.3592 24.5754 21.4457C24.3058 21.8887 23.9427 22.2675 23.5115 22.5556C23.1271 22.8071 22.701 22.988 22.2531 23.0899C22.1464 23.115 22.0396 23.1367 21.9315 23.1541C21.8234 23.1716 21.7648 23.1806 21.6462 23.1925C21.449 23.2132 21.2508 23.2234 21.0525 23.2232C20.8761 23.2232 20.6989 23.2169 20.5231 23.2029C20.4477 23.1967 20.3724 23.189 20.2971 23.1806L20.2064 23.1695C20.154 23.1632 20.2378 23.1743 20.1875 23.1695L20.1366 23.1618C19.9911 23.1421 19.8467 23.1146 19.7041 23.0795C19.6596 23.0674 19.6122 23.0735 19.5721 23.0962C19.532 23.1189 19.5025 23.1565 19.4899 23.2008C19.4244 23.6096 19.5039 24.0421 19.5848 24.4426C19.7093 25.0448 19.8893 25.6343 20.1227 26.2033C20.267 26.5617 20.4329 26.9111 20.6193 27.2496C20.635 27.2756 20.6571 27.2972 20.6835 27.3121C20.7099 27.327 20.7397 27.3349 20.77 27.3349C20.8004 27.3349 20.8302 27.327 20.8566 27.3121C20.883 27.2972 20.9051 27.2756 20.9207 27.2496C20.9791 27.1378 21.0456 27.0303 21.1195 26.9281C21.1565 26.8743 21.1948 26.822 21.2339 26.7704C21.2534 26.7446 21.2109 26.799 21.2451 26.7565L21.2758 26.7174C21.3016 26.6853 21.3288 26.6532 21.3553 26.6211C21.4677 26.4898 21.5876 26.3652 21.7145 26.2479C21.7843 26.1823 21.8583 26.1196 21.9336 26.0596L21.9657 26.0338C22.002 26.0052 21.9371 26.0554 21.9741 26.0275L22.0299 25.9856C22.0752 25.9521 22.1219 25.9193 22.1694 25.888C22.3525 25.7632 22.5462 25.6549 22.7484 25.5643C22.7538 25.5615 22.7594 25.5592 22.7651 25.5573L22.7951 25.5454C22.8244 25.5329 22.8551 25.5217 22.8851 25.5106C22.9416 25.4896 22.9988 25.4701 23.056 25.452C23.1784 25.4134 23.3027 25.3815 23.4285 25.3564C23.5521 25.3307 23.6772 25.3134 23.8031 25.3048C23.9447 25.2936 24.0867 25.2901 24.2287 25.2943C25.0218 25.3187 25.801 25.5887 26.5098 25.9556C26.7086 26.0603 26.8851 25.7596 26.6856 25.6564Z" fill="#1E1E1E"/>
<path d="M25.9273 12.5312C24.8356 13.3892 23.4349 14.9958 23.416 17.5991C23.416 17.5991 23.4858 19.9144 25.8025 20.912C28.1191 21.9095 27.4237 24.2325 28.5098 25.1205C29.665 26.0651 32.4163 26.4278 33.7501 24.9399C35.1257 23.4052 37.1159 19.475 34.1024 15.2839C31.8101 12.1008 30.1129 11.5427 28.6556 11.558C27.6638 11.5733 26.7049 11.9153 25.9273 12.5312Z" fill="#383837" stroke="#1E1E1E" stroke-width="0.348794" stroke-miterlimit="10"/>
<path d="M14.6145 18.5249C14.6145 18.5249 9.59187 15.8678 8.87963 23.5901C8.16739 31.3124 14.4401 32.2039 15.8967 31.6695C17.3532 31.1352 20.6702 30.0651 18.1764 23.9752C18.1764 23.9752 17.6037 22.453 17.3218 21.1611C16.9835 19.6118 15.3393 18.7977 14.6145 18.5249Z" fill="#383837" stroke="#1E1E1E" stroke-width="0.348794" stroke-miterlimit="10"/>
<path d="M22.276 19.8951C21.953 19.7921 21.6025 19.8193 21.2994 19.9711C20.6423 20.2913 19.4236 21.0314 20.4497 21.7311C21.674 22.5647 23.7005 20.3687 22.276 19.8951Z" fill="#383837" stroke="#1E1E1E" stroke-width="0.348794" stroke-miterlimit="10"/>
<path d="M11.8277 25.8983C11.8911 24.8205 12.4115 21.9702 16.2099 23.1623C16.2402 23.1719 16.2728 23.1716 16.3029 23.1616C16.3331 23.1515 16.3593 23.1322 16.3778 23.1063C16.3963 23.0805 16.4062 23.0494 16.4059 23.0176C16.4057 22.9858 16.3955 22.9549 16.3766 22.9293C15.9344 22.3406 14.8245 21.3298 12.7624 22.0964C10.5057 22.9335 11.1866 25.064 11.6205 25.9408C11.6313 25.9623 11.6489 25.9797 11.6706 25.9902C11.6923 26.0007 11.7168 26.0038 11.7404 25.9989C11.764 25.9941 11.7853 25.9816 11.8011 25.9634C11.8169 25.9452 11.8262 25.9223 11.8277 25.8983Z" fill="#1E1E1E"/>
<path d="M26.0654 19.2413C26.1122 18.2068 26.5844 15.1353 30.6186 16.4928C30.6365 16.4991 30.6559 16.4997 30.6742 16.4944C30.6924 16.4891 30.7085 16.4782 30.7203 16.4633C30.732 16.4483 30.7387 16.43 30.7395 16.4111C30.7403 16.3921 30.7351 16.3733 30.7246 16.3575C30.3758 15.8203 29.2597 14.534 27.0037 15.3725C24.6919 16.2312 25.4627 18.4419 25.8938 19.279C25.9029 19.2969 25.9177 19.3114 25.9359 19.32C25.954 19.3287 25.9746 19.331 25.9943 19.3267C26.0139 19.3224 26.0316 19.3117 26.0445 19.2962C26.0574 19.2807 26.0647 19.2614 26.0654 19.2413Z" fill="#1E1E1E"/>
</svg>
