<svg width="54" height="30" viewBox="0 0 54 30" fill="none" xmlns="http://www.w3.org/2000/svg">
<path d="M6.82656 9.49966C6.82656 9.49966 0.653882 7.93404 0.301618 13.6842C-0.0506463 19.4344 6.59172 18.5526 6.59172 18.5526L6.82656 9.49966Z" fill="#C8DA7E" stroke="#222323" stroke-width="0.575595" stroke-miterlimit="10"/>
<path d="M27.6492 9.4305C27.6492 9.4305 23.193 2.62582 17.2298 2.8008C11.2667 2.97578 7.41248 6.29006 6.14847 9.08169C4.88447 11.8733 3.48117 18.061 7.82 21.3142C12.2832 24.6653 17.2598 26.429 25.6013 22.3987C25.6013 22.3987 35.5395 17.2229 27.6492 9.4305Z" fill="#C8DA7E" stroke="#212323" stroke-width="0.575595" stroke-miterlimit="10"/>
<path d="M29.3703 15.6561C29.3703 15.6561 21.9336 20.8054 25.1961 24.8069C28.4585 28.8085 34.4551 29.1331 36.4536 28.7797C37.7417 28.5495 40.0683 27.7632 41.8745 26.9159C42.0761 26.8202 42.2473 26.6705 42.369 26.4834C42.4907 26.2963 42.5581 26.0791 42.5639 25.856C42.5696 25.6328 42.5134 25.4125 42.4014 25.2194C42.2895 25.0263 42.1262 24.868 41.9298 24.762C40.3952 23.9251 38.6247 22.2409 38.6581 18.9324C38.6581 18.9324 39.3638 24.4293 45.9175 23.1366C52.4712 21.8438 53.9758 19.8442 53.6777 18.8449C53.3795 17.8457 43.8315 16.3123 43.8315 16.3123C43.8315 16.3123 37.1005 19.8453 29.3703 15.6561Z" fill="#C8DA7E" stroke="#222323" stroke-width="0.575595" stroke-miterlimit="10"/>
<path d="M39.0403 6.83927C39.0403 6.83927 41.7617 7.94326 42.8242 6.61939C43.8868 5.29552 45.5123 4.19383 45.9969 6.61939C46.4816 9.04495 43.6692 13.5588 41.9896 14.0791C40.31 14.5994 39.0403 6.83927 39.0403 6.83927Z" fill="#C8DA7E" stroke="#222323" stroke-width="0.575595" stroke-miterlimit="10"/>
<path d="M42.8174 12.7471C42.8266 13.8004 42.5112 14.8043 41.6259 15.5687C38.4026 18.3453 33.4145 16.0821 32.269 14.4958C31.1236 12.9094 28.6048 6.77242 25.6554 5.89867C24.5975 5.58439 23.6052 5.16306 22.7556 4.54947C21.1347 3.37871 19.6704 3.10818 19.6704 3.10818C19.6704 3.10818 24.5204 -0.788593 31.0453 0.575567C37.5703 1.93973 40.5219 6.83919 40.5219 6.83919C40.5219 6.83919 42.7944 9.96812 42.8174 12.7471Z" fill="#4BAF82" stroke="#222222" stroke-width="0.575595" stroke-miterlimit="10"/>
<path d="M22.4827 1.57251C22.4827 1.57251 22.5978 3.71948 22.2306 4.19722" stroke="#212323" stroke-width="0.575595" stroke-miterlimit="10"/>
<path d="M29.5856 0.356812C29.5856 0.356812 30.0461 2.71675 29.5856 3.37868L26.0768 5.77776" stroke="#212323" stroke-width="0.575595" stroke-miterlimit="10"/>
<path d="M29.5856 3.37878C29.5856 3.37878 33.7644 7.61746 37.5058 3.60902" stroke="#212323" stroke-width="0.575595" stroke-miterlimit="10"/>
<path d="M33.845 5.3335L33.7575 9.28668L30.571 11.1528" stroke="#212323" stroke-width="0.575595" stroke-miterlimit="10"/>
<path d="M33.7563 9.28662C33.7563 9.28662 37.6013 13.8258 41.9839 9.42822" stroke="#212323" stroke-width="0.575595" stroke-miterlimit="10"/>
<path d="M37.9893 11.3461V16.8108" stroke="#212323" stroke-width="0.575595" stroke-miterlimit="10"/>
<path d="M39.51 19.9997C35.6086 21.3661 32.5661 19.5139 30.6931 18.1474C28.9605 16.8811 26.6639 11.6846 25.9306 9.94749C25.1973 8.21034 22.7556 4.54956 22.7556 4.54956C23.7295 4.93406 24.9636 5.04457 25.8869 5.64895C28.865 7.59791 31.3539 12.6631 32.5004 14.246C33.647 15.8289 38.4072 18.3454 41.6259 15.5687C42.5112 14.8044 42.8266 13.8005 42.8174 12.7472C49.3435 15.6562 43.4114 18.6321 39.51 19.9997Z" fill="#95C357" stroke="#222222" stroke-width="0.575595" stroke-miterlimit="10"/>
<path d="M9.4796 14.9591C9.59031 14.2209 9.20298 13.551 8.61447 13.4627C8.02596 13.3744 7.45913 13.9013 7.34841 14.6394C7.2377 15.3776 7.62503 16.0475 8.21354 16.1358C8.80206 16.224 9.36889 15.6972 9.4796 14.9591Z" fill="#212323"/>
<path d="M19.1494 17.4032C19.253 16.7122 18.8906 16.0851 18.3398 16.0025C17.789 15.9199 17.2585 16.4131 17.1548 17.1041C17.0512 17.7951 17.4137 18.4222 17.9644 18.5048C18.5152 18.5874 19.0458 18.0942 19.1494 17.4032Z" fill="#212323"/>
<path d="M10.3883 17.6593C10.7912 18.5238 11.6765 19.2709 12.6596 19.2709C13.1635 19.2524 13.6528 19.0964 14.0744 18.8197C14.3898 18.6263 14.1009 18.1289 13.7843 18.3223C13.611 18.4333 13.4256 18.524 13.2317 18.5929C13.077 18.6479 12.9155 18.6816 12.7517 18.693C12.612 18.7042 12.4714 18.6937 12.335 18.6619C12.2682 18.6468 12.2025 18.6276 12.1381 18.6044L12.061 18.5756C12.0921 18.5883 12.0414 18.5664 12.0345 18.5629L11.9723 18.5342C11.9147 18.5053 11.8586 18.4734 11.8043 18.4386L11.7191 18.3822C11.7076 18.3742 11.6212 18.3097 11.6673 18.3454C11.5671 18.2668 11.4728 18.181 11.3852 18.0887C11.3461 18.0484 11.3093 18.0058 11.2701 17.9643L11.216 17.8987L11.1964 17.8734C11.1515 17.8181 11.2333 17.9229 11.1964 17.8676C11.14 17.7916 11.0813 17.7145 11.0341 17.6374C10.9787 17.552 10.9287 17.4632 10.8845 17.3715C10.8454 17.3062 10.7823 17.2588 10.7087 17.2394C10.6351 17.2201 10.5569 17.2303 10.4908 17.2679C10.4262 17.3076 10.3793 17.3706 10.36 17.4439C10.3407 17.5173 10.3505 17.5952 10.3872 17.6616L10.3883 17.6593Z" fill="#212323"/>
</svg>
